<?xml version="1.0" encoding="UTF-8"?>
<svg version="1.1" xmlns="http://www.w3.org/2000/svg" width="891" height="215">
<path d="M0 0 C0.99 0.66 1.98 1.32 3 2 C5.94744827 1.79300808 8.77184106 1.48912431 11.6875 1.0625 C25.83615277 -0.98887882 25.83615277 -0.98887882 31.01953125 2.26953125 C32.35489256 4.62636415 32.11004536 6.03698822 31.6875 8.6875 C31.56761719 9.49574219 31.44773437 10.30398437 31.32421875 11.13671875 C31.21722656 11.75160156 31.11023438 12.36648437 31 13 C30.34 13 29.68 13 29 13 C28.79503906 13.56203125 28.59007812 14.1240625 28.37890625 14.703125 C26.50283916 17.82813194 23.80608727 19.60359216 20.9375 21.75 C16.82895937 24.86633494 16.82895937 24.86633494 14.12890625 29.1484375 C14.00193724 31.09529566 14 33.04900594 14 35 C12.11867877 40.37377394 9.27596943 44.23307455 5 48 C4.51273437 48.4434375 4.02546875 48.886875 3.5234375 49.34375 C-2.99247981 55.09112322 -8.81077573 55.5241461 -17.25 55.328125 C-23.52465079 54.77909306 -27.85440217 52.43039855 -33 49 C-35.94057073 48.97808293 -35.94057073 48.97808293 -39.1875 49.375 C-40.34894531 49.48070312 -41.51039062 49.58640625 -42.70703125 49.6953125 C-44.33705078 49.84613281 -44.33705078 49.84613281 -46 50 C-51.75977083 50.4336325 -56.00326386 49.957252 -61 47 C-62.31527964 44.05996316 -62.21484274 42.65856318 -61.22265625 39.6171875 C-58.44299142 33.66710623 -53.75859843 28.65059813 -47.8125 25.875 C-44.1273311 23.84923464 -43.22287532 21.49104765 -41.9597168 17.54736328 C-41.57837148 16.21209738 -41.2229811 14.86906326 -40.89770508 13.51904297 C-39.49022642 8.09147489 -37.48682119 6.06187273 -33 3 C-32.34 3 -31.68 3 -31 3 C-31 2.34 -31 1.68 -31 1 C-20.38176523 -3.68205628 -10.70550975 -5.06078643 0 0 Z M8 8 C8.45375 8.53625 8.9075 9.0725 9.375 9.625 C11.25799477 12.37706927 12.24041347 14.75449392 13 18 C12.01 19.485 12.01 19.485 11 21 C13.49361571 19.79618552 15.68143083 18.54571278 18 17 C18 16.34 18 15.68 18 15 C18.99 14.67 19.98 14.34 21 14 C23.28600028 11.29667695 23.28600028 11.29667695 22.6875 8.875 C22.15421514 7.01406147 22.15421514 7.01406147 21 6 C19.00009484 5.80010237 19.00009484 5.80010237 16.6875 5.8125 C15.90761719 5.79832031 15.12773437 5.78414062 14.32421875 5.76953125 C11.7967332 6.02015587 10.18281969 6.73626228 8 8 Z M-28 15 C-28.33 16.32 -28.66 17.64 -29 19 C-27.11683841 20.10836423 -27.11683841 20.10836423 -25 21 C-24.34 20.67 -23.68 20.34 -23 20 C-23.33 18.35 -23.66 16.7 -24 15 C-25.32 15 -26.64 15 -28 15 Z M6 23 C5.67 23.66 5.34 24.32 5 25 C5.99 24.67 6.98 24.34 8 24 C7.34 23.67 6.68 23.34 6 23 Z M-46.98046875 30.828125 C-48.07294922 32.02695312 -48.07294922 32.02695312 -49.1875 33.25 C-50.29158203 34.43335938 -50.29158203 34.43335938 -51.41796875 35.640625 C-53.23669798 37.83731482 -53.23669798 37.83731482 -52.86328125 40.234375 C-52.12928309 42.18831143 -52.12928309 42.18831143 -50 43 C-47.95944995 43.07065617 -45.91665743 43.08421976 -43.875 43.0625 C-42.77929688 43.05347656 -41.68359375 43.04445313 -40.5546875 43.03515625 C-39.71164063 43.02355469 -38.86859375 43.01195312 -38 43 C-38.27714844 42.40832031 -38.55429688 41.81664062 -38.83984375 41.20703125 C-42.43760984 33.35852373 -42.43760984 33.35852373 -43 29 C-45.20427153 28.77390663 -45.20427153 28.77390663 -46.98046875 30.828125 Z " fill="#010101" transform="translate(147,27)"/>
<path d="M0 0 C49.61995968 0 49.61995968 0 62.25 11.6875 C72.19211187 22.22376198 73.56582061 34.71793481 73.24609375 48.55078125 C72.74360502 60.34301676 68.90015755 70.75496227 60.125 78.875 C43.12998107 92.60671682 20.67307613 89 0 89 C0 59.63 0 30.26 0 0 Z M12 11 C12 33.11 12 55.22 12 78 C33.08852456 79.05735189 33.08852456 79.05735189 51.71875 70.4296875 C60.23971309 61.11510529 60.56535154 50.07615374 60.140625 38.03515625 C59.56378974 29.68706822 56.20761336 23.06505276 50.1875 17.3125 C38.2753553 8.67035581 27.11391964 11 12 11 Z " fill="#3D3D3D" transform="translate(272,90)"/>
<path d="M0 0 C-1.19870726 8.36274592 -2.67869627 16.61834562 -4.4140625 24.8828125 C-5.09236733 27.96276442 -5.09236733 27.96276442 -5 31 C-4.43716309 31.09498779 -3.87432617 31.18997559 -3.29443359 31.2878418 C17.85010104 34.91822093 37.47993179 40.67365359 54 55 C57.29472605 53.07759394 60.37556359 51.02124573 63.4375 48.75 C78.35134013 38.28375908 96.60424767 31.30582067 115 32 C114.71382812 30.72898437 114.42765625 29.45796875 114.1328125 28.1484375 C112.98624229 22.98583831 111.91805884 17.80938873 110.875 12.625 C110.60236328 11.29275391 110.60236328 11.29275391 110.32421875 9.93359375 C110.06705078 8.65548828 110.06705078 8.65548828 109.8046875 7.3515625 C109.64983887 6.58666504 109.49499023 5.82176758 109.33544922 5.03369141 C109 3 109 3 109 0 C111.3125 0.4375 111.3125 0.4375 114 2 C117.06630875 8.36331727 118.21590564 15.82746951 119.6875 22.6875 C120.02491211 24.19666992 120.02491211 24.19666992 120.36914062 25.73632812 C121.41529205 30.56007191 122.31320431 35.03105596 122 40 C121.35039307 40.07516846 120.70078613 40.15033691 120.03149414 40.2277832 C117.04058323 40.57954559 114.05163023 40.94592576 111.0625 41.3125 C109.53012695 41.48942383 109.53012695 41.48942383 107.96679688 41.66992188 C101.62175712 42.46051788 95.9951323 43.76823542 90 46 C90.77859375 45.80664062 91.5571875 45.61328125 92.359375 45.4140625 C102.84280318 42.97437069 113.29157187 41.91571066 124 41 C123.72736328 39.81241089 123.72736328 39.81241089 123.44921875 38.60083008 C122.62723512 35.00596899 121.81353598 31.40928182 121 27.8125 C120.71382812 26.56662109 120.42765625 25.32074219 120.1328125 24.03710938 C119.86210937 22.83505859 119.59140625 21.63300781 119.3125 20.39453125 C118.93544922 18.73707886 118.93544922 18.73707886 118.55078125 17.04614258 C118.05011884 14.2771865 117.89049873 11.80368889 118 9 C119.65 9 121.3 9 123 9 C125.176887 16.95490091 127.28473492 24.92752896 129.25 32.9375 C129.42499023 33.62191162 129.59998047 34.30632324 129.78027344 35.01147461 C130.92804465 39.77865112 131.15340145 44.09663221 131 49 C128.07112284 49.97629239 125.70062306 50.28217289 122.63671875 50.54296875 C109.44136555 51.75694511 96.54473368 53.42981205 83.5625 56.0625 C81.64473755 56.4486145 81.64473755 56.4486145 79.68823242 56.8425293 C70.82167874 58.39492486 70.82167874 58.39492486 63.05859375 62.6015625 C60.30095625 64.47487222 58.36950306 64.40002146 55.0625 64.375 C54.04285156 64.38273437 53.02320313 64.39046875 51.97265625 64.3984375 C48.6189355 63.94892434 46.68865852 63.03011048 44 61 C44 60.34 44 59.68 44 59 C42.32164063 58.81050781 42.32164063 58.81050781 40.609375 58.6171875 C35.77470486 58.01232315 31.02645229 57.07615889 26.25 56.125 C10.25942467 53.01682131 -5.81188605 50.78237006 -22 49 C-22.14867639 43.52021311 -21.72297141 38.81273461 -20.46875 33.4375 C-20.31337769 32.76074219 -20.15800537 32.08398438 -19.9979248 31.38671875 C-19.50675891 29.25582581 -19.00362638 27.12797838 -18.5 25 C-18.16195993 23.54315426 -17.82471321 22.08612419 -17.48828125 20.62890625 C-16.66800097 17.08376323 -15.83697495 13.54124355 -15 10 C-10.25 8.875 -10.25 8.875 -8 10 C-7.81824219 9.36191406 -7.63648437 8.72382812 -7.44921875 8.06640625 C-7.19785156 7.24011719 -6.94648437 6.41382812 -6.6875 5.5625 C-6.44386719 4.73878906 -6.20023438 3.91507812 -5.94921875 3.06640625 C-5.63597656 2.38449219 -5.32273437 1.70257813 -5 1 C-2 0 -2 0 0 0 Z M-10 15 C-10.84228458 18.56044445 -11.67223903 22.12365344 -12.5 25.6875 C-12.73847656 26.69490234 -12.97695312 27.70230469 -13.22265625 28.74023438 C-13.44824219 29.71669922 -13.67382812 30.69316406 -13.90625 31.69921875 C-14.11572266 32.59471436 -14.32519531 33.49020996 -14.54101562 34.4128418 C-14.99994512 36.99969065 -15.08261971 39.37888974 -15 42 C-13.25589844 42.14695312 -13.25589844 42.14695312 -11.4765625 42.296875 C-2.19153518 43.14239017 6.79315386 44.38503597 15.85888672 46.59082031 C20.56760639 47.7325281 25.1806892 48.47533878 30 49 C26.52099202 46.68066135 23.03226211 45.64807079 19.0625 44.5 C18.30050293 44.27860352 17.53850586 44.05720703 16.75341797 43.82910156 C6.94947389 41.05155815 -2.85270877 39.75904934 -13 39 C-12.87882812 38.45061768 -12.75765625 37.90123535 -12.6328125 37.33520508 C-12.08316951 34.82878018 -11.54152061 32.32069174 -11 29.8125 C-10.80921875 28.94818359 -10.6184375 28.08386719 -10.421875 27.19335938 C-10.24140625 26.35224609 -10.0609375 25.51113281 -9.875 24.64453125 C-9.62363281 23.48981323 -9.62363281 23.48981323 -9.3671875 22.31176758 C-8.97449085 19.83939753 -8.93814715 17.49924191 -9 15 C-9.33 15 -9.66 15 -10 15 Z " fill="#020202" transform="translate(77,92)"/>
<path d="M0 0 C1.87190449 1.63791643 3.23392515 3.41546766 4.65625 5.44921875 C5.18992187 4.97871094 5.72359375 4.50820312 6.2734375 4.0234375 C13.42981788 -1.95672119 19.83859228 -4.96813629 29.28125 -4.55078125 C34.60043132 -3.82851618 38.79659774 -2.3740217 42.65625 1.44921875 C48.14978386 9.68951954 47.81189033 19.70719137 47.7890625 29.26171875 C47.79001923 30.15665039 47.79097595 31.05158203 47.79196167 31.97363281 C47.79263699 33.84586661 47.79082835 35.71810284 47.78662109 37.59033203 C47.7812126 40.46912782 47.7866138 43.34777117 47.79296875 46.2265625 C47.79230884 48.0507816 47.7910295 49.8750006 47.7890625 51.69921875 C47.79108673 52.56264893 47.79311096 53.4260791 47.79519653 54.31567383 C47.77123437 60.33423438 47.77123437 60.33423438 46.65625 61.44921875 C44.80337498 61.52148377 42.94791122 61.53303095 41.09375 61.51171875 C40.08183594 61.50269531 39.06992187 61.49367188 38.02734375 61.484375 C37.24488281 61.47277344 36.46242188 61.46117187 35.65625 61.44921875 C35.626521 59.55816406 35.626521 59.55816406 35.59619141 57.62890625 C35.51977478 52.92477383 35.4311143 48.22093626 35.33886719 43.51708984 C35.30072584 41.48622484 35.2658478 39.4552957 35.234375 37.42431641 C35.1884006 34.49488494 35.13046109 31.56588942 35.0703125 28.63671875 C35.05876129 27.73743652 35.04721008 26.8381543 35.03530884 25.91162109 C34.88325633 19.32827913 33.74415634 13.71293777 31.65625 7.44921875 C24.81575427 6.23558241 18.9550394 6.17464938 12.65625 9.44921875 C8.26878947 12.80014251 8.26878947 12.80014251 6.13639832 17.67481995 C5.97943424 20.33299865 6.00737865 22.92882577 6.10546875 25.58984375 C6.11633011 26.55323669 6.12719147 27.51662964 6.13838196 28.50921631 C6.17844369 31.57379159 6.25977133 34.63556149 6.34375 37.69921875 C6.40112397 40.77676791 6.45011677 43.85432113 6.49555969 46.93206787 C6.52673587 48.84422001 6.56651832 50.75625464 6.61564636 52.66802979 C6.64480888 53.9601236 6.64480888 53.9601236 6.67456055 55.27832031 C6.69487839 56.03743713 6.71519623 56.79655396 6.73612976 57.57867432 C6.65625 59.44921875 6.65625 59.44921875 5.65625 61.44921875 C2.02625 61.44921875 -1.60375 61.44921875 -5.34375 61.44921875 C-5.36356934 60.2595752 -5.38338867 59.06993164 -5.40380859 57.84423828 C-5.48043608 53.38977486 -5.56906087 48.93561404 -5.66113281 44.48144531 C-5.69918823 42.56125912 -5.73407996 40.64100731 -5.765625 38.72070312 C-5.81178929 35.94507544 -5.86969339 33.1698905 -5.9296875 30.39453125 C-5.94123871 29.54931915 -5.95278992 28.70410706 -5.96469116 27.83328247 C-5.96302503 17.71295011 -5.96302503 17.71295011 -9.71713257 8.71463013 C-12.44466165 6.59277513 -14.94595167 6.61632359 -18.34375 6.44921875 C-25.21655435 7.32195581 -30.01088138 9.9343978 -34.34375 15.44921875 C-35.4484419 19.04974512 -35.41870884 22.45030572 -35.34375 26.1953125 C-35.35462646 27.20642593 -35.36550293 28.21753937 -35.37670898 29.2592926 C-35.40277834 32.46953205 -35.3740776 35.6765663 -35.34375 38.88671875 C-35.35184525 41.07097998 -35.36352556 43.25523105 -35.37890625 45.43945312 C-35.40869266 50.77662359 -35.39359212 56.11222952 -35.34375 61.44921875 C-37.15617052 61.47609154 -38.96870233 61.4955559 -40.78125 61.51171875 C-41.79058594 61.52332031 -42.79992187 61.53492188 -43.83984375 61.546875 C-46.34375 61.44921875 -46.34375 61.44921875 -47.34375 60.44921875 C-47.44300773 58.49097177 -47.47174414 56.52911978 -47.47314453 54.56835938 C-47.47629669 53.31035522 -47.47944885 52.05235107 -47.48269653 50.75622559 C-47.48090675 49.37263962 -47.4788558 47.98905397 -47.4765625 46.60546875 C-47.47723559 45.19681786 -47.47820565 43.78816709 -47.47946167 42.3795166 C-47.48093842 39.42373552 -47.47878483 36.46798461 -47.47412109 33.51220703 C-47.46842381 29.71547291 -47.47170293 25.91880947 -47.47769356 22.12207794 C-47.48129979 19.21225447 -47.4801603 16.30244787 -47.47756577 13.3926239 C-47.47689667 11.99232475 -47.47772432 10.59202408 -47.48004532 9.19172668 C-47.48257283 7.23784411 -47.47804033 5.2839562 -47.47314453 3.33007812 C-47.47234894 2.21612671 -47.47155334 1.10217529 -47.47073364 -0.04553223 C-47.34375 -2.55078125 -47.34375 -2.55078125 -46.34375 -3.55078125 C-44.49087498 -3.62304627 -42.63541122 -3.63459345 -40.78125 -3.61328125 C-39.76933594 -3.60425781 -38.75742187 -3.59523438 -37.71484375 -3.5859375 C-36.54115234 -3.56853516 -36.54115234 -3.56853516 -35.34375 -3.55078125 C-35.01375 -0.91078125 -34.68375 1.72921875 -34.34375 4.44921875 C-33.395 3.52109375 -32.44625 2.59296875 -31.46875 1.63671875 C-22.31395642 -6.12095774 -9.90277268 -6.65080284 0 0 Z " fill="#3D3D3D" transform="translate(597.34375,117.55078125)"/>
<path d="M0 0 C1.84117448 1.91443076 3.39287384 3.87292125 5 6 C5.68964844 5.44570312 6.37929688 4.89140625 7.08984375 4.3203125 C14.85263317 -1.66416988 20.37520247 -4.45688969 30.1875 -3.8125 C35.9485833 -3.01879038 40.05429144 -1.50266985 43.75 3.125 C48.30351224 10.2754205 48.29377938 18.45170565 48.23046875 26.6875 C48.23001053 27.67121582 48.22955231 28.65493164 48.2290802 29.66845703 C48.22607925 31.72901632 48.2182584 33.78957378 48.20581055 35.85009766 C48.18739167 39.01863529 48.18530227 42.18688281 48.18554688 45.35546875 C48.18063699 47.36198171 48.174811 49.36849269 48.16796875 51.375 C48.16685593 52.32592529 48.1657431 53.27685059 48.16459656 54.2565918 C48.15821671 55.12840088 48.15183685 56.00020996 48.14526367 56.8984375 C48.14145187 57.66849121 48.13764008 58.43854492 48.13371277 59.23193359 C48 61 48 61 47 62 C45.14712498 62.07226502 43.29166122 62.0838122 41.4375 62.0625 C40.42558594 62.05347656 39.41367187 62.04445313 38.37109375 62.03515625 C37.58863281 62.02355469 36.80617188 62.01195312 36 62 C35.99413376 61.43925278 35.98826752 60.87850555 35.98222351 60.30076599 C35.91809622 54.4439182 35.83362745 48.5876101 35.73754883 42.73120117 C35.70437448 40.5480055 35.6763194 38.36472561 35.65356445 36.18139648 C35.61988096 33.03593183 35.56755724 29.89123376 35.51171875 26.74609375 C35.50532883 25.7760289 35.4989389 24.80596405 35.49235535 23.8065033 C35.37037754 18.13455068 34.72489546 14.01222262 32 9 C28.98060967 6.95806197 25.48023063 6.8588939 21.91015625 7.19921875 C16.35436864 8.36156203 12.02217461 10.97782539 8 15 C7.67688972 17.05222056 7.67688972 17.05222056 7.69702148 19.43383789 C7.68037949 20.35141373 7.66373749 21.26898956 7.64659119 22.21437073 C7.63817703 23.20710495 7.62976288 24.19983917 7.62109375 25.22265625 C7.60409927 26.23847275 7.5871048 27.25428925 7.56959534 28.30088806 C7.51633108 31.55469512 7.47610407 34.80848849 7.4375 38.0625 C7.39364467 41.32001661 7.34700015 44.57743149 7.29469299 47.83482361 C7.26261559 49.86466373 7.23576366 51.894594 7.21446228 53.92457581 C7.20097244 54.83899948 7.1874826 55.75342316 7.17358398 56.69555664 C7.15931618 57.9089547 7.15931618 57.9089547 7.14476013 59.14686584 C7 61 7 61 6 62 C4.14712498 62.07226502 2.29166122 62.0838122 0.4375 62.0625 C-0.57441406 62.05347656 -1.58632813 62.04445313 -2.62890625 62.03515625 C-3.41136719 62.02355469 -4.19382812 62.01195312 -5 62 C-5.00586624 61.45400146 -5.01173248 60.90800293 -5.01777649 60.34545898 C-5.08198324 54.63443333 -5.16647139 48.92395704 -5.26245117 43.21337891 C-5.29559282 41.08552316 -5.32365787 38.95758177 -5.34643555 36.82958984 C-5.38017972 33.76102392 -5.43250568 30.69323518 -5.48828125 27.625 C-5.49467117 26.68197021 -5.5010611 25.73894043 -5.50764465 24.76733398 C-5.63707444 18.88027064 -6.37966857 14.31541082 -9 9 C-14.02993523 6.74520145 -18.31917725 6.51109085 -23.62744141 8.05711365 C-27.9342422 9.76869359 -31.15427993 12.34872937 -34 16 C-35.10247456 19.60127372 -35.07496205 23.00092689 -35 26.74609375 C-35.01087646 27.75720718 -35.02175293 28.76832062 -35.03295898 29.81007385 C-35.05902834 33.0203133 -35.0303276 36.22734755 -35 39.4375 C-35.00809525 41.62176123 -35.01977556 43.8060123 -35.03515625 45.99023438 C-35.06494374 51.32759845 -35.04563632 56.66276947 -35 62 C-38.63 62 -42.26 62 -46 62 C-46 40.55 -46 19.1 -46 -3 C-42.37 -3 -38.74 -3 -35 -3 C-34.67 -0.36 -34.34 2.28 -34 5 C-33.55269531 4.59007813 -33.10539062 4.18015625 -32.64453125 3.7578125 C-23.6125213 -4.29203859 -10.68587101 -7.20675022 0 0 Z " fill="#3D3D3D" transform="translate(483,117)"/>
<path d="M0 0 C18.48 0 36.96 0 56 0 C56 3.63 56 7.26 56 11 C41.48 11 26.96 11 12 11 C12 19.91 12 28.82 12 38 C25.53 38 39.06 38 53 38 C53 41.3 53 44.6 53 48 C39.47 48 25.94 48 12 48 C12 57.9 12 67.8 12 78 C26.52 78 41.04 78 56 78 C56 81.63 56 85.26 56 89 C37.52 89 19.04 89 0 89 C0 59.63 0 30.26 0 0 Z " fill="#3D3D3D" transform="translate(725,90)"/>
<path d="M0 0 C5.16332524 5.41519476 6.68464379 11.14307594 6.69189453 18.46191406 C6.69504669 19.37926331 6.69819885 20.29661255 6.70144653 21.24176025 C6.6994223 22.21901062 6.69739807 23.19626099 6.6953125 24.203125 C6.69626923 25.21469666 6.69722595 26.22626831 6.69821167 27.26849365 C6.69889072 29.40002505 6.69705561 31.53155854 6.69287109 33.66308594 C6.68749672 36.93949974 6.69283677 40.21577783 6.69921875 43.4921875 C6.69855836 45.5625003 6.697278 47.63281302 6.6953125 49.703125 C6.69733673 50.68847229 6.69936096 51.67381958 6.70144653 52.68902588 C6.69671829 54.04613678 6.69671829 54.04613678 6.69189453 55.43066406 C6.69109894 56.23054749 6.69030334 57.03043091 6.68948364 57.85455322 C6.5625 59.6875 6.5625 59.6875 5.5625 60.6875 C3.87641034 60.75955511 2.18749341 60.77136068 0.5 60.75 C-0.87865234 60.73646484 -0.87865234 60.73646484 -2.28515625 60.72265625 C-3.35056641 60.70525391 -3.35056641 60.70525391 -4.4375 60.6875 C-5.0975 58.0475 -5.7575 55.4075 -6.4375 52.6875 C-6.89898438 53.08582031 -7.36046875 53.48414063 -7.8359375 53.89453125 C-14.71598362 59.48286911 -21.24394736 62.13284868 -30.1875 61.5625 C-37.5785544 60.56455173 -41.57882791 57.99532814 -46.23828125 52.30859375 C-49.49513557 47.90600566 -48.9211324 42.95055852 -48.4375 37.6875 C-47.21443063 32.76216659 -44.9513326 29.62244089 -40.6875 26.875 C-29.846288 21.60570812 -17.24802049 21.18924367 -5.4375 21.6875 C-5.693102 19.74793186 -5.96754646 17.81084011 -6.25 15.875 C-6.40082031 14.79605469 -6.55164063 13.71710938 -6.70703125 12.60546875 C-7.46435772 9.58021275 -7.99903362 8.53611292 -10.4375 6.6875 C-15.91331576 3.79748613 -21.29636036 4.21404109 -27.1875 5.5625 C-30.2466288 6.620427 -31.18519606 7.19323896 -32.67578125 10.11328125 C-33.64184376 13.18654761 -33.64184376 13.18654761 -34.4375 17.6875 C-38.0675 17.6875 -41.6975 17.6875 -45.4375 17.6875 C-45.93508708 11.71645504 -44.77878633 7.68851026 -41.4375 2.6875 C-31.33204603 -7.41795397 -11.46150042 -8.77300032 0 0 Z M-35.4375 36.6875 C-37.03366743 39.87983485 -36.95216114 43.22211497 -36.4375 46.6875 C-34.56734906 49.11869623 -33.15611655 50.32819173 -30.4375 51.6875 C-23.23465194 52.42718642 -17.42719598 51.92510804 -11.4375 47.6875 C-8.56064797 45.14661321 -8.56064797 45.14661321 -6.4375 42.6875 C-6.1075 42.3575 -5.7775 42.0275 -5.4375 41.6875 C-5.36505947 39.66785801 -5.35372812 37.64582876 -5.375 35.625 C-5.38402344 34.52027344 -5.39304687 33.41554687 -5.40234375 32.27734375 C-5.41394531 31.42269531 -5.42554688 30.56804687 -5.4375 29.6875 C-15.4833101 29.25002117 -27.9994511 28.73648221 -35.4375 36.6875 Z " fill="#3D3D3D" transform="translate(883.4375,118.3125)"/>
<path d="M0 0 C1.51400391 0.01740234 1.51400391 0.01740234 3.05859375 0.03515625 C4.07050781 0.04417969 5.08242188 0.05320312 6.125 0.0625 C7.29869141 0.07990234 7.29869141 0.07990234 8.49609375 0.09765625 C8.51067627 1.35312256 8.52525879 2.60858887 8.5402832 3.90209961 C8.59858275 8.59329649 8.67581234 13.28402919 8.75854492 17.97485352 C8.79164603 19.99886499 8.81972332 22.02296549 8.8425293 24.04711914 C8.87634912 26.96929598 8.92867716 29.89066783 8.984375 32.8125 C8.99076492 33.70662094 8.99715485 34.60074188 9.0037384 35.5219574 C9.13493793 41.22361305 9.61456888 47.04959254 12.49609375 52.09765625 C17.23176575 55.04345128 22.3605284 54.8143569 27.68359375 53.59765625 C32.35679123 52.03992376 35.22215424 49.8676472 38.49609375 46.09765625 C38.82609375 45.76765625 39.15609375 45.43765625 39.49609375 45.09765625 C39.61819299 43.68647923 39.67380247 42.26945166 39.70141602 40.85327148 C39.72136124 39.95241318 39.74130646 39.05155487 39.76185608 38.12339783 C39.77856857 37.14423904 39.79528107 36.16508026 39.8125 35.15625 C39.8332811 34.15884293 39.85406219 33.16143585 39.87547302 32.13380432 C39.94108012 28.93432782 39.99990509 25.73476643 40.05859375 22.53515625 C40.10176837 20.37173586 40.1453823 18.20832419 40.18945312 16.04492188 C40.29677278 10.72925751 40.39851802 5.41350791 40.49609375 0.09765625 C42.30851427 0.07078346 44.12104608 0.0513191 45.93359375 0.03515625 C46.94292969 0.02355469 47.95226562 0.01195313 48.9921875 0 C51.49609375 0.09765625 51.49609375 0.09765625 52.49609375 1.09765625 C52.59535148 3.05590323 52.62408789 5.01775522 52.62548828 6.97851562 C52.62864044 8.23651978 52.6317926 9.49452393 52.63504028 10.79064941 C52.6332505 12.17423538 52.63119955 13.55782103 52.62890625 14.94140625 C52.62957934 16.35005714 52.6305494 17.75870791 52.63180542 19.1673584 C52.63328217 22.12313948 52.63112858 25.07889039 52.62646484 28.03466797 C52.62076756 31.83140209 52.62404668 35.62806553 52.63003731 39.42479706 C52.63364354 42.33462053 52.63250405 45.24442713 52.62990952 48.1542511 C52.62924042 49.55455025 52.63006807 50.95485092 52.63238907 52.35514832 C52.63491658 54.30903089 52.63038408 56.2629188 52.62548828 58.21679688 C52.62469269 59.33074829 52.62389709 60.44469971 52.62307739 61.59240723 C52.49609375 64.09765625 52.49609375 64.09765625 51.49609375 65.09765625 C49.64321873 65.16992127 47.78775497 65.18146845 45.93359375 65.16015625 C44.92167969 65.15113281 43.90976562 65.14210938 42.8671875 65.1328125 C42.08472656 65.12121094 41.30226563 65.10960937 40.49609375 65.09765625 C40.00109375 61.13765625 40.00109375 61.13765625 39.49609375 57.09765625 C38.80902344 57.59136719 38.12195313 58.08507812 37.4140625 58.59375 C36.51300781 59.23441406 35.61195313 59.87507813 34.68359375 60.53515625 C33.34361328 61.49228516 33.34361328 61.49228516 31.9765625 62.46875 C27.647369 65.31170069 23.69789073 65.31128782 18.68359375 65.34765625 C17.98427734 65.36828125 17.28496094 65.38890625 16.56445312 65.41015625 C11.76133624 65.446101 8.56146395 64.64075127 4.49609375 62.09765625 C-3.65160814 53.57960427 -3.66259857 44.34163525 -3.63671875 33.1640625 C-3.63767548 32.24551987 -3.6386322 31.32697723 -3.63961792 30.38059998 C-3.64029423 28.45531139 -3.63847855 26.53002045 -3.63427734 24.60473633 C-3.62887795 21.64464295 -3.6342629 18.68469835 -3.640625 15.72460938 C-3.63996497 13.85026008 -3.63868535 11.97591088 -3.63671875 10.1015625 C-3.63874298 9.21312149 -3.64076721 8.32468048 -3.64285278 7.40931702 C-3.61474029 0.14098051 -3.61474029 0.14098051 0 0 Z " fill="#3E3E3E" transform="translate(364.50390625,113.90234375)"/>
<path d="M0 0 C3.96 0 7.92 0 12 0 C14.78819817 6.13888033 17.32652053 12.30900948 19.671875 18.62890625 C19.99915588 19.50401352 20.32643677 20.37912079 20.66363525 21.28074646 C21.69503048 24.04036594 22.72257973 26.8013985 23.75 29.5625 C24.45417185 31.44866302 25.15859662 33.33473163 25.86328125 35.22070312 C27.57844371 39.81271701 29.29016163 44.40600117 31 49 C35.10936257 39.0913004 38.64432488 28.97453243 42.25 18.875 C42.90608021 17.0416059 43.56232877 15.20827203 44.21875 13.375 C45.81444327 8.91735929 47.40785109 4.45890783 49 0 C52.96 0 56.92 0 61 0 C58.88808411 7.30377856 56.4608067 14.41586085 53.796875 21.53515625 C53.3959967 22.61268661 52.99511841 23.69021698 52.58209229 24.80039978 C51.7364608 27.07088277 50.88924636 29.34077676 50.04052734 31.61010742 C48.76334369 35.02680322 47.49263413 38.44585467 46.22265625 41.86523438 C42.60973616 51.56719992 38.97622603 61.25912131 35.0703125 70.84765625 C34.79805847 71.52216324 34.52580444 72.19667023 34.24530029 72.89161682 C31.87901968 78.60637526 29.55081934 83.12862224 23.9765625 86.06640625 C18.31821668 88.28010997 13.0145029 88.25413393 7 88 C7 84.7 7 81.4 7 78 C8.5675 77.7525 10.135 77.505 11.75 77.25 C16.01343923 76.38408286 18.43030247 75.70036444 21 72 C23.8749297 67.43976668 24.16410901 65.18677866 23 60 C22.31351288 57.98911625 21.56759858 55.997899 20.77514648 54.02636719 C20.31474472 52.87207214 19.85434296 51.7177771 19.37998962 50.52850342 C18.87705 49.2846169 18.37408409 48.04074101 17.87109375 46.796875 C17.35623555 45.51011595 16.84200878 44.22310409 16.3283844 42.93585205 C14.98043412 39.56119503 13.62593161 36.18921223 12.26940918 32.81799316 C10.09343037 27.40885787 7.92469781 21.99683708 5.76124763 16.58267975 C5.00431854 14.69241461 4.24288984 12.80400636 3.48106384 10.91571045 C3.02381424 9.77402405 2.56656464 8.63233765 2.09545898 7.45605469 C1.68988266 6.44822937 1.28430634 5.44040405 0.86643982 4.40203857 C0 2 0 2 0 0 Z " fill="#3D3D3D" transform="translate(653,114)"/>
<path d="M0 0 C0 3.63 0 7.26 0 11 C-0.80824219 11.17015625 -1.61648438 11.3403125 -2.44921875 11.515625 C-10.42674494 13.29762287 -10.42674494 13.29762287 -17 18 C-17.66 18 -18.32 18 -19 18 C-19.01030746 18.58659897 -19.02061493 19.17319794 -19.03123474 19.77757263 C-19.13907194 25.8603787 -19.25368756 31.94302974 -19.37231445 38.02563477 C-19.41573665 40.29838836 -19.45740616 42.57117613 -19.49731445 44.84399414 C-19.55484119 48.10313232 -19.61858552 51.36209731 -19.68359375 54.62109375 C-19.70866249 56.15545326 -19.70866249 56.15545326 -19.73423767 57.72080994 C-19.75418289 58.66170975 -19.77412811 59.60260956 -19.79467773 60.57202148 C-19.81022202 61.40475082 -19.8257663 62.23748016 -19.84178162 63.09544373 C-20 65 -20 65 -21 66 C-24.63 66 -28.26 66 -32 66 C-32 44.55 -32 23.1 -32 1 C-28.37 1 -24.74 1 -21 1 C-20.67 3.64 -20.34 6.28 -20 9 C-19.53851562 8.51789063 -19.07703125 8.03578125 -18.6015625 7.5390625 C-12.99378256 2.10860367 -7.83511051 0 0 0 Z " fill="#3E3E3E" transform="translate(830,113)"/>
<path d="M0 0 C2.23046875 -0.34375 2.23046875 -0.34375 5 0 C7.23828125 2.40625 7.23828125 2.40625 9.3125 5.5 C10.00988281 6.5209375 10.70726563 7.541875 11.42578125 8.59375 C11.94527344 9.3878125 12.46476562 10.181875 13 11 C13.33 7.37 13.66 3.74 14 0 C15.65 0 17.3 0 19 0 C20 1 20 1 20.11352539 3.13305664 C20.10828857 4.04949951 20.10305176 4.96594238 20.09765625 5.91015625 C20.09443359 6.89951172 20.09121094 7.88886719 20.08789062 8.90820312 C20.07951172 9.94912109 20.07113281 10.99003906 20.0625 12.0625 C20.05798828 13.10728516 20.05347656 14.15207031 20.04882812 15.22851562 C20.03699913 17.8190666 20.02051689 20.40950559 20 23 C18 24 18 24 15.25 23.625 C10.52619614 21.26309807 8.59741578 17.4763974 6 13 C5.67 16.3 5.34 19.6 5 23 C3.02 23 1.04 23 -1 23 C-1.0272367 20.47909222 -1.04695207 17.95848543 -1.0625 15.4375 C-1.07087891 14.73302734 -1.07925781 14.02855469 -1.08789062 13.30273438 C-1.10882603 8.75975202 -0.74800682 4.48215108 0 0 Z " fill="#020202" transform="translate(74,163)"/>
<path d="M0 0 C13.00552486 -0.60773481 13.00552486 -0.60773481 17.375 2.0625 C19.40553614 5.73308456 19.60190112 7.86192982 19 12 C17.5 14.4375 17.5 14.4375 16 16 C16.495 16.78375 16.99 17.5675 17.5 18.375 C19 21 19 21 19 23 C16.69 23 14.38 23 12 23 C11.34 21.02 10.68 19.04 10 17 C9.01 17 8.02 17 7 17 C6.67 18.98 6.34 20.96 6 23 C4.02 23 2.04 23 0 23 C0 15.41 0 7.82 0 0 Z M6 6 C6 7.65 6 9.3 6 11 C7.98 11 9.96 11 12 11 C12.59070014 9.05396726 12.59070014 9.05396726 13 7 C11.87465895 5.64381501 11.87465895 5.64381501 8.9375 5.9375 C7.968125 5.958125 6.99875 5.97875 6 6 Z " fill="#030303" transform="translate(149,163)"/>
<path d="M0 0 C0 0.66 0 1.32 0 2 C-0.92941406 2.30292969 -1.85882813 2.60585938 -2.81640625 2.91796875 C-14.77783174 6.61266688 -14.77783174 6.61266688 -23.1875 15.375 C-24.32347799 19.00843747 -24.32347799 19.00843747 -22.875 22.5 C-16.22930696 31.97274976 -3.6372599 35.23100916 6.6796875 39.0234375 C33.41154567 48.86391642 33.41154567 48.86391642 40 59 C41.25 62.3125 41.25 62.3125 42 65 C41.34 65 40.68 65 40 65 C39.443125 64.13375 38.88625 63.2675 38.3125 62.375 C30.67983037 50.6514391 15.87204085 46.64198147 3.375 42 C-20.18018511 33.22972233 -20.18018511 33.22972233 -27 23 C-27.69316436 18.69593293 -27.59957482 15.09922051 -25.5 11.25 C-18.68495361 5.11645825 -9.36442909 0 0 0 Z " fill="#040405" transform="translate(91,43)"/>
<path d="M0 0 C3 1.5 3 1.5 5 3 C4.34 4.32 3.68 5.64 3 7 C0.03 6.67 -2.94 6.34 -6 6 C-3.98452539 8.2630684 -3.98452539 8.2630684 -0.5 9.5 C3 11 3 11 5 13 C5.56732724 19.24059959 5.56732724 19.24059959 3.75390625 21.66796875 C0.57089587 24.08535525 -3.10222642 24.11624939 -7 24 C-10 22.8125 -10 22.8125 -12 21 C-12.8125 18.8125 -12.8125 18.8125 -13 17 C-11.34385343 16.61781233 -9.67542976 16.28604898 -8 16 C-7.67 16.33 -7.34 16.66 -7 17 C-5.33382885 17.04063832 -3.66611905 17.042721 -2 17 C-1.67 16.34 -1.34 15.68 -1 15 C-1.61488281 14.90203125 -2.22976562 14.8040625 -2.86328125 14.703125 C-9.40052895 13.49368205 -9.40052895 13.49368205 -12.125 11.25 C-13.35942831 8.07575577 -13.02815571 6.22155455 -12 3 C-8.85017881 -0.77978542 -4.59628326 -0.70992098 0 0 Z " fill="#030303" transform="translate(184,163)"/>
<path d="M0 0 C5.28 0 10.56 0 16 0 C16 1.98 16 3.96 16 6 C12.7 6 9.4 6 6 6 C6 6.99 6 7.98 6 9 C8.64 9 11.28 9 14 9 C14.33 10.65 14.66 12.3 15 14 C12.03 14 9.06 14 6 14 C6 15.32 6 16.64 6 18 C9.3 18 12.6 18 16 18 C16 19.65 16 21.3 16 23 C10.72 23 5.44 23 0 23 C0 15.41 0 7.82 0 0 Z " fill="#040404" transform="translate(130,163)"/>
<path d="M0 0 C5.28 0 10.56 0 16 0 C16 1.98 16 3.96 16 6 C12.7 6 9.4 6 6 6 C6 6.66 6 7.32 6 8 C8.64 8.33 11.28 8.66 14 9 C14 10.65 14 12.3 14 14 C11.36 14.33 8.72 14.66 6 15 C5.67 15.99 5.34 16.98 5 18 C8.63 18 12.26 18 16 18 C16 19.65 16 21.3 16 23 C10.72 23.33 5.44 23.66 0 24 C-0.72823785 15.74663774 -1.11894161 8.20557183 0 0 Z " fill="#040404" transform="translate(193,163)"/>
<path d="M0 0 C1.65 0 3.3 0 5 0 C5.06058594 0.97582031 5.12117188 1.95164063 5.18359375 2.95703125 C5.26738281 4.22933594 5.35117187 5.50164062 5.4375 6.8125 C5.51871094 8.07707031 5.59992187 9.34164062 5.68359375 10.64453125 C5.87184547 13.99181893 5.87184547 13.99181893 7 17 C8.65 16.67 10.3 16.34 12 16 C12.06058594 14.92878906 12.12117188 13.85757813 12.18359375 12.75390625 C12.26798537 11.35675609 12.35263406 9.95962143 12.4375 8.5625 C12.49647461 7.50192383 12.49647461 7.50192383 12.55664062 6.41992188 C12.88671875 1.11328125 12.88671875 1.11328125 14 0 C15.66617115 -0.04063832 17.33388095 -0.042721 19 0 C19.10829314 2.89684158 19.18743954 5.78961019 19.25 8.6875 C19.30027344 9.91243164 19.30027344 9.91243164 19.3515625 11.16210938 C19.41772465 15.24762224 19.33531169 17.44018157 17.19140625 21.01953125 C14.12226415 23.79324791 12.10713547 24 8 24 C5.13174554 23.14804323 2.15496063 22.15496063 0 20 C-0.08669432 18.5112814 -0.10703494 17.018555 -0.09765625 15.52734375 C-0.09443359 14.62822266 -0.09121094 13.72910156 -0.08789062 12.80273438 C-0.07951172 11.85720703 -0.07113281 10.91167969 -0.0625 9.9375 C-0.05798828 8.98810547 -0.05347656 8.03871094 -0.04882812 7.06054688 C-0.0370011 4.70696935 -0.02052025 2.35351523 0 0 Z " fill="#020202" transform="translate(51,163)"/>
<path d="M0 0 C1.98 0 3.96 0 6 0 C7.98 4.29 9.96 8.58 12 13 C13.65 8.71 15.3 4.42 17 0 C18.98 0 20.96 0 23 0 C22.38174263 4.97697179 20.91038555 9.16327242 19 13.75 C18.59007812 14.75740234 18.59007812 14.75740234 18.171875 15.78515625 C17.17493567 18.22374805 16.17861835 20.6427633 15 23 C12.69 23 10.38 23 8 23 C6.66128359 19.54372619 5.32994608 16.08465703 4 12.625 C3.6184375 11.64015625 3.236875 10.6553125 2.84375 9.640625 C2.30234375 8.22910156 2.30234375 8.22910156 1.75 6.7890625 C1.41484375 5.91975098 1.0796875 5.05043945 0.734375 4.15478516 C0 2 0 2 0 0 Z " fill="#030303" transform="translate(105,163)"/>
<path d="M0 0 C5.66888747 1.31834592 7.85669225 3.28503838 11 8 C11.39226281 10.91658935 11.39084828 12.40069931 9.76953125 14.88671875 C2.16212789 21.88674459 -7.13212896 25.6225622 -16.45605469 29.84667969 C-30.74545486 36.32490679 -39.96037686 42.10652627 -48 56 C-49 53 -49 53 -48.1796875 50.6953125 C-45.64022228 45.69241394 -43.36415104 41.65370785 -39 38 C-38.22462891 37.31550781 -38.22462891 37.31550781 -37.43359375 36.6171875 C-30.08170646 30.55148351 -20.95406353 27.01419114 -12.19921875 23.43359375 C-5.03565949 20.48660857 1.45901276 17.54098724 7 12 C7.67154684 9.71658257 7.67154684 9.71658257 7 7 C5.29185402 5.21925781 3.48562924 3.73893679 1.53125 2.234375 C1.0259375 1.82703125 0.520625 1.4196875 0 1 C0 0.67 0 0.34 0 0 Z " fill="#0A0909" transform="translate(182,64)"/>
<path d="M0 0 C2.8125 -0.3125 2.8125 -0.3125 6 0 C7.875 2.5 7.875 2.5 9 5 C9.66 3.35 10.32 1.7 11 0 C12.32 0 13.64 0 15 0 C15 5.28 15 10.56 15 16 C13.35 16 11.7 16 10 16 C8.1875 14 8.1875 14 7 12 C6.67 13.32 6.34 14.64 6 16 C4.35 16 2.7 16 1 16 C0.14701624 12.32612505 -0.10789471 8.9552607 -0.0625 5.1875 C-0.05347656 4.21167969 -0.04445312 3.23585937 -0.03515625 2.23046875 C-0.02355469 1.49441406 -0.01195312 0.75835937 0 0 Z " fill="#040404" transform="translate(173,194)"/>
<path d="M0 0 C3.40320742 1.01176437 4.75725331 1.64843582 6.8125 4.625 C7.204375 5.40875 7.59625 6.1925 8 7 C8.33 5.02 8.66 3.04 9 1 C10.65 1 12.3 1 14 1 C14 6.28 14 11.56 14 17 C12.35 17 10.7 17 9 17 C6.6875 14.5 6.6875 14.5 5 12 C4.67 13.65 4.34 15.3 4 17 C2.35 17 0.7 17 -1 17 C-1.02691685 14.54159395 -1.04679802 12.08348118 -1.0625 9.625 C-1.07087891 8.92632812 -1.07925781 8.22765625 -1.08789062 7.5078125 C-1.11328125 2.2265625 -1.11328125 2.2265625 0 0 Z " fill="#040404" transform="translate(150,193)"/>
<path d="M0 0 C3.1875 0.3125 3.1875 0.3125 5 2.18359375 C7.64163201 4.75446776 9.89584331 5.51531101 13.375 6.6875 C23.02655572 10.22965345 30.04602046 14.72378256 35.5625 23.5 C36.1875 25.3125 36.1875 25.3125 35.1875 28.3125 C34.79820313 27.74402344 34.40890625 27.17554687 34.0078125 26.58984375 C27.34264591 17.39068525 18.51204742 10.6288847 7.1875 8.3125 C4.45451887 8.43396583 1.95077378 8.75437462 -0.71875 9.34375 C-1.4096875 9.3334375 -2.100625 9.323125 -2.8125 9.3125 C-3.85813774 8.01464813 -4.85846072 6.67909681 -5.8125 5.3125 C-8.13525177 4.91202556 -10.46989357 4.5727896 -12.8125 4.3125 C-13.1425 3.6525 -13.4725 2.9925 -13.8125 2.3125 C-13.10222656 2.25191406 -12.39195313 2.19132812 -11.66015625 2.12890625 C-10.28150391 2.00322266 -10.28150391 2.00322266 -8.875 1.875 C-7.95847656 1.79378906 -7.04195313 1.71257812 -6.09765625 1.62890625 C-3.3251217 1.24501685 -2.92978826 0.32553203 0 0 Z " fill="#040404" transform="translate(91.8125,89.6875)"/>
<path d="M0 0 C0.144375 0.804375 0.28875 1.60875 0.4375 2.4375 C0.74135249 4.92103706 0.74135249 4.92103706 2 6 C2.26077823 8.99894961 2.43731576 11.18003295 1 13.875 C-2.23573106 15.69509872 -5.44106536 15.60931177 -9 15 C-12 13.4375 -12 13.4375 -14 11 C-14.69407231 6.758447 -14.48845367 4.77478859 -12.1875 1.125 C-7.96348063 -2.9783331 -5.22451349 -1.67578735 0 0 Z M-7 3 C-7.66 3.66 -8.32 4.32 -9 5 C-8.67958603 7.60280568 -8.67958603 7.60280568 -8 10 C-6.02 10.495 -6.02 10.495 -4 11 C-3.67 10.34 -3.34 9.68 -3 9 C-3.99 9 -4.98 9 -6 9 C-6 7.68 -6 6.36 -6 5 C-4.68 4.67 -3.36 4.34 -2 4 C-4.39719432 3.32041397 -4.39719432 3.32041397 -7 3 Z " fill="#040404" transform="translate(204,195)"/>
<path d="M0 0 C8.30078125 -0.390625 8.30078125 -0.390625 11 0 C12.87109375 1.8515625 12.87109375 1.8515625 14 4 C13.74303831 6.69809776 13.20824654 8.58350693 12 11 C12.89363605 13.60931266 12.89363605 13.60931266 14 16 C12.35 16 10.7 16 9 16 C8.34 14.35 7.68 12.7 7 11 C6.34 11 5.68 11 5 11 C5 12.65 5 14.3 5 16 C3.35 16 1.7 16 0 16 C0 10.72 0 5.44 0 0 Z M5 4 C5 4.99 5 5.98 5 7 C6.32 6.67 7.64 6.34 9 6 C8.67 5.34 8.34 4.68 8 4 C7.01 4 6.02 4 5 4 Z " fill="#040404" transform="translate(133,194)"/>
<path d="M0 0 C2.375 1.5 2.375 1.5 4 4 C4.55001794 7.10367265 4.5640276 9.89784817 4 13 C2.22577578 15.4395583 1.02218795 15.8366175 -1.90625 16.3046875 C-5.44885838 16.5294052 -7.44863271 16.34460456 -10.5 14.4375 C-12.55402253 11.09971339 -12.41314312 8.85600245 -12 5 C-11.14348107 2.35906662 -10.46128762 1.34596572 -8.25 -0.3125 C-5.11082448 -1.27169252 -3.13830576 -0.91533918 0 0 Z M-7 5 C-7 6.98 -7 8.96 -7 11 C-4.60280568 11.67958603 -4.60280568 11.67958603 -2 12 C-1.34 11.34 -0.68 10.68 0 10 C-0.32041397 7.39719432 -0.32041397 7.39719432 -1 5 C-4.04913228 3.98888907 -4.04913228 3.98888907 -7 5 Z " fill="#040404" transform="translate(64,194)"/>
<path d="M0 0 C0 0.66 0 1.32 0 2 C-0.93199219 2.27972656 -1.86398438 2.55945313 -2.82421875 2.84765625 C-14.92313873 6.60221814 -25.52219273 11.36466449 -35 20 C-35.66 20 -36.32 20 -37 20 C-37.268125 20.56203125 -37.53625 21.1240625 -37.8125 21.703125 C-39.0803979 24.15550646 -40.48972342 26.43927683 -42 28.75 C-42.515625 29.54921875 -43.03125 30.3484375 -43.5625 31.171875 C-44.2740625 32.07679688 -44.2740625 32.07679688 -45 33 C-45.66 33 -46.32 33 -47 33 C-45.12570239 23.51954117 -38.06933687 15.51871618 -30.34375 10.15625 C-21.45164029 4.63378187 -10.6543574 0 0 0 Z " fill="#080708" transform="translate(181,106)"/>
<path d="M0 0 C0.33 0 0.66 0 1 0 C1 19.47 1 38.94 1 59 C3.97 59 6.94 59 10 59 C9.98952637 57.86457764 9.97905273 56.72915527 9.96826172 55.55932617 C9.93207945 51.34939727 9.90910598 47.13948213 9.89013672 42.92944336 C9.88007509 41.10682871 9.8664244 39.28423021 9.84912109 37.46166992 C9.82487979 34.84289565 9.81351862 32.22433469 9.8046875 29.60546875 C9.79436493 28.78974899 9.78404236 27.97402924 9.77340698 27.1335907 C9.7726314 23.22869244 9.78349339 21.32475992 12 18 C12.02464574 23.96313166 12.042834 29.92623395 12.05493164 35.8894043 C12.05997278 37.91968298 12.06680557 39.94995802 12.07543945 41.98022461 C12.08751467 44.89177347 12.09323034 47.8032745 12.09765625 50.71484375 C12.10281754 51.6283812 12.10797882 52.54191864 12.11329651 53.48313904 C12.11349168 55.65575427 12.06211805 57.82827296 12 60 C11.505 60.495 11.505 60.495 11 61 C7.37 61 3.74 61 0 61 C0 40.87 0 20.74 0 0 Z " fill="#333333" transform="translate(798,118)"/>
<path d="M0 0 C1.65 0 3.3 0 5 0 C5.81604999 1.9151579 6.62770632 3.83218834 7.4375 5.75 C8.11619141 7.35101563 8.11619141 7.35101563 8.80859375 8.984375 C9.73979553 11.3413841 10.4784072 13.52992835 11 16 C8.625 16.125 8.625 16.125 6 16 C5.34 15.34 4.68 14.68 4 14 C1.93125966 13.3574765 1.93125966 13.3574765 0 13 C-0.33 13.99 -0.66 14.98 -1 16 C-2.65 16 -4.3 16 -6 16 C-4.25192871 10.53262809 -2.34205919 5.24175152 0 0 Z " fill="#040404" transform="translate(121,194)"/>
<path d="M0 0 C0.91007812 0.10183594 1.82015625 0.20367187 2.7578125 0.30859375 C3.45648438 0.39238281 4.15515625 0.47617188 4.875 0.5625 C4.875 1.8825 4.875 3.2025 4.875 4.5625 C2.565 4.5625 0.255 4.5625 -2.125 4.5625 C-2.125 5.2225 -2.125 5.8825 -2.125 6.5625 C-0.145 6.5625 1.835 6.5625 3.875 6.5625 C3.875 7.8825 3.875 9.2025 3.875 10.5625 C1.895 10.5625 -0.085 10.5625 -2.125 10.5625 C-2.125 11.2225 -2.125 11.8825 -2.125 12.5625 C0.185 12.5625 2.495 12.5625 4.875 12.5625 C4.875 13.8825 4.875 15.2025 4.875 16.5625 C3.06257948 16.58937279 1.25004767 16.60883715 -0.5625 16.625 C-1.57183594 16.63660156 -2.58117187 16.64820313 -3.62109375 16.66015625 C-6.125 16.5625 -6.125 16.5625 -7.125 15.5625 C-7.19813567 13.03200598 -7.21747527 10.52945163 -7.1875 8 C-7.18298828 7.28908203 -7.17847656 6.57816406 -7.17382812 5.84570312 C-7.16200864 4.08459987 -7.14407263 2.32353964 -7.125 0.5625 C-4.50184968 -0.74907516 -2.89466564 -0.33399988 0 0 Z " fill="#050505" transform="translate(109.125,193.4375)"/>
<path d="M0 0 C0.66 0 1.32 0 2 0 C2.33 1.98 2.66 3.96 3 6 C5.31 6 7.62 6 10 6 C10 6.66 10 7.32 10 8 C8 9.625 8 9.625 6 11 C6.33 12.98 6.66 14.96 7 17 C4 17 4 17 1.5625 16.375 C-1.43812197 15.93588459 -2.41846922 16.56398925 -5 18 C-5.07347656 17.04287109 -5.07347656 17.04287109 -5.1484375 16.06640625 C-5.22320312 15.24011719 -5.29796875 14.41382813 -5.375 13.5625 C-5.44460937 12.73878906 -5.51421875 11.91507813 -5.5859375 11.06640625 C-5.79089844 10.04353516 -5.79089844 10.04353516 -6 9 C-6.66 8.67 -7.32 8.34 -8 8 C-8 7.34 -8 6.68 -8 6 C-4.535 5.505 -4.535 5.505 -1 5 C-0.67 3.35 -0.34 1.7 0 0 Z " fill="#040404" transform="translate(98,9)"/>
<path d="M0 0 C0.66 0.33 1.32 0.66 2 1 C2.0231271 9.19690561 2.04091696 17.39379768 2.05181217 25.59072781 C2.0570402 29.39651577 2.06413638 33.20228148 2.07543945 37.00805664 C2.0862712 40.67792544 2.09227744 44.34777278 2.09487724 48.01765633 C2.09673097 49.42074992 2.1003506 50.82384229 2.10573006 52.2269268 C2.11294419 54.1856968 2.11340809 56.1444882 2.11352539 58.10327148 C2.115746 59.22023911 2.11796661 60.33720673 2.12025452 61.48802185 C2 64 2 64 1 65 C-0.85287502 65.07226502 -2.70833878 65.0838122 -4.5625 65.0625 C-6.08037109 65.04896484 -6.08037109 65.04896484 -7.62890625 65.03515625 C-8.41136719 65.02355469 -9.19382812 65.01195312 -10 65 C-10 64.34 -10 63.68 -10 63 C-6.7 63 -3.4 63 0 63 C0 42.21 0 21.42 0 0 Z " fill="#2E2E2E" transform="translate(415,114)"/>
<path d="M0 0 C2.8125 1.4375 2.8125 1.4375 4.25 3.25 C4.97009654 6.05037543 4.72489394 7.70031819 3.8125 10.4375 C2.625 12.25 2.625 12.25 0.8125 13.4375 C-2.125 13.9375 -2.125 13.9375 -5.1875 13.4375 C-7.625 11.3125 -7.625 11.3125 -9.1875 8.4375 C-9.25 5.3125 -9.25 5.3125 -8.1875 2.4375 C-5.21898534 -0.27657054 -3.98416258 -0.70308751 0 0 Z " fill="#030303" transform="translate(171.1875,67.5625)"/>
<path d="M0 0 C0.99 0.33 1.98 0.66 3 1 C3 2.32 3 3.64 3 5 C5.31 5.33 7.62 5.66 10 6 C9.505 6.515625 9.01 7.03125 8.5 7.5625 C6.50350759 10.80680017 6.78435615 13.26217334 7 17 C6.13375 16.4740625 6.13375 16.4740625 5.25 15.9375 C2.58613224 14.8275551 1.66571663 15.05410055 -1 16 C-1.99 16.33 -2.98 16.66 -4 17 C-3.9071875 15.329375 -3.9071875 15.329375 -3.8125 13.625 C-3.874375 12.42875 -3.93625 11.2325 -4 10 C-4.99 9.34 -5.98 8.68 -7 8 C-7 7.01 -7 6.02 -7 5 C-5.02 5 -3.04 5 -1 5 C-0.67 3.35 -0.34 1.7 0 0 Z " fill="#030303" transform="translate(187,41)"/>
<path d="M0 0 C4.16138263 -0.08159574 7.9472484 0.01751476 12 1 C12 2.32 12 3.64 12 5 C9.69 5 7.38 5 5 5 C5 5.66 5 6.32 5 7 C6.98 7 8.96 7 11 7 C11 8.65 11 10.3 11 12 C9.35 12 7.7 12 6 12 C6 13.65 6 15.3 6 17 C4.35 17 2.7 17 1 17 C0.25983299 11.29014022 -0.10469338 5.75813575 0 0 Z " fill="#030303" transform="translate(70,193)"/>
<path d="M0 0 C1.98 0 3.96 0 6 0 C6 7.59 6 15.18 6 23 C4.02 23 2.04 23 0 23 C0 15.41 0 7.82 0 0 Z " fill="#030303" transform="translate(97,163)"/>
<path d="M0 0 C11.92066343 1.22588383 22.14648237 4.92707844 30.37890625 13.9296875 C34.84864379 19.638027 36.48715633 24.82018868 37 32 C34.83051415 29.83051415 33.97553948 28.0190751 32.6875 25.25 C27.17002077 14.11908537 18.4006606 8.30369765 7 4 C4.6764568 3.24688103 2.3684087 2.60470009 0 2 C0 1.34 0 0.68 0 0 Z " fill="#090808" transform="translate(93,105)"/>
<path d="M0 0 C13.68462855 0.8285057 25.94172393 5.45802328 36 15 C37.92120906 17.55118691 39.53447295 20.16468385 41 23 C38.01422497 21.65705315 35.96310949 20.1496314 33.625 17.875 C23.85093109 9.20299801 12.37547309 4.60517984 0 1 C0 0.67 0 0.34 0 0 Z " fill="#090808" transform="translate(83,110)"/>
<path d="M0 0 C1.32 0 2.64 0 4 0 C4 3.96 4 7.92 4 12 C6.31 12 8.62 12 11 12 C11 13.32 11 14.64 11 16 C7.04 16 3.08 16 -1 16 C-1.02685095 13.52076199 -1.04676547 11.0418116 -1.0625 8.5625 C-1.07506836 7.50192383 -1.07506836 7.50192383 -1.08789062 6.41992188 C-1.09653588 4.61306441 -1.05220011 2.80612397 -1 1 C-0.67 0.67 -0.34 0.34 0 0 Z " fill="#040404" transform="translate(90,194)"/>
<path d="M0 0 C0.33 0 0.66 0 1 0 C1.02527062 6.39037231 1.04283317 12.78073183 1.05493164 19.17114258 C1.05997308 21.34692873 1.06680607 23.52271147 1.07543945 25.69848633 C1.08751338 28.81853067 1.09323005 31.93853038 1.09765625 35.05859375 C1.10281754 36.03775253 1.10797882 37.01691132 1.11329651 38.02574158 C1.11337204 38.92659988 1.11344757 39.82745819 1.11352539 40.75561523 C1.115746 41.55281479 1.11796661 42.35001434 1.12025452 43.17137146 C1 45 1 45 0 46 C-1.85287502 46.07226502 -3.70833878 46.0838122 -5.5625 46.0625 C-6.57441406 46.05347656 -7.58632813 46.04445312 -8.62890625 46.03515625 C-9.41136719 46.02355469 -10.19382812 46.01195312 -11 46 C-10.67 45.01 -10.34 44.02 -10 43 C-7.03 43.33 -4.06 43.66 -1 44 C-1.00523682 42.88028809 -1.01047363 41.76057617 -1.01586914 40.60693359 C-1.0340266 36.43604335 -1.0454712 32.26515657 -1.05493164 28.09423828 C-1.05994733 26.29214896 -1.06676146 24.49006369 -1.07543945 22.68798828 C-1.08762636 20.09146118 -1.09325606 17.49498808 -1.09765625 14.8984375 C-1.10281754 14.0982016 -1.10797882 13.2979657 -1.11329651 12.47348022 C-1.11372102 8.20008833 -0.85075701 4.20962814 0 0 Z " fill="#2E2E2E" transform="translate(489,133)"/>
<path d="M0 0 C0.66 0 1.32 0 2 0 C2.33 1.98 2.66 3.96 3 6 C4.98 6.66 6.96 7.32 9 8 C7.625 9.5 7.625 9.5 6 11 C5.34 11 4.68 11 4 11 C3.34 12.98 2.68 14.96 2 17 C1.34 17 0.68 17 0 17 C-0.4125 16.05125 -0.825 15.1025 -1.25 14.125 C-3.0040131 10.99283376 -3.70851757 10.13499394 -7 9 C-7 8.34 -7 7.68 -7 7 C-5.824375 6.6596875 -5.824375 6.6596875 -4.625 6.3125 C-1.78125 5.21875 -1.78125 5.21875 -0.6875 2.375 C-0.460625 1.59125 -0.23375 0.8075 0 0 Z " fill="#050505" transform="translate(156,3)"/>
<path d="M0 0 C2.0625 0.4375 2.0625 0.4375 4 1 C3.34 1.66 2.68 2.32 2 3 C1.77885483 5.62515861 1.67476619 8.15322243 1.65625 10.78125 C1.6416272 11.55053833 1.62700439 12.31982666 1.61193848 13.11242676 C1.56535894 15.57489848 1.53119787 18.03728816 1.5 20.5 C1.4589568 23.73988685 1.40532816 26.9791957 1.34375 30.21875 C1.3384729 30.9677356 1.3331958 31.71672119 1.32775879 32.48840332 C1.22560362 37.77439638 1.22560362 37.77439638 -1 40 C-1.02464775 34.46411467 -1.04283496 28.928261 -1.05493164 23.39233398 C-1.05997244 21.5075627 -1.06680498 19.62279535 -1.07543945 17.73803711 C-1.08751617 15.03498364 -1.09323068 12.33198169 -1.09765625 9.62890625 C-1.10281754 8.78099014 -1.10797882 7.93307404 -1.11329651 7.0594635 C-1.11349195 5.03928932 -1.06206211 3.01922066 -1 1 C-0.67 0.67 -0.34 0.34 0 0 Z " fill="#2F2F2F" transform="translate(362,114)"/>
<path d="M0 0 C1.65 0 3.3 0 5 0 C5 5.28 5 10.56 5 16 C3.35 16 1.7 16 0 16 C0 10.72 0 5.44 0 0 Z " fill="#060606" transform="translate(166,194)"/>
<path d="M0 0 C2.625 0.25 2.625 0.25 4.5 1.375 C6.17790631 4.17151052 5.37375648 6.18690532 4.625 9.25 C2.375 9.9375 2.375 9.9375 -0.375 10.25 C-2.6875 8.8125 -2.6875 8.8125 -4.375 7.25 C-3.34769625 0.35238908 -3.34769625 0.35238908 0 0 Z " fill="#030303" transform="translate(123.375,8.75)"/>
<path d="M0 0 C2.875 -0.125 2.875 -0.125 6 0 C8 2 8 2 8.1875 5.0625 C8 8 8 8 7 9 C1.58823529 9.47058824 1.58823529 9.47058824 -0.875 7.5 C-1.24625 7.005 -1.6175 6.51 -2 6 C-1.34 4.02 -0.68 2.04 0 0 Z " fill="#040303" transform="translate(76,29)"/>
<path d="M0 0 C0.33 0 0.66 0 1 0 C1.33 10.89 1.66 21.78 2 33 C5.3 33 8.6 33 12 33 C12 33.66 12 34.32 12 35 C10.18757948 35.02687279 8.37504767 35.04633715 6.5625 35.0625 C5.55316406 35.07410156 4.54382813 35.08570313 3.50390625 35.09765625 C1 35 1 35 0 34 C-0.08847743 31.47905924 -0.11527301 28.98569107 -0.09765625 26.46484375 C-0.0962413 25.71159317 -0.09482635 24.95834259 -0.09336853 24.18226624 C-0.08775376 21.7673044 -0.07519883 19.35243399 -0.0625 16.9375 C-0.0574869 15.30403779 -0.05292366 13.67057414 -0.04882812 12.03710938 C-0.03777954 8.02470415 -0.02050506 4.01236759 0 0 Z " fill="#2A2A2A" transform="translate(550,144)"/>
<path d="M0 0 C-0.78503906 0.54527344 -1.57007813 1.09054688 -2.37890625 1.65234375 C-9.07882747 6.46148966 -14.34579223 11.06785251 -19 18 C-19.66 17.67 -20.32 17.34 -21 17 C-16.73867732 8.83246485 -12.39737934 3.69868967 -4.125 -0.4375 C-2 -1 -2 -1 0 0 Z " fill="#0F0D0E" transform="translate(158,105)"/>
<path d="M0 0 C0 0.66 0 1.32 0 2 C-0.92941406 2.30292969 -1.85882813 2.60585938 -2.81640625 2.91796875 C-10.61927059 5.56231798 -17.06226696 8.06226696 -23 14 C-23.66 13.67 -24.32 13.34 -25 13 C-22.89784291 8.08802898 -19.67498047 6.31920001 -15 4 C-4.7605178 0 -4.7605178 0 0 0 Z " fill="#100E0F" transform="translate(91,43)"/>
<path d="M0 0 C0.433125 0.474375 0.86625 0.94875 1.3125 1.4375 C3.02309613 3.23686957 3.02309613 3.23686957 6 4 C6 4.66 6 5.32 6 6 C4.68 6.33 3.36 6.66 2 7 C1.67 8.32 1.34 9.64 1 11 C0.566875 10.360625 0.13375 9.72125 -0.3125 9.0625 C-1.91239177 6.73253997 -1.91239177 6.73253997 -5 6 C-5 5.34 -5 4.68 -5 4 C-4.360625 3.71125 -3.72125 3.4225 -3.0625 3.125 C-0.84793921 2.17176549 -0.84793921 2.17176549 0 0 Z " fill="#090909" transform="translate(137,88)"/>
<path d="M0 0 C5.18184386 2.45455762 9.01387491 6.58329522 11 12 C10.67 12.99 10.34 13.98 10 15 C9.55269531 14.40832031 9.10539062 13.81664063 8.64453125 13.20703125 C5.31190989 8.85117433 1.99878515 4.75643454 -2 1 C-1.34 0.67 -0.68 0.34 0 0 Z " fill="#0B0A0B" transform="translate(117,103)"/>
<path d="M0 0 C1.65 0 3.3 0 5 0 C5.66 1.65 6.32 3.3 7 5 C6.34 5.66 5.68 6.32 5 7 C2.375 6.625 2.375 6.625 0 6 C-1.125 2.25 -1.125 2.25 0 0 Z " fill="#050505" transform="translate(184,23)"/>
<path d="M0 0 C0.33 0 0.66 0 1 0 C1.042721 1.66611905 1.04063832 3.33382885 1 5 C0 6 0 6 -2.50390625 6.09765625 C-4.01791016 6.08025391 -4.01791016 6.08025391 -5.5625 6.0625 C-6.57441406 6.05347656 -7.58632813 6.04445312 -8.62890625 6.03515625 C-9.41136719 6.02355469 -10.19382812 6.01195312 -11 6 C-11 4.35 -11 2.7 -11 1 C-10.67 1.99 -10.34 2.98 -10 4 C-7.03 4 -4.06 4 -1 4 C-0.67 2.68 -0.34 1.36 0 0 Z " fill="#191919" transform="translate(644,173)"/>
<path d="M0 0 C1.32 0 2.64 0 4 0 C4.33 0.99 4.66 1.98 5 3 C4.67 3.66 4.34 4.32 4 5 C2.35 5 0.7 5 -1 5 C-0.67 3.35 -0.34 1.7 0 0 Z " fill="#070707" transform="translate(175,96)"/>
<path d="M0 0 C-4 4 -4 4 -5.9453125 4.1953125 C-7.96354167 4.13020833 -9.98177083 4.06510417 -12 4 C-8.59914501 0.59914501 -4.67235329 -1.5574511 0 0 Z " fill="#0F0F0F" transform="translate(176,87)"/>
<path d="M0 0 C0.33 0 0.66 0 1 0 C1.36294314 2.1026706 1.71506972 4.20721057 2.0625 6.3125 C2.25972656 7.48425781 2.45695312 8.65601563 2.66015625 9.86328125 C3 13 3 13 2 16 C0.24836544 12.22777911 -0.22490027 9.333361 -0.125 5.1875 C-0.10695313 4.21167969 -0.08890625 3.23585937 -0.0703125 2.23046875 C-0.04710937 1.49441406 -0.02390625 0.75835937 0 0 Z " fill="#343434" transform="translate(362,154)"/>
<path d="M0 0 C0 0.66 0 1.32 0 2 C-3.3 2.66 -6.6 3.32 -10 4 C-10.33 3.34 -10.66 2.68 -11 2 C-3.375 0 -3.375 0 0 0 Z " fill="#101010" transform="translate(181,106)"/>
</svg>
