<?xml version="1.0" encoding="UTF-8"?>
<svg version="1.1" xmlns="http://www.w3.org/2000/svg" width="891" height="215">
<path d="M0 0 C0.99 0.66 1.98 1.32 3 2 C5.94744827 1.79300808 8.77184106 1.48912431 11.6875 1.0625 C25.83615277 -0.98887882 25.83615277 -0.98887882 31.01953125 2.26953125 C32.35489256 4.62636415 32.11004536 6.03698822 31.6875 8.6875 C31.56761719 9.49574219 31.44773437 10.30398437 31.32421875 11.13671875 C31.21722656 11.75160156 31.11023438 12.36648437 31 13 C30.34 13 29.68 13 29 13 C28.79503906 13.56203125 28.59007812 14.1240625 28.37890625 14.703125 C26.50283916 17.82813194 23.80608727 19.60359216 20.9375 21.75 C16.82895937 24.86633494 16.82895937 24.86633494 14.12890625 29.1484375 C14.00193724 31.09529566 14 33.04900594 14 35 C12.11867877 40.37377394 9.27596943 44.23307455 5 48 C4.51273437 48.4434375 4.02546875 48.886875 3.5234375 49.34375 C-2.99247981 55.09112322 -8.81077573 55.5241461 -17.25 55.328125 C-23.52465079 54.77909306 -27.85440217 52.43039855 -33 49 C-35.94057073 48.97808293 -35.94057073 48.97808293 -39.1875 49.375 C-40.34894531 49.48070312 -41.51039062 49.58640625 -42.70703125 49.6953125 C-44.33705078 49.84613281 -44.33705078 49.84613281 -46 50 C-51.75977083 50.4336325 -56.00326386 49.957252 -61 47 C-62.31527964 44.05996316 -62.21484274 42.65856318 -61.22265625 39.6171875 C-58.44299142 33.66710623 -53.75859843 28.65059813 -47.8125 25.875 C-44.1273311 23.84923464 -43.22287532 21.49104765 -41.9597168 17.54736328 C-41.57837148 16.21209738 -41.2229811 14.86906326 -40.89770508 13.51904297 C-39.49022642 8.09147489 -37.48682119 6.06187273 -33 3 C-32.34 3 -31.68 3 -31 3 C-31 2.34 -31 1.68 -31 1 C-20.38176523 -3.68205628 -10.70550975 -5.06078643 0 0 Z M8 8 C8.45375 8.53625 8.9075 9.0725 9.375 9.625 C11.25799477 12.37706927 12.24041347 14.75449392 13 18 C12.01 19.485 12.01 19.485 11 21 C13.49361571 19.79618552 15.68143083 18.54571278 18 17 C18 16.34 18 15.68 18 15 C18.99 14.67 19.98 14.34 21 14 C23.28600028 11.29667695 23.28600028 11.29667695 22.6875 8.875 C22.15421514 7.01406147 22.15421514 7.01406147 21 6 C19.00009484 5.80010237 19.00009484 5.80010237 16.6875 5.8125 C15.90761719 5.79832031 15.12773437 5.78414062 14.32421875 5.76953125 C11.7967332 6.02015587 10.18281969 6.73626228 8 8 Z M-28 15 C-28.33 16.32 -28.66 17.64 -29 19 C-27.11683841 20.10836423 -27.11683841 20.10836423 -25 21 C-24.34 20.67 -23.68 20.34 -23 20 C-23.33 18.35 -23.66 16.7 -24 15 C-25.32 15 -26.64 15 -28 15 Z M6 23 C5.67 23.66 5.34 24.32 5 25 C5.99 24.67 6.98 24.34 8 24 C7.34 23.67 6.68 23.34 6 23 Z M-46.98046875 30.828125 C-48.07294922 32.02695312 -48.07294922 32.02695312 -49.1875 33.25 C-50.29158203 34.43335938 -50.29158203 34.43335938 -51.41796875 35.640625 C-53.23669798 37.83731482 -53.23669798 37.83731482 -52.86328125 40.234375 C-52.12928309 42.18831143 -52.12928309 42.18831143 -50 43 C-47.95944995 43.07065617 -45.91665743 43.08421976 -43.875 43.0625 C-42.77929688 43.05347656 -41.68359375 43.04445313 -40.5546875 43.03515625 C-39.71164063 43.02355469 -38.86859375 43.01195312 -38 43 C-38.27714844 42.40832031 -38.55429688 41.81664062 -38.83984375 41.20703125 C-42.43760984 33.35852373 -42.43760984 33.35852373 -43 29 C-45.20427153 28.77390663 -45.20427153 28.77390663 -46.98046875 30.828125 Z " fill="#FDFDFD" transform="translate(147,27)"/>
<path d="M0 0 C49.97515528 0 49.97515528 0 62.1015625 10.88671875 C71.41561978 20.97364461 74.36695807 33.19221793 74.21484375 46.6796875 C73.5071085 57.61741411 70.8926688 67.31392545 63.6875 75.6875 C62.800625 76.450625 61.91375 77.21375 61 78 C60.45988281 78.49242187 59.91976562 78.98484375 59.36328125 79.4921875 C43.549578 92.81945942 18.37375996 89 0 89 C0 59.63 0 30.26 0 0 Z M13 11 C13 33.11 13 55.22 13 78 C33.5985934 78.95403626 33.5985934 78.95403626 51.71875 70.4296875 C60.23971309 61.11510529 60.56535154 50.07615374 60.140625 38.03515625 C59.56378974 29.68706822 56.20761336 23.06505276 50.1875 17.3125 C38.53136932 8.85609147 27.79050509 11 13 11 Z " fill="#C2C2C2" transform="translate(272,90)"/>
<path d="M0 0 C1.75631976 1.74223163 2.08042058 3.03756422 2.4609375 5.44921875 C3.22277344 4.89492187 3.98460937 4.340625 4.76953125 3.76953125 C13.9430218 -2.66680045 20.58277956 -5.54040808 31.8125 -4.140625 C36.98333492 -2.98900837 40.88981928 -0.98966826 43.8046875 3.53515625 C47.51429126 11.29882699 47.6067759 19.09581103 47.55859375 27.5390625 C47.5571788 28.4835878 47.55576385 29.4281131 47.55430603 30.40126038 C47.5487411 33.39644638 47.53619517 36.39155562 47.5234375 39.38671875 C47.51841796 41.42643121 47.51385585 43.46614484 47.50976562 45.50585938 C47.49878317 50.48700841 47.4815429 55.4681006 47.4609375 60.44921875 C44.81635371 61.77151064 42.78332449 61.54599069 39.8359375 61.51171875 C38.33160156 61.49818359 38.33160156 61.49818359 36.796875 61.484375 C36.02601563 61.47277344 35.25515625 61.46117187 34.4609375 61.44921875 C34.45507126 60.88847153 34.44920502 60.3277243 34.44316101 59.74998474 C34.37903372 53.89313695 34.29456495 48.03682885 34.19848633 42.18041992 C34.16531198 39.99722425 34.1372569 37.81394436 34.11450195 35.63061523 C34.08081846 32.48515058 34.02849474 29.34045251 33.97265625 26.1953125 C33.96626633 25.22524765 33.9598764 24.2551828 33.95329285 23.25572205 C33.83131504 17.58376943 33.18583296 13.46144137 30.4609375 8.44921875 C26.97162907 6.08948689 22.51241792 6.18350321 18.4609375 6.88671875 C13.50243286 8.53582725 9.68986972 11.34201184 6.4609375 15.44921875 C5.41306481 18.99438418 5.51980212 22.30495066 5.6796875 25.9765625 C5.69100708 26.96547989 5.70232666 27.95439728 5.71398926 28.97328186 C5.75855871 32.11311601 5.85888227 35.24827984 5.9609375 38.38671875 C6.00108973 40.52272022 6.03758744 42.65879371 6.0703125 44.79492188 C6.15822719 50.01459792 6.29186116 55.23157472 6.4609375 60.44921875 C3.81635371 61.77151064 1.78332449 61.54599069 -1.1640625 61.51171875 C-2.16695313 61.50269531 -3.16984375 61.49367188 -4.203125 61.484375 C-4.97398437 61.47277344 -5.74484375 61.46117187 -6.5390625 61.44921875 C-6.54492874 60.90322021 -6.55079498 60.35722168 -6.55683899 59.79467773 C-6.62104574 54.08365208 -6.70553389 48.37317579 -6.80151367 42.66259766 C-6.83465532 40.53474191 -6.86272037 38.40680052 -6.88549805 36.27880859 C-6.91924222 33.21024267 -6.97156818 30.14245393 -7.02734375 27.07421875 C-7.03373367 26.13118896 -7.0401236 25.18815918 -7.04670715 24.21655273 C-7.17612442 18.33005885 -7.91388388 13.762215 -10.5390625 8.44921875 C-14.39883169 6.30813422 -18.24054145 6.14910271 -22.5390625 6.88671875 C-27.49884433 8.5346005 -31.29620039 11.35562996 -34.5390625 15.44921875 C-35.63012498 18.96900715 -35.59132864 22.27817585 -35.50390625 25.94140625 C-35.51241104 26.92795197 -35.52091583 27.91449768 -35.52967834 28.93093872 C-35.54914849 32.06325887 -35.5143654 35.19211602 -35.4765625 38.32421875 C-35.47584273 41.47680849 -35.48602186 44.62920646 -35.49842834 47.7817688 C-35.50203635 49.73935731 -35.49564591 51.69699375 -35.47850037 53.6545105 C-35.4696859 54.9719072 -35.4696859 54.9719072 -35.46069336 56.31591797 C-35.452108 57.09200409 -35.44352264 57.86809021 -35.43467712 58.66769409 C-35.5390625 60.44921875 -35.5390625 60.44921875 -36.5390625 61.44921875 C-40.1690625 61.44921875 -43.7990625 61.44921875 -47.5390625 61.44921875 C-47.5390625 39.99921875 -47.5390625 18.54921875 -47.5390625 -3.55078125 C-43.9090625 -3.55078125 -40.2790625 -3.55078125 -36.5390625 -3.55078125 C-35.8790625 -1.24078125 -35.2190625 1.06921875 -34.5390625 3.44921875 C-33.82943359 2.83433594 -33.82943359 2.83433594 -33.10546875 2.20703125 C-23.24301453 -5.82904256 -10.91426499 -7.06086123 0 0 Z " fill="#C1C1C1" transform="translate(484.5390625,117.55078125)"/>
<path d="M0 0 C0.804375 0.70125 1.60875 1.4025 2.4375 2.125 C3.365625 2.929375 3.365625 2.929375 4.3125 3.75 C5.4375 5.125 5.4375 5.125 5.4375 7.125 C6.04335938 6.65449219 6.64921875 6.18398437 7.2734375 5.69921875 C16.20240604 -0.93569172 23.53829617 -3.78413584 34.734375 -2.44921875 C40.60686125 -1.20173973 44.18579591 2.24744387 47.4375 7.125 C49.95978104 12.79099365 49.71007395 18.31382694 49.66796875 24.39453125 C49.66751053 25.47127609 49.66705231 26.54802094 49.6665802 27.65739441 C49.66356766 29.92419543 49.65571134 32.19099457 49.64331055 34.45776367 C49.62497306 37.94261933 49.62280155 41.42721035 49.62304688 44.91210938 C49.61813445 47.11458565 49.61230734 49.31706011 49.60546875 51.51953125 C49.60435593 52.56736282 49.6032431 53.6151944 49.60209656 54.69477844 C49.59571671 55.65635361 49.58933685 56.61792877 49.58276367 57.60864258 C49.57895187 58.45880447 49.57514008 59.30896637 49.57121277 60.18489075 C49.4375 62.125 49.4375 62.125 48.4375 63.125 C46.58462498 63.19726502 44.72916122 63.2088122 42.875 63.1875 C41.86308594 63.17847656 40.85117187 63.16945313 39.80859375 63.16015625 C39.02613281 63.14855469 38.24367188 63.13695312 37.4375 63.125 C37.407771 61.23394531 37.407771 61.23394531 37.37744141 59.3046875 C37.30102478 54.60055508 37.2123643 49.89671751 37.12011719 45.19287109 C37.08197584 43.16200609 37.0470978 41.13107695 37.015625 39.10009766 C36.9696506 36.17066619 36.91171109 33.24167067 36.8515625 30.3125 C36.84001129 29.41321777 36.82846008 28.51393555 36.81655884 27.58740234 C36.66450633 21.00406038 35.52540634 15.38871902 33.4375 9.125 C26.68504239 7.94599946 21.63374004 7.95483068 15.4375 11.125 C12.4760032 13.58257422 12.4760032 13.58257422 10.4375 16.125 C9.9425 16.62 9.9425 16.62 9.4375 17.125 C9.32058683 18.53106696 9.27030106 19.94277194 9.24804688 21.35351562 C9.22297058 22.69996155 9.22297058 22.69996155 9.1973877 24.0736084 C9.18381226 25.04963013 9.17023682 26.02565186 9.15625 27.03125 C9.13784058 28.0262854 9.11943115 29.0213208 9.10046387 30.04650879 C9.04150774 33.23927712 8.98877425 36.43209959 8.9375 39.625 C8.87008444 43.8230365 8.79641573 48.02089204 8.71875 52.21875 C8.70517456 53.19477173 8.69159912 54.17079346 8.6776123 55.1763916 C8.65253601 56.52283752 8.65253601 56.52283752 8.62695312 57.89648438 C8.60816101 59.0877594 8.60816101 59.0877594 8.58898926 60.30310059 C8.4375 62.125 8.4375 62.125 7.4375 63.125 C5.58462498 63.19726502 3.72916122 63.2088122 1.875 63.1875 C0.86308594 63.17847656 -0.14882813 63.16945313 -1.19140625 63.16015625 C-1.97386719 63.14855469 -2.75632812 63.13695312 -3.5625 63.125 C-3.58231934 61.93535645 -3.60213867 60.74571289 -3.62255859 59.52001953 C-3.69918608 55.06555611 -3.78781087 50.61139529 -3.87988281 46.15722656 C-3.91793823 44.23704037 -3.95282996 42.31678856 -3.984375 40.39648438 C-4.03053929 37.62085669 -4.08844339 34.84567175 -4.1484375 32.0703125 C-4.15998871 31.2251004 -4.17153992 30.37988831 -4.18344116 29.50906372 C-4.17899657 19.38717551 -4.17899657 19.38717551 -7.93978882 10.39431763 C-10.71305858 8.22500973 -13.0883019 8.23707091 -16.5625 8.125 C-22.61107386 9.28500047 -26.53374646 11.34085517 -30.5625 16.125 C-30.8925 16.455 -31.2225 16.785 -31.5625 17.125 C-31.67941317 18.53106696 -31.72969894 19.94277194 -31.75195312 21.35351562 C-31.76867065 22.25114624 -31.78538818 23.14877686 -31.8026123 24.0736084 C-31.81618774 25.04963013 -31.82976318 26.02565186 -31.84375 27.03125 C-31.86215942 28.0262854 -31.88056885 29.0213208 -31.89953613 30.04650879 C-31.95849226 33.23927712 -32.01122575 36.43209959 -32.0625 39.625 C-32.12991556 43.8230365 -32.20358427 48.02089204 -32.28125 52.21875 C-32.29482544 53.19477173 -32.30840088 54.17079346 -32.3223877 55.1763916 C-32.33910522 56.07402222 -32.35582275 56.97165283 -32.37304688 57.89648438 C-32.38557495 58.69066772 -32.39810303 59.48485107 -32.41101074 60.30310059 C-32.5625 62.125 -32.5625 62.125 -33.5625 63.125 C-35.39365883 63.22351171 -37.22869933 63.25472629 -39.0625 63.25 C-40.0628125 63.25257813 -41.063125 63.25515625 -42.09375 63.2578125 C-44.5625 63.125 -44.5625 63.125 -45.5625 62.125 C-45.66175773 60.16675302 -45.69049414 58.20490103 -45.69189453 56.24414062 C-45.69504669 54.98613647 -45.69819885 53.72813232 -45.70144653 52.43200684 C-45.69965675 51.04842087 -45.6976058 49.66483522 -45.6953125 48.28125 C-45.69598559 46.87259911 -45.69695565 45.46394834 -45.69821167 44.05529785 C-45.69968842 41.09951677 -45.69753483 38.14376586 -45.69287109 35.18798828 C-45.68717381 31.39125416 -45.69045293 27.59459072 -45.69644356 23.79785919 C-45.70004979 20.88803572 -45.6989103 17.97822912 -45.69631577 15.06840515 C-45.69564667 13.668106 -45.69647432 12.26780533 -45.69879532 10.86750793 C-45.70132283 8.91362536 -45.69679033 6.95973745 -45.69189453 5.00585938 C-45.69109894 3.89190796 -45.69030334 2.77795654 -45.68948364 1.63024902 C-45.5625 -0.875 -45.5625 -0.875 -44.5625 -1.875 C-42.70962498 -1.94726502 -40.85416122 -1.9588122 -39 -1.9375 C-37.98808594 -1.92847656 -36.97617187 -1.91945313 -35.93359375 -1.91015625 C-34.75990234 -1.89275391 -34.75990234 -1.89275391 -33.5625 -1.875 C-32.9025 0.435 -32.2425 2.745 -31.5625 5.125 C-31.0778125 4.71507813 -30.593125 4.30515625 -30.09375 3.8828125 C-21.83462683 -2.75625189 -9.77628813 -6.33874044 0 0 Z " fill="#C0C0C0" transform="translate(595.5625,115.875)"/>
<path d="M0 0 C-1.19870726 8.36274592 -2.67869627 16.61834562 -4.4140625 24.8828125 C-5.09236733 27.96276442 -5.09236733 27.96276442 -5 31 C-4.43716309 31.09498779 -3.87432617 31.18997559 -3.29443359 31.2878418 C17.85010104 34.91822093 37.47993179 40.67365359 54 55 C57.29472605 53.07759394 60.37556359 51.02124573 63.4375 48.75 C78.35134013 38.28375908 96.60424767 31.30582067 115 32 C114.71382812 30.72898437 114.42765625 29.45796875 114.1328125 28.1484375 C112.98624229 22.98583831 111.91805884 17.80938873 110.875 12.625 C110.60236328 11.29275391 110.60236328 11.29275391 110.32421875 9.93359375 C110.06705078 8.65548828 110.06705078 8.65548828 109.8046875 7.3515625 C109.64983887 6.58666504 109.49499023 5.82176758 109.33544922 5.03369141 C109 3 109 3 109 0 C111.3125 0.4375 111.3125 0.4375 114 2 C117.06630875 8.36331727 118.21590564 15.82746951 119.6875 22.6875 C120.02491211 24.19666992 120.02491211 24.19666992 120.36914062 25.73632812 C121.41529205 30.56007191 122.31320431 35.03105596 122 40 C121.35039307 40.07516846 120.70078613 40.15033691 120.03149414 40.2277832 C117.04058323 40.57954559 114.05163023 40.94592576 111.0625 41.3125 C109.53012695 41.48942383 109.53012695 41.48942383 107.96679688 41.66992188 C101.62175712 42.46051788 95.9951323 43.76823542 90 46 C90.77859375 45.80664062 91.5571875 45.61328125 92.359375 45.4140625 C102.84280318 42.97437069 113.29157187 41.91571066 124 41 C123.72736328 39.81241089 123.72736328 39.81241089 123.44921875 38.60083008 C122.62723512 35.00596899 121.81353598 31.40928182 121 27.8125 C120.71382812 26.56662109 120.42765625 25.32074219 120.1328125 24.03710938 C119.86210937 22.83505859 119.59140625 21.63300781 119.3125 20.39453125 C118.93544922 18.73707886 118.93544922 18.73707886 118.55078125 17.04614258 C118.05011884 14.2771865 117.89049873 11.80368889 118 9 C119.65 9 121.3 9 123 9 C125.176887 16.95490091 127.28473492 24.92752896 129.25 32.9375 C129.42499023 33.62191162 129.59998047 34.30632324 129.78027344 35.01147461 C130.92804465 39.77865112 131.15340145 44.09663221 131 49 C128.07112284 49.97629239 125.70062306 50.28217289 122.63671875 50.54296875 C109.44136555 51.75694511 96.54473368 53.42981205 83.5625 56.0625 C81.64473755 56.4486145 81.64473755 56.4486145 79.68823242 56.8425293 C70.82167874 58.39492486 70.82167874 58.39492486 63.05859375 62.6015625 C60.30095625 64.47487222 58.36950306 64.40002146 55.0625 64.375 C54.04285156 64.38273437 53.02320313 64.39046875 51.97265625 64.3984375 C48.6189355 63.94892434 46.68865852 63.03011048 44 61 C44 60.34 44 59.68 44 59 C42.32164063 58.81050781 42.32164063 58.81050781 40.609375 58.6171875 C35.77470486 58.01232315 31.02645229 57.07615889 26.25 56.125 C10.25942467 53.01682131 -5.81188605 50.78237006 -22 49 C-22.14867639 43.52021311 -21.72297141 38.81273461 -20.46875 33.4375 C-20.31337769 32.76074219 -20.15800537 32.08398438 -19.9979248 31.38671875 C-19.50675891 29.25582581 -19.00362638 27.12797838 -18.5 25 C-18.16195993 23.54315426 -17.82471321 22.08612419 -17.48828125 20.62890625 C-16.66800097 17.08376323 -15.83697495 13.54124355 -15 10 C-10.25 8.875 -10.25 8.875 -8 10 C-7.81824219 9.36191406 -7.63648437 8.72382812 -7.44921875 8.06640625 C-7.19785156 7.24011719 -6.94648437 6.41382812 -6.6875 5.5625 C-6.44386719 4.73878906 -6.20023438 3.91507812 -5.94921875 3.06640625 C-5.63597656 2.38449219 -5.32273437 1.70257813 -5 1 C-2 0 -2 0 0 0 Z M-10 15 C-10.84228458 18.56044445 -11.67223903 22.12365344 -12.5 25.6875 C-12.73847656 26.69490234 -12.97695312 27.70230469 -13.22265625 28.74023438 C-13.44824219 29.71669922 -13.67382812 30.69316406 -13.90625 31.69921875 C-14.11572266 32.59471436 -14.32519531 33.49020996 -14.54101562 34.4128418 C-14.99994512 36.99969065 -15.08261971 39.37888974 -15 42 C-13.25589844 42.14695312 -13.25589844 42.14695312 -11.4765625 42.296875 C-2.19153518 43.14239017 6.79315386 44.38503597 15.85888672 46.59082031 C20.56760639 47.7325281 25.1806892 48.47533878 30 49 C26.52099202 46.68066135 23.03226211 45.64807079 19.0625 44.5 C18.30050293 44.27860352 17.53850586 44.05720703 16.75341797 43.82910156 C6.94947389 41.05155815 -2.85270877 39.75904934 -13 39 C-12.87882812 38.45061768 -12.75765625 37.90123535 -12.6328125 37.33520508 C-12.08316951 34.82878018 -11.54152061 32.32069174 -11 29.8125 C-10.80921875 28.94818359 -10.6184375 28.08386719 -10.421875 27.19335938 C-10.24140625 26.35224609 -10.0609375 25.51113281 -9.875 24.64453125 C-9.62363281 23.48981323 -9.62363281 23.48981323 -9.3671875 22.31176758 C-8.97449085 19.83939753 -8.93814715 17.49924191 -9 15 C-9.33 15 -9.66 15 -10 15 Z " fill="#FCFCFC" transform="translate(77,92)"/>
<path d="M0 0 C18.81 0 37.62 0 57 0 C57 3.63 57 7.26 57 11 C42.48 11 27.96 11 13 11 C13 19.91 13 28.82 13 38 C26.53 38 40.06 38 54 38 C54 41.3 54 44.6 54 48 C40.47 48 26.94 48 13 48 C13 57.9 13 67.8 13 78 C27.52 78 42.04 78 57 78 C57 81.3 57 84.6 57 88 C56 89 56 89 53.75376892 89.12025452 C52.76115555 89.11803391 51.76854218 89.11581329 50.74584961 89.11352539 C49.60901733 89.11340454 48.47218506 89.11328369 47.30090332 89.11315918 C46.09687866 89.10804321 44.892854 89.10292725 43.65234375 89.09765625 C42.55249146 89.09664917 41.45263916 89.09564209 40.31945801 89.09460449 C36.19212814 89.08935362 32.06481307 89.07539251 27.9375 89.0625 C18.718125 89.041875 9.49875 89.02125 0 89 C0 59.63 0 30.26 0 0 Z " fill="#C0C0C0" transform="translate(725,90)"/>
<path d="M0 0 C6.97037279 7.31039097 6.71165777 15.60422778 6.66015625 25.1171875 C6.6587413 26.10751984 6.65732635 27.09785217 6.65586853 28.11819458 C6.65029252 31.26632773 6.63774442 34.41438852 6.625 37.5625 C6.6199819 39.70312397 6.61541954 41.84374906 6.61132812 43.984375 C6.60033094 49.21877449 6.58361675 54.45313207 6.5625 59.6875 C4.03774538 60.94987731 2.25049534 60.78606404 -0.5625 60.75 C-1.92761719 60.73646484 -1.92761719 60.73646484 -3.3203125 60.72265625 C-4.36832031 60.70525391 -4.36832031 60.70525391 -5.4375 60.6875 C-6.0975 58.3775 -6.7575 56.0675 -7.4375 53.6875 C-7.98277344 54.09742188 -8.52804687 54.50734375 -9.08984375 54.9296875 C-17.27157092 60.77577632 -23.93598286 62.39111772 -33.9296875 61.15234375 C-40.81254124 59.87654999 -44.42745582 56.10824377 -48.4375 50.6875 C-50.68190086 46.19869827 -50.04175673 40.12085818 -48.859375 35.359375 C-46.84465239 30.56067205 -43.95247549 27.97587479 -39.30859375 25.71875 C-28.6290995 21.88285002 -17.68894874 21.21282951 -6.4375 21.6875 C-6.693102 19.74793186 -6.96754646 17.81084011 -7.25 15.875 C-7.40082031 14.79605469 -7.55164063 13.71710938 -7.70703125 12.60546875 C-8.68642569 8.69312838 -10.14948165 7.46811718 -13.5 5.4375 C-18.88378192 4.06291738 -24.16281461 4.91313902 -29.375 6.6875 C-32.61787347 9.83210458 -33.24784886 13.36718796 -34.4375 17.6875 C-38.3975 17.6875 -42.3575 17.6875 -46.4375 17.6875 C-46.93508708 11.71645504 -45.77878633 7.68851026 -42.4375 2.6875 C-32.19303913 -7.55696087 -11.61070071 -8.86531335 0 0 Z M-36.4375 37.6875 C-37.29135306 42.26235482 -36.99961357 45.7377219 -34.625 49.75 C-29.90547739 52.61872943 -25.82170344 52.50305957 -20.4375 51.6875 C-14.96937343 49.95392868 -11.2537082 46.96627889 -7.4375 42.6875 C-7.1075 42.3575 -6.7775 42.0275 -6.4375 41.6875 C-6.36505947 39.66785801 -6.35372812 37.64582876 -6.375 35.625 C-6.38402344 34.52027344 -6.39304687 33.41554687 -6.40234375 32.27734375 C-6.41394531 31.42269531 -6.42554688 30.56804687 -6.4375 29.6875 C-22.88400584 29.21337579 -22.88400584 29.21337579 -36.4375 37.6875 Z " fill="#C0C0C0" transform="translate(884.4375,118.3125)"/>
<path d="M0 0 C4.29 0 8.58 0 13 0 C17.30532409 10.17472386 21.3241642 20.44790506 25.3125 30.75 C25.96405632 32.42974041 26.61574808 34.10942829 27.26757812 35.7890625 C28.84661169 39.85877206 30.4238196 43.92918462 32 48 C32.19822861 47.42814972 32.39645721 46.85629944 32.60069275 46.26712036 C34.65916515 40.32969411 36.71952898 34.39292671 38.78100586 28.45654297 C39.55070011 26.23926457 40.31990753 24.02181712 41.08862305 21.80419922 C42.19192422 18.62162705 43.29695936 15.43966162 44.40234375 12.2578125 C44.74716293 11.26194122 45.09198212 10.26606995 45.44725037 9.24002075 C45.92763512 7.85881546 45.92763512 7.85881546 46.41772461 6.44970703 C46.69974228 5.6369632 46.98175995 4.82421936 47.27232361 3.98684692 C48 2 48 2 49 0 C53.29 0 57.58 0 62 0 C59.77566277 7.74869361 57.13241197 15.26319407 54.2890625 22.8046875 C53.83904877 24.00505646 53.38903503 25.20542542 52.92538452 26.44216919 C51.97771535 28.9692276 51.02781592 31.49543195 50.07617188 34.02099609 C48.87015755 37.22195108 47.66897701 40.42469281 46.46940041 43.62806511 C45.30742082 46.72947112 44.14188209 49.82953487 42.9765625 52.9296875 C42.55243073 54.06131317 42.12829895 55.19293884 41.6913147 56.3588562 C39.64562403 61.78235372 37.55667296 67.18654346 35.38037109 72.55908203 C34.99674408 73.50703644 34.61311707 74.45499084 34.21786499 75.43167114 C31.70572646 80.72946518 28.40781735 84.65341259 23 87 C17.67643422 88.26751566 12.44024653 88.07351685 7 88 C7 84.7 7 81.4 7 78 C8.5675 77.7525 10.135 77.505 11.75 77.25 C16.01343923 76.38408286 18.43030247 75.70036444 21 72 C23.8749297 67.43976668 24.16410901 65.18677866 23 60 C22.31351288 57.98911625 21.56759858 55.997899 20.77514648 54.02636719 C20.31474472 52.87207214 19.85434296 51.7177771 19.37998962 50.52850342 C18.87705 49.2846169 18.37408409 48.04074101 17.87109375 46.796875 C17.35623555 45.51011595 16.84200878 44.22310409 16.3283844 42.93585205 C14.98043412 39.56119503 13.62593161 36.18921223 12.26940918 32.81799316 C10.09343037 27.40885787 7.92469781 21.99683708 5.76124763 16.58267975 C5.00431854 14.69241461 4.24288984 12.80400636 3.48106384 10.91571045 C3.02381424 9.77402405 2.56656464 8.63233765 2.09545898 7.45605469 C1.68988266 6.44822937 1.28430634 5.44040405 0.86643982 4.40203857 C0 2 0 2 0 0 Z " fill="#C1C1C1" transform="translate(653,114)"/>
<path d="M0 0 C1.50046875 0.00386719 1.50046875 0.00386719 3.03125 0.0078125 C4.0315625 0.00523438 5.031875 0.00265625 6.0625 0 C8.53125 0.1328125 8.53125 0.1328125 9.53125 1.1328125 C9.63776507 2.51276322 9.67742586 3.89797509 9.68896484 5.28198242 C9.69922699 6.16347458 9.70948914 7.04496674 9.72006226 7.95317078 C9.72736359 8.91350723 9.73466492 9.87384369 9.7421875 10.86328125 C9.77026797 12.88347148 9.79893251 14.90365366 9.828125 16.92382812 C9.86932317 20.11889318 9.90619623 23.31380989 9.93261719 26.5090332 C9.9602861 29.58576863 10.0061735 32.66181322 10.0546875 35.73828125 C10.05794037 36.68849655 10.06119324 37.63871185 10.06454468 38.61772156 C10.16095106 43.8391674 10.53435035 47.65776602 13.53125 52.1328125 C17.61739846 54.85691148 20.7382473 54.62997972 25.53125 54.1328125 C31.19938019 52.83954928 34.67508351 50.57324664 38.53125 46.1328125 C38.86125 45.8028125 39.19125 45.4728125 39.53125 45.1328125 C39.65334924 43.72163548 39.70895872 42.30460791 39.73657227 40.88842773 C39.75651749 39.98756943 39.77646271 39.08671112 39.79701233 38.15855408 C39.81372482 37.17939529 39.83043732 36.20023651 39.84765625 35.19140625 C39.86843735 34.19399918 39.88921844 33.1965921 39.91062927 32.16896057 C39.97623637 28.96948407 40.03506134 25.76992268 40.09375 22.5703125 C40.13692462 20.40689211 40.18053855 18.24348044 40.22460938 16.08007812 C40.33192909 10.76441086 40.43316469 5.44865786 40.53125 0.1328125 C44.49125 0.1328125 48.45125 0.1328125 52.53125 0.1328125 C52.55380403 8.46010601 52.57216682 16.78737594 52.58306217 25.11469173 C52.58829026 28.98101368 52.59538654 32.84731371 52.60668945 36.71362305 C52.617521 40.44184651 52.6235274 44.17004884 52.62612724 47.89828682 C52.62798101 49.32370906 52.63160071 50.74913009 52.63698006 52.17454338 C52.64419393 54.16444658 52.64465808 56.15437084 52.64477539 58.14428711 C52.646996 59.27901962 52.64921661 60.41375214 52.65150452 61.58287048 C52.53125 64.1328125 52.53125 64.1328125 51.53125 65.1328125 C49.67837498 65.20507752 47.82291122 65.2166247 45.96875 65.1953125 C44.95683594 65.18628906 43.94492187 65.17726563 42.90234375 65.16796875 C42.11988281 65.15636719 41.33742188 65.14476562 40.53125 65.1328125 C40.03625 61.1728125 40.03625 61.1728125 39.53125 57.1328125 C39.01175781 57.54273438 38.49226563 57.95265625 37.95703125 58.375 C36.91095703 59.18324219 36.91095703 59.18324219 35.84375 60.0078125 C35.15925781 60.54148438 34.47476563 61.07515625 33.76953125 61.625 C28.83331884 64.950267 24.45372107 65.47251757 18.59375 65.4453125 C17.55831055 65.46948242 17.55831055 65.46948242 16.50195312 65.49414062 C11.7529528 65.49864205 8.55335661 64.63558748 4.53125 62.1328125 C-3.61645189 53.61476052 -3.62744232 44.3767915 -3.6015625 33.19921875 C-3.60251923 32.28067612 -3.60347595 31.36213348 -3.60446167 30.41575623 C-3.60513798 28.49046764 -3.6033223 26.5651767 -3.59912109 24.63989258 C-3.5937217 21.6797992 -3.59910665 18.7198546 -3.60546875 15.75976562 C-3.60480872 13.88541633 -3.6035291 12.01106713 -3.6015625 10.13671875 C-3.60358673 9.24827774 -3.60561096 8.35983673 -3.60769653 7.44447327 C-3.57964763 0.19257598 -3.57964763 0.19257598 0 0 Z " fill="#C2C2C2" transform="translate(364.46875,113.8671875)"/>
<path d="M0 0 C0 3.3 0 6.6 0 10 C-0.79664063 10.17015625 -1.59328125 10.3403125 -2.4140625 10.515625 C-8.38986659 11.88235392 -13.26079204 13.02931225 -18 17 C-19.16425976 19.32851952 -19.15457992 20.76280184 -19.20532227 23.35791016 C-19.22526749 24.25869293 -19.24521271 25.15947571 -19.26576233 26.08755493 C-19.29083107 27.54855118 -19.29083107 27.54855118 -19.31640625 29.0390625 C-19.33718735 30.03505463 -19.35796844 31.03104675 -19.37937927 32.05722046 C-19.44489042 35.24640854 -19.50376704 38.43568058 -19.5625 41.625 C-19.60568373 43.78386293 -19.64929797 45.9427173 -19.69335938 48.1015625 C-19.80057336 53.4009523 -19.90233685 58.70042606 -20 64 C-22 65 -22 65 -33 65 C-33 43.55 -33 22.1 -33 0 C-29.04 0 -25.08 0 -21 0 C-20.67 2.31 -20.34 4.62 -20 7 C-19.61070312 6.59007813 -19.22140625 6.18015625 -18.8203125 5.7578125 C-13.63665347 0.76525611 -7.18586763 -2.39528921 0 0 Z " fill="#C4C4C4" transform="translate(831,114)"/>
<path d="M0 0 C2.23046875 -0.34375 2.23046875 -0.34375 5 0 C7.23828125 2.40625 7.23828125 2.40625 9.3125 5.5 C10.00988281 6.5209375 10.70726563 7.541875 11.42578125 8.59375 C11.94527344 9.3878125 12.46476562 10.181875 13 11 C13.33 7.37 13.66 3.74 14 0 C15.65 0 17.3 0 19 0 C20 1 20 1 20.11352539 3.13305664 C20.10828857 4.04949951 20.10305176 4.96594238 20.09765625 5.91015625 C20.09443359 6.89951172 20.09121094 7.88886719 20.08789062 8.90820312 C20.07951172 9.94912109 20.07113281 10.99003906 20.0625 12.0625 C20.05798828 13.10728516 20.05347656 14.15207031 20.04882812 15.22851562 C20.03699913 17.8190666 20.02051689 20.40950559 20 23 C18 24 18 24 15.25 23.625 C10.52619614 21.26309807 8.59741578 17.4763974 6 13 C5.67 16.3 5.34 19.6 5 23 C3.02 23 1.04 23 -1 23 C-1.0272367 20.47909222 -1.04695207 17.95848543 -1.0625 15.4375 C-1.07087891 14.73302734 -1.07925781 14.02855469 -1.08789062 13.30273438 C-1.10882603 8.75975202 -0.74800682 4.48215108 0 0 Z " fill="#FCFCFC" transform="translate(74,163)"/>
<path d="M0 0 C13.00552486 -0.60773481 13.00552486 -0.60773481 17.375 2.0625 C19.40553614 5.73308456 19.60190112 7.86192982 19 12 C17.5 14.4375 17.5 14.4375 16 16 C16.495 16.78375 16.99 17.5675 17.5 18.375 C19 21 19 21 19 23 C16.69 23 14.38 23 12 23 C11.34 21.02 10.68 19.04 10 17 C9.01 17 8.02 17 7 17 C6.67 18.98 6.34 20.96 6 23 C4.02 23 2.04 23 0 23 C0 15.41 0 7.82 0 0 Z M6 6 C6 7.65 6 9.3 6 11 C7.98 11 9.96 11 12 11 C12.59070014 9.05396726 12.59070014 9.05396726 13 7 C11.87465895 5.64381501 11.87465895 5.64381501 8.9375 5.9375 C7.968125 5.958125 6.99875 5.97875 6 6 Z " fill="#FBFBFB" transform="translate(149,163)"/>
<path d="M0 0 C0 0.66 0 1.32 0 2 C-0.92941406 2.30292969 -1.85882813 2.60585938 -2.81640625 2.91796875 C-14.77783174 6.61266688 -14.77783174 6.61266688 -23.1875 15.375 C-24.32347799 19.00843747 -24.32347799 19.00843747 -22.875 22.5 C-16.22930696 31.97274976 -3.6372599 35.23100916 6.6796875 39.0234375 C33.41154567 48.86391642 33.41154567 48.86391642 40 59 C41.25 62.3125 41.25 62.3125 42 65 C41.34 65 40.68 65 40 65 C39.443125 64.13375 38.88625 63.2675 38.3125 62.375 C30.67983037 50.6514391 15.87204085 46.64198147 3.375 42 C-20.18018511 33.22972233 -20.18018511 33.22972233 -27 23 C-27.69316436 18.69593293 -27.59957482 15.09922051 -25.5 11.25 C-18.68495361 5.11645825 -9.36442909 0 0 0 Z " fill="#F9F9F9" transform="translate(91,43)"/>
<path d="M0 0 C3 1.5 3 1.5 5 3 C4.34 4.32 3.68 5.64 3 7 C0.03 6.67 -2.94 6.34 -6 6 C-3.98452539 8.2630684 -3.98452539 8.2630684 -0.5 9.5 C3 11 3 11 5 13 C5.56732724 19.24059959 5.56732724 19.24059959 3.75390625 21.66796875 C0.57089587 24.08535525 -3.10222642 24.11624939 -7 24 C-10 22.8125 -10 22.8125 -12 21 C-12.8125 18.8125 -12.8125 18.8125 -13 17 C-11.34385343 16.61781233 -9.67542976 16.28604898 -8 16 C-7.67 16.33 -7.34 16.66 -7 17 C-5.33382885 17.04063832 -3.66611905 17.042721 -2 17 C-1.67 16.34 -1.34 15.68 -1 15 C-1.61488281 14.90203125 -2.22976562 14.8040625 -2.86328125 14.703125 C-9.40052895 13.49368205 -9.40052895 13.49368205 -12.125 11.25 C-13.35942831 8.07575577 -13.02815571 6.22155455 -12 3 C-8.85017881 -0.77978542 -4.59628326 -0.70992098 0 0 Z " fill="#FBFBFB" transform="translate(184,163)"/>
<path d="M0 0 C5.28 0 10.56 0 16 0 C16 1.98 16 3.96 16 6 C12.7 6 9.4 6 6 6 C6 6.99 6 7.98 6 9 C8.64 9 11.28 9 14 9 C14.33 10.65 14.66 12.3 15 14 C12.03 14 9.06 14 6 14 C6 15.32 6 16.64 6 18 C9.3 18 12.6 18 16 18 C16 19.65 16 21.3 16 23 C10.72 23 5.44 23 0 23 C0 15.41 0 7.82 0 0 Z " fill="#FAFAFA" transform="translate(130,163)"/>
<path d="M0 0 C5.28 0 10.56 0 16 0 C16 1.98 16 3.96 16 6 C12.7 6 9.4 6 6 6 C6 6.66 6 7.32 6 8 C8.64 8.33 11.28 8.66 14 9 C14 10.65 14 12.3 14 14 C11.36 14.33 8.72 14.66 6 15 C5.67 15.99 5.34 16.98 5 18 C8.63 18 12.26 18 16 18 C16 19.65 16 21.3 16 23 C10.72 23.33 5.44 23.66 0 24 C-0.72823785 15.74663774 -1.11894161 8.20557183 0 0 Z " fill="#FAFAFA" transform="translate(193,163)"/>
<path d="M0 0 C1.65 0 3.3 0 5 0 C5.06058594 0.97582031 5.12117188 1.95164063 5.18359375 2.95703125 C5.26738281 4.22933594 5.35117187 5.50164062 5.4375 6.8125 C5.51871094 8.07707031 5.59992187 9.34164062 5.68359375 10.64453125 C5.87184547 13.99181893 5.87184547 13.99181893 7 17 C8.65 16.67 10.3 16.34 12 16 C12.06058594 14.92878906 12.12117188 13.85757813 12.18359375 12.75390625 C12.26798537 11.35675609 12.35263406 9.95962143 12.4375 8.5625 C12.49647461 7.50192383 12.49647461 7.50192383 12.55664062 6.41992188 C12.88671875 1.11328125 12.88671875 1.11328125 14 0 C15.66617115 -0.04063832 17.33388095 -0.042721 19 0 C19.10829314 2.89684158 19.18743954 5.78961019 19.25 8.6875 C19.30027344 9.91243164 19.30027344 9.91243164 19.3515625 11.16210938 C19.41772465 15.24762224 19.33531169 17.44018157 17.19140625 21.01953125 C14.12226415 23.79324791 12.10713547 24 8 24 C5.13174554 23.14804323 2.15496063 22.15496063 0 20 C-0.08669432 18.5112814 -0.10703494 17.018555 -0.09765625 15.52734375 C-0.09443359 14.62822266 -0.09121094 13.72910156 -0.08789062 12.80273438 C-0.07951172 11.85720703 -0.07113281 10.91167969 -0.0625 9.9375 C-0.05798828 8.98810547 -0.05347656 8.03871094 -0.04882812 7.06054688 C-0.0370011 4.70696935 -0.02052025 2.35351523 0 0 Z " fill="#FCFCFC" transform="translate(51,163)"/>
<path d="M0 0 C1.98 0 3.96 0 6 0 C7.98 4.29 9.96 8.58 12 13 C13.65 8.71 15.3 4.42 17 0 C18.98 0 20.96 0 23 0 C22.38174263 4.97697179 20.91038555 9.16327242 19 13.75 C18.59007812 14.75740234 18.59007812 14.75740234 18.171875 15.78515625 C17.17493567 18.22374805 16.17861835 20.6427633 15 23 C12.69 23 10.38 23 8 23 C6.66128359 19.54372619 5.32994608 16.08465703 4 12.625 C3.6184375 11.64015625 3.236875 10.6553125 2.84375 9.640625 C2.30234375 8.22910156 2.30234375 8.22910156 1.75 6.7890625 C1.41484375 5.91975098 1.0796875 5.05043945 0.734375 4.15478516 C0 2 0 2 0 0 Z " fill="#FBFBFB" transform="translate(105,163)"/>
<path d="M0 0 C5.66888747 1.31834592 7.85669225 3.28503838 11 8 C11.39226281 10.91658935 11.39084828 12.40069931 9.76953125 14.88671875 C2.16212789 21.88674459 -7.13212896 25.6225622 -16.45605469 29.84667969 C-30.74545486 36.32490679 -39.96037686 42.10652627 -48 56 C-49 53 -49 53 -48.1796875 50.6953125 C-45.64022228 45.69241394 -43.36415104 41.65370785 -39 38 C-38.22462891 37.31550781 -38.22462891 37.31550781 -37.43359375 36.6171875 C-30.08170646 30.55148351 -20.95406353 27.01419114 -12.19921875 23.43359375 C-5.03565949 20.48660857 1.45901276 17.54098724 7 12 C7.67154684 9.71658257 7.67154684 9.71658257 7 7 C5.29185402 5.21925781 3.48562924 3.73893679 1.53125 2.234375 C1.0259375 1.82703125 0.520625 1.4196875 0 1 C0 0.67 0 0.34 0 0 Z " fill="#F3F4F4" transform="translate(182,64)"/>
<path d="M0 0 C0.33 0 0.66 0 1 0 C1.1540435 9.80545516 1.30222288 19.61097986 1.4429636 29.41663551 C1.50850177 33.97002634 1.57604218 38.52336894 1.64819336 43.07666016 C1.71777819 47.47268112 1.78205785 51.86875086 1.84269524 56.26490402 C1.86672877 57.94020772 1.89265797 59.61548536 1.92053413 61.29072952 C1.95931901 63.64120666 1.99129862 65.99168702 2.02172852 68.34228516 C2.03467453 69.03136963 2.04762054 69.7204541 2.06095886 70.43041992 C2.1052834 74.50884844 1.68322803 77.90063185 1 82 C18.82 82 36.64 82 55 82 C55 79.03 55 76.06 55 73 C55.66 73 56.32 73 57 73 C57.02688151 74.64574566 57.04634123 76.29161413 57.0625 77.9375 C57.07410156 78.85402344 57.08570313 79.77054687 57.09765625 80.71484375 C57 83 57 83 56 84 C54.2507128 84.09365006 52.49763746 84.11744438 50.74584961 84.11352539 C49.60901733 84.11340454 48.47218506 84.11328369 47.30090332 84.11315918 C46.09687866 84.10804321 44.892854 84.10292725 43.65234375 84.09765625 C42.55249146 84.09664917 41.45263916 84.09564209 40.31945801 84.09460449 C36.19212814 84.08935362 32.06481307 84.07539251 27.9375 84.0625 C18.718125 84.041875 9.49875 84.02125 0 84 C0 56.28 0 28.56 0 0 Z " fill="#D3D3D3" transform="translate(725,95)"/>
<path d="M0 0 C2.8125 -0.3125 2.8125 -0.3125 6 0 C7.875 2.5 7.875 2.5 9 5 C9.66 3.35 10.32 1.7 11 0 C12.32 0 13.64 0 15 0 C15 5.28 15 10.56 15 16 C13.35 16 11.7 16 10 16 C8.1875 14 8.1875 14 7 12 C6.67 13.32 6.34 14.64 6 16 C4.35 16 2.7 16 1 16 C0.14701624 12.32612505 -0.10789471 8.9552607 -0.0625 5.1875 C-0.05347656 4.21167969 -0.04445312 3.23585937 -0.03515625 2.23046875 C-0.02355469 1.49441406 -0.01195312 0.75835937 0 0 Z " fill="#FAFAFA" transform="translate(173,194)"/>
<path d="M0 0 C3.40320742 1.01176437 4.75725331 1.64843582 6.8125 4.625 C7.204375 5.40875 7.59625 6.1925 8 7 C8.33 5.02 8.66 3.04 9 1 C10.65 1 12.3 1 14 1 C14 6.28 14 11.56 14 17 C12.35 17 10.7 17 9 17 C6.6875 14.5 6.6875 14.5 5 12 C4.67 13.65 4.34 15.3 4 17 C2.35 17 0.7 17 -1 17 C-1.02691685 14.54159395 -1.04679802 12.08348118 -1.0625 9.625 C-1.07087891 8.92632812 -1.07925781 8.22765625 -1.08789062 7.5078125 C-1.11328125 2.2265625 -1.11328125 2.2265625 0 0 Z " fill="#FAFAFA" transform="translate(150,193)"/>
<path d="M0 0 C3.1875 0.3125 3.1875 0.3125 5 2.18359375 C7.64163201 4.75446776 9.89584331 5.51531101 13.375 6.6875 C23.02655572 10.22965345 30.04602046 14.72378256 35.5625 23.5 C36.1875 25.3125 36.1875 25.3125 35.1875 28.3125 C34.79820313 27.74402344 34.40890625 27.17554687 34.0078125 26.58984375 C27.34264591 17.39068525 18.51204742 10.6288847 7.1875 8.3125 C4.45451887 8.43396583 1.95077378 8.75437462 -0.71875 9.34375 C-1.4096875 9.3334375 -2.100625 9.323125 -2.8125 9.3125 C-3.85813774 8.01464813 -4.85846072 6.67909681 -5.8125 5.3125 C-8.13525177 4.91202556 -10.46989357 4.5727896 -12.8125 4.3125 C-13.1425 3.6525 -13.4725 2.9925 -13.8125 2.3125 C-13.10222656 2.25191406 -12.39195313 2.19132812 -11.66015625 2.12890625 C-10.28150391 2.00322266 -10.28150391 2.00322266 -8.875 1.875 C-7.95847656 1.79378906 -7.04195313 1.71257812 -6.09765625 1.62890625 C-3.3251217 1.24501685 -2.92978826 0.32553203 0 0 Z " fill="#FAFAFA" transform="translate(91.8125,89.6875)"/>
<path d="M0 0 C0.144375 0.804375 0.28875 1.60875 0.4375 2.4375 C0.74135249 4.92103706 0.74135249 4.92103706 2 6 C2.26077823 8.99894961 2.43731576 11.18003295 1 13.875 C-2.23573106 15.69509872 -5.44106536 15.60931177 -9 15 C-12 13.4375 -12 13.4375 -14 11 C-14.69407231 6.758447 -14.48845367 4.77478859 -12.1875 1.125 C-7.96348063 -2.9783331 -5.22451349 -1.67578735 0 0 Z M-7 3 C-7.66 3.66 -8.32 4.32 -9 5 C-8.67958603 7.60280568 -8.67958603 7.60280568 -8 10 C-6.02 10.495 -6.02 10.495 -4 11 C-3.67 10.34 -3.34 9.68 -3 9 C-3.99 9 -4.98 9 -6 9 C-6 7.68 -6 6.36 -6 5 C-4.68 4.67 -3.36 4.34 -2 4 C-4.39719432 3.32041397 -4.39719432 3.32041397 -7 3 Z " fill="#FAFAFA" transform="translate(204,195)"/>
<path d="M0 0 C8.30078125 -0.390625 8.30078125 -0.390625 11 0 C12.87109375 1.8515625 12.87109375 1.8515625 14 4 C13.74303831 6.69809776 13.20824654 8.58350693 12 11 C12.89363605 13.60931266 12.89363605 13.60931266 14 16 C12.35 16 10.7 16 9 16 C8.34 14.35 7.68 12.7 7 11 C6.34 11 5.68 11 5 11 C5 12.65 5 14.3 5 16 C3.35 16 1.7 16 0 16 C0 10.72 0 5.44 0 0 Z M5 4 C5 4.99 5 5.98 5 7 C6.32 6.67 7.64 6.34 9 6 C8.67 5.34 8.34 4.68 8 4 C7.01 4 6.02 4 5 4 Z " fill="#FAFAFA" transform="translate(133,194)"/>
<path d="M0 0 C2.375 1.5 2.375 1.5 4 4 C4.55001794 7.10367265 4.5640276 9.89784817 4 13 C2.22577578 15.4395583 1.02218795 15.8366175 -1.90625 16.3046875 C-5.44885838 16.5294052 -7.44863271 16.34460456 -10.5 14.4375 C-12.55402253 11.09971339 -12.41314312 8.85600245 -12 5 C-11.14348107 2.35906662 -10.46128762 1.34596572 -8.25 -0.3125 C-5.11082448 -1.27169252 -3.13830576 -0.91533918 0 0 Z M-7 5 C-7 6.98 -7 8.96 -7 11 C-4.60280568 11.67958603 -4.60280568 11.67958603 -2 12 C-1.34 11.34 -0.68 10.68 0 10 C-0.32041397 7.39719432 -0.32041397 7.39719432 -1 5 C-4.04913228 3.98888907 -4.04913228 3.98888907 -7 5 Z " fill="#FAFAFA" transform="translate(64,194)"/>
<path d="M0 0 C0 0.66 0 1.32 0 2 C-0.93199219 2.27972656 -1.86398438 2.55945313 -2.82421875 2.84765625 C-14.92313873 6.60221814 -25.52219273 11.36466449 -35 20 C-35.66 20 -36.32 20 -37 20 C-37.268125 20.56203125 -37.53625 21.1240625 -37.8125 21.703125 C-39.0803979 24.15550646 -40.48972342 26.43927683 -42 28.75 C-42.515625 29.54921875 -43.03125 30.3484375 -43.5625 31.171875 C-44.2740625 32.07679688 -44.2740625 32.07679688 -45 33 C-45.66 33 -46.32 33 -47 33 C-45.12570239 23.51954117 -38.06933687 15.51871618 -30.34375 10.15625 C-21.45164029 4.63378187 -10.6543574 0 0 0 Z " fill="#F6F6F6" transform="translate(181,106)"/>
<path d="M0 0 C0.33 0 0.66 0 1 0 C1 19.47 1 38.94 1 59 C3.97 59 6.94 59 10 59 C9.98952637 57.73816895 9.97905273 56.47633789 9.96826172 55.17626953 C9.93213101 50.50605086 9.90912484 45.83584461 9.89013672 41.16552734 C9.88006329 39.14206873 9.86640405 37.11862472 9.84912109 35.09521484 C9.82493153 32.19104411 9.81353051 29.28706539 9.8046875 26.3828125 C9.79436493 25.47443634 9.78404236 24.56606018 9.77340698 23.63015747 C9.77325592 22.78943695 9.77310486 21.94871643 9.77294922 21.08251953 C9.768508 20.34083527 9.76406677 19.599151 9.75949097 18.83499146 C10 17 10 17 12 15 C12.02527062 21.39037231 12.04283317 27.78073183 12.05493164 34.17114258 C12.05997308 36.34692873 12.06680607 38.52271147 12.07543945 40.69848633 C12.08751338 43.81853067 12.09323005 46.93853038 12.09765625 50.05859375 C12.10281754 51.03775253 12.10797882 52.01691132 12.11329651 53.02574158 C12.11337204 53.92659988 12.11344757 54.82745819 12.11352539 55.75561523 C12.115746 56.55281479 12.11796661 57.35001434 12.12025452 58.17137146 C12 60 12 60 11 61 C7.37 61 3.74 61 0 61 C0 40.87 0 20.74 0 0 Z " fill="#DDDDDD" transform="translate(437,118)"/>
<path d="M0 0 C1.65 0 3.3 0 5 0 C5.81604999 1.9151579 6.62770632 3.83218834 7.4375 5.75 C8.11619141 7.35101563 8.11619141 7.35101563 8.80859375 8.984375 C9.73979553 11.3413841 10.4784072 13.52992835 11 16 C8.625 16.125 8.625 16.125 6 16 C5.34 15.34 4.68 14.68 4 14 C1.93125966 13.3574765 1.93125966 13.3574765 0 13 C-0.33 13.99 -0.66 14.98 -1 16 C-2.65 16 -4.3 16 -6 16 C-4.25192871 10.53262809 -2.34205919 5.24175152 0 0 Z " fill="#FAFAFA" transform="translate(121,194)"/>
<path d="M0 0 C0.91007812 0.10183594 1.82015625 0.20367187 2.7578125 0.30859375 C3.45648438 0.39238281 4.15515625 0.47617188 4.875 0.5625 C4.875 1.8825 4.875 3.2025 4.875 4.5625 C2.565 4.5625 0.255 4.5625 -2.125 4.5625 C-2.125 5.2225 -2.125 5.8825 -2.125 6.5625 C-0.145 6.5625 1.835 6.5625 3.875 6.5625 C3.875 7.8825 3.875 9.2025 3.875 10.5625 C1.895 10.5625 -0.085 10.5625 -2.125 10.5625 C-2.125 11.2225 -2.125 11.8825 -2.125 12.5625 C0.185 12.5625 2.495 12.5625 4.875 12.5625 C4.875 13.8825 4.875 15.2025 4.875 16.5625 C3.06257948 16.58937279 1.25004767 16.60883715 -0.5625 16.625 C-1.57183594 16.63660156 -2.58117187 16.64820313 -3.62109375 16.66015625 C-6.125 16.5625 -6.125 16.5625 -7.125 15.5625 C-7.19813567 13.03200598 -7.21747527 10.52945163 -7.1875 8 C-7.18298828 7.28908203 -7.17847656 6.57816406 -7.17382812 5.84570312 C-7.16200864 4.08459987 -7.14407263 2.32353964 -7.125 0.5625 C-4.50184968 -0.74907516 -2.89466564 -0.33399988 0 0 Z " fill="#F9F9F9" transform="translate(109.125,193.4375)"/>
<path d="M0 0 C0.66 0 1.32 0 2 0 C2.33 1.98 2.66 3.96 3 6 C5.31 6 7.62 6 10 6 C10 6.66 10 7.32 10 8 C8 9.625 8 9.625 6 11 C6.33 12.98 6.66 14.96 7 17 C4 17 4 17 1.5625 16.375 C-1.43812197 15.93588459 -2.41846922 16.56398925 -5 18 C-5.07347656 17.04287109 -5.07347656 17.04287109 -5.1484375 16.06640625 C-5.22320312 15.24011719 -5.29796875 14.41382813 -5.375 13.5625 C-5.44460937 12.73878906 -5.51421875 11.91507813 -5.5859375 11.06640625 C-5.79089844 10.04353516 -5.79089844 10.04353516 -6 9 C-6.66 8.67 -7.32 8.34 -8 8 C-8 7.34 -8 6.68 -8 6 C-4.535 5.505 -4.535 5.505 -1 5 C-0.67 3.35 -0.34 1.7 0 0 Z " fill="#FAFAFA" transform="translate(98,9)"/>
<path d="M0 0 C0.66 0 1.32 0 2 0 C2.02464513 6.1055471 2.04283371 12.21106551 2.05493164 18.31665039 C2.05997288 20.39543156 2.06680574 22.47420916 2.07543945 24.55297852 C2.08751422 27.53402586 2.09323024 30.51502649 2.09765625 33.49609375 C2.10281754 34.43150497 2.10797882 35.3669162 2.11329651 36.33067322 C2.11337204 37.19149002 2.11344757 38.05230682 2.11352539 38.93920898 C2.115746 39.70087875 2.11796661 40.46254852 2.12025452 41.24729919 C2 43 2 43 1 44 C-2.63 44 -6.26 44 -10 44 C-10 30.14 -10 16.28 -10 2 C-9.67 2 -9.34 2 -9 2 C-9 15.2 -9 28.4 -9 42 C-6.03 42 -3.06 42 0 42 C-0.05329468 40.19813232 -0.05329468 40.19813232 -0.10766602 38.35986328 C-0.23779805 33.91338938 -0.36104144 29.46674685 -0.48217773 25.02001953 C-0.53562804 23.09353392 -0.59095971 21.16709958 -0.64819336 19.24072266 C-0.73001986 16.4756984 -0.80513291 13.71056186 -0.87890625 10.9453125 C-0.90594131 10.0806839 -0.93297638 9.2160553 -0.96083069 8.32522583 C-1.11387171 2.22774341 -1.11387171 2.22774341 0 0 Z " fill="#CDCDCD" transform="translate(602,135)"/>
<path d="M0 0 C0.66 0 1.32 0 2 0 C2.02312684 8.32728947 2.04091683 16.65456563 2.05181217 24.98187923 C2.05704026 28.84820118 2.06413654 32.71450121 2.07543945 36.58081055 C2.086271 40.30903401 2.0922774 44.03723634 2.09487724 47.76547432 C2.09673101 49.19089656 2.10035071 50.61631759 2.10573006 52.04173088 C2.11294393 54.03163408 2.11340808 56.02155834 2.11352539 58.01147461 C2.115746 59.14620712 2.11796661 60.28093964 2.12025452 61.45005798 C2 64 2 64 1 65 C-0.85287502 65.07226502 -2.70833878 65.0838122 -4.5625 65.0625 C-6.08037109 65.04896484 -6.08037109 65.04896484 -7.62890625 65.03515625 C-8.41136719 65.02355469 -9.19382812 65.01195312 -10 65 C-10 64.34 -10 63.68 -10 63 C-6.7 63 -3.4 63 0 63 C0 42.21 0 21.42 0 0 Z " fill="#C9C9C9" transform="translate(415,114)"/>
<path d="M0 0 C2.8125 1.4375 2.8125 1.4375 4.25 3.25 C4.97009654 6.05037543 4.72489394 7.70031819 3.8125 10.4375 C2.625 12.25 2.625 12.25 0.8125 13.4375 C-2.125 13.9375 -2.125 13.9375 -5.1875 13.4375 C-7.625 11.3125 -7.625 11.3125 -9.1875 8.4375 C-9.25 5.3125 -9.25 5.3125 -8.1875 2.4375 C-5.21898534 -0.27657054 -3.98416258 -0.70308751 0 0 Z " fill="#FBFBFB" transform="translate(171.1875,67.5625)"/>
<path d="M0 0 C0.99 0.33 1.98 0.66 3 1 C3 2.32 3 3.64 3 5 C5.31 5.33 7.62 5.66 10 6 C9.505 6.515625 9.01 7.03125 8.5 7.5625 C6.50350759 10.80680017 6.78435615 13.26217334 7 17 C6.13375 16.4740625 6.13375 16.4740625 5.25 15.9375 C2.58613224 14.8275551 1.66571663 15.05410055 -1 16 C-1.99 16.33 -2.98 16.66 -4 17 C-3.9071875 15.329375 -3.9071875 15.329375 -3.8125 13.625 C-3.874375 12.42875 -3.93625 11.2325 -4 10 C-4.99 9.34 -5.98 8.68 -7 8 C-7 7.01 -7 6.02 -7 5 C-5.02 5 -3.04 5 -1 5 C-0.67 3.35 -0.34 1.7 0 0 Z " fill="#FBFBFB" transform="translate(187,41)"/>
<path d="M0 0 C4.16138263 -0.08159574 7.9472484 0.01751476 12 1 C12 2.32 12 3.64 12 5 C9.69 5 7.38 5 5 5 C5 5.66 5 6.32 5 7 C6.98 7 8.96 7 11 7 C11 8.65 11 10.3 11 12 C9.35 12 7.7 12 6 12 C6 13.65 6 15.3 6 17 C4.35 17 2.7 17 1 17 C0.25983299 11.29014022 -0.10469338 5.75813575 0 0 Z " fill="#FAFBFB" transform="translate(70,193)"/>
<path d="M0 0 C1.98 0 3.96 0 6 0 C6 7.59 6 15.18 6 23 C4.02 23 2.04 23 0 23 C0 15.41 0 7.82 0 0 Z " fill="#FBFBFB" transform="translate(97,163)"/>
<path d="M0 0 C0.66 0 1.32 0 2 0 C2 13.53 2 27.06 2 41 C-0.64458379 42.32229189 -2.67761301 42.09677194 -5.625 42.0625 C-6.62789063 42.05347656 -7.63078125 42.04445312 -8.6640625 42.03515625 C-9.43492187 42.02355469 -10.20578125 42.01195312 -11 42 C-10.67 41.01 -10.34 40.02 -10 39 C-6.7 39.33 -3.4 39.66 0 40 C-0.33 38.68 -0.66 37.36 -1 36 C-1.094569 33.48892553 -1.1401589 31.00671735 -1.1328125 28.49609375 C-1.13376923 27.77639908 -1.13472595 27.05670441 -1.13571167 26.31520081 C-1.13639048 24.79810498 -1.13455706 23.28100622 -1.13037109 21.76391602 C-1.12501074 19.44215383 -1.13033017 17.12058439 -1.13671875 14.79882812 C-1.13605807 13.32291624 -1.13477711 11.84700448 -1.1328125 10.37109375 C-1.13483673 9.67729111 -1.13686096 8.98348846 -1.13894653 8.2686615 C-1.12416431 5.23195404 -0.96856897 2.9057069 0 0 Z " fill="#DDDDDD" transform="translate(489,137)"/>
<path d="M0 0 C11.92066343 1.22588383 22.14648237 4.92707844 30.37890625 13.9296875 C34.84864379 19.638027 36.48715633 24.82018868 37 32 C34.83051415 29.83051415 33.97553948 28.0190751 32.6875 25.25 C27.17002077 14.11908537 18.4006606 8.30369765 7 4 C4.6764568 3.24688103 2.3684087 2.60470009 0 2 C0 1.34 0 0.68 0 0 Z " fill="#F5F6F5" transform="translate(93,105)"/>
<path d="M0 0 C13.68462855 0.8285057 25.94172393 5.45802328 36 15 C37.92120906 17.55118691 39.53447295 20.16468385 41 23 C38.01422497 21.65705315 35.96310949 20.1496314 33.625 17.875 C23.85093109 9.20299801 12.37547309 4.60517984 0 1 C0 0.67 0 0.34 0 0 Z " fill="#F7F8F7" transform="translate(83,110)"/>
<path d="M0 0 C1.32 0 2.64 0 4 0 C4 3.96 4 7.92 4 12 C6.31 12 8.62 12 11 12 C11 13.32 11 14.64 11 16 C7.04 16 3.08 16 -1 16 C-1.02685095 13.52076199 -1.04676547 11.0418116 -1.0625 8.5625 C-1.07506836 7.50192383 -1.07506836 7.50192383 -1.08789062 6.41992188 C-1.09653588 4.61306441 -1.05220011 2.80612397 -1 1 C-0.67 0.67 -0.34 0.34 0 0 Z " fill="#FAFAFA" transform="translate(90,194)"/>
<path d="M0 0 C0.66 0 1.32 0 2 0 C2.33 1.98 2.66 3.96 3 6 C4.98 6.66 6.96 7.32 9 8 C7.625 9.5 7.625 9.5 6 11 C5.34 11 4.68 11 4 11 C3.34 12.98 2.68 14.96 2 17 C1.34 17 0.68 17 0 17 C-0.4125 16.05125 -0.825 15.1025 -1.25 14.125 C-3.0040131 10.99283376 -3.70851757 10.13499394 -7 9 C-7 8.34 -7 7.68 -7 7 C-5.824375 6.6596875 -5.824375 6.6596875 -4.625 6.3125 C-1.78125 5.21875 -1.78125 5.21875 -0.6875 2.375 C-0.460625 1.59125 -0.23375 0.8075 0 0 Z " fill="#F9F9F9" transform="translate(156,3)"/>
<path d="M0 0 C0.33 0 0.66 0 1 0 C1.02527062 6.39037231 1.04283317 12.78073183 1.05493164 19.17114258 C1.05997308 21.34692873 1.06680607 23.52271147 1.07543945 25.69848633 C1.08751338 28.81853067 1.09323005 31.93853038 1.09765625 35.05859375 C1.10281754 36.03775253 1.10797882 37.01691132 1.11329651 38.02574158 C1.11337204 38.92659988 1.11344757 39.82745819 1.11352539 40.75561523 C1.115746 41.55281479 1.11796661 42.35001434 1.12025452 43.17137146 C1 45 1 45 0 46 C-1.85287502 46.07226502 -3.70833878 46.0838122 -5.5625 46.0625 C-6.57441406 46.05347656 -7.58632813 46.04445312 -8.62890625 46.03515625 C-9.80259766 46.01775391 -9.80259766 46.01775391 -11 46 C-11.33 44.68 -11.66 43.36 -12 42 C-11.67 42.66 -11.34 43.32 -11 44 C-7.7 44 -4.4 44 -1 44 C-1.00523682 43.0934668 -1.01047363 42.18693359 -1.01586914 41.25292969 C-1.0330963 37.83104798 -1.04553905 34.40921357 -1.05493164 30.98730469 C-1.05990456 29.51724512 -1.06668527 28.04719035 -1.07543945 26.57714844 C-1.12707848 17.67093501 -0.9431858 8.86828584 0 0 Z " fill="#E7E7E7" transform="translate(562,133)"/>
<path d="M0 0 C0.99 0 1.98 0 3 0 C2.67 0.99 2.34 1.98 2 3 C1.88764839 4.33451263 1.82424351 5.67354389 1.79467773 7.01245117 C1.77473251 7.81305466 1.75478729 8.61365814 1.73423767 9.43852234 C1.71752518 10.29798965 1.70081268 11.15745697 1.68359375 12.04296875 C1.66281265 12.9265657 1.64203156 13.81016266 1.62062073 14.72053528 C1.55524246 17.54277785 1.49629472 20.36511335 1.4375 23.1875 C1.39430363 25.10092106 1.35068898 27.01433273 1.30664062 28.92773438 C1.19957305 33.61839437 1.09827248 38.30914783 1 43 C0.34 43 -0.32 43 -1 43 C-1.02464574 37.03686834 -1.042834 31.07376605 -1.05493164 25.1105957 C-1.05997278 23.08031702 -1.06680557 21.05004198 -1.07543945 19.01977539 C-1.08751467 16.10822653 -1.09323034 13.1967255 -1.09765625 10.28515625 C-1.10281754 9.3716188 -1.10797882 8.45808136 -1.11329651 7.51686096 C-1.11349168 5.34424573 -1.06211805 3.17172704 -1 1 C-0.67 0.67 -0.34 0.34 0 0 Z " fill="#CECECE" transform="translate(362,114)"/>
<path d="M0 0 C0.33 0 0.66 0 1 0 C1.02464638 5.82071622 1.0428343 11.64140234 1.05493164 17.4621582 C1.05997267 19.44393441 1.06680538 21.42570689 1.07543945 23.4074707 C1.08751515 26.24952109 1.09323045 29.09152247 1.09765625 31.93359375 C1.10281754 32.82525742 1.10797882 33.71692108 1.11329651 34.63560486 C1.11349177 36.75740601 1.0621003 38.8791078 1 41 C0 42 0 42 -2.50390625 42.09765625 C-6.75195312 42.04882812 -6.75195312 42.04882812 -11 42 C-11 37.38 -11 32.76 -11 28 C-10.67 28 -10.34 28 -10 28 C-9.80426392 29.43640171 -9.61872184 30.87419504 -9.4375 32.3125 C-9.33308594 33.11300781 -9.22867188 33.91351563 -9.12109375 34.73828125 C-9 37 -9 37 -10 40 C-7.03 40 -4.06 40 -1 40 C-0.67 26.8 -0.34 13.6 0 0 Z " fill="#DEDEDE" transform="translate(644,137)"/>
<path d="M0 0 C1.65 0 3.3 0 5 0 C5 5.28 5 10.56 5 16 C3.35 16 1.7 16 0 16 C0 10.72 0 5.44 0 0 Z " fill="#F8F8F8" transform="translate(166,194)"/>
<path d="M0 0 C2.625 0.25 2.625 0.25 4.5 1.375 C6.17790631 4.17151052 5.37375648 6.18690532 4.625 9.25 C2.375 9.9375 2.375 9.9375 -0.375 10.25 C-2.6875 8.8125 -2.6875 8.8125 -4.375 7.25 C-3.34769625 0.35238908 -3.34769625 0.35238908 0 0 Z " fill="#FBFBFB" transform="translate(123.375,8.75)"/>
<path d="M0 0 C2.875 -0.125 2.875 -0.125 6 0 C8 2 8 2 8.1875 5.0625 C8 8 8 8 7 9 C1.58823529 9.47058824 1.58823529 9.47058824 -0.875 7.5 C-1.24625 7.005 -1.6175 6.51 -2 6 C-1.34 4.02 -0.68 2.04 0 0 Z " fill="#FAFBFB" transform="translate(76,29)"/>
<path d="M0 0 C0 0.66 0 1.32 0 2 C-0.92941406 2.30292969 -1.85882813 2.60585938 -2.81640625 2.91796875 C-11.19718504 5.75817011 -17.70821914 8.57830036 -24 15 C-24.33 13.68 -24.66 12.36 -25 11 C-17.7620882 5.2993438 -9.53292167 0 0 0 Z " fill="#EEEFEF" transform="translate(91,43)"/>
<path d="M0 0 C0.66 0.33 1.32 0.66 2 1 C2 2.98 2 4.96 2 7 C1.34 5.68 0.68 4.36 0 3 C-0.51949219 3.40992188 -1.03898437 3.81984375 -1.57421875 4.2421875 C-2.27160156 4.78101563 -2.96898437 5.31984375 -3.6875 5.875 C-4.37199219 6.40867188 -5.05648438 6.94234375 -5.76171875 7.4921875 C-10.69793116 10.8174545 -15.07752893 11.33970507 -20.9375 11.3125 C-21.97293945 11.33666992 -21.97293945 11.33666992 -23.02929688 11.36132812 C-27.76546938 11.36581739 -31.00674439 10.54116266 -35 8 C-35.66 7.01 -36.32 6.02 -37 5 C-36.443125 5.28875 -35.88625 5.5775 -35.3125 5.875 C-27.52102508 9.66544726 -19.02746605 10.65389777 -10.625 7.875 C-6.47518693 6.04731637 -3.23589107 3.12465731 0 0 Z " fill="#CECECE" transform="translate(404,168)"/>
<path d="M0 0 C-0.78503906 0.54527344 -1.57007813 1.09054688 -2.37890625 1.65234375 C-9.07882747 6.46148966 -14.34579223 11.06785251 -19 18 C-19.66 17.67 -20.32 17.34 -21 17 C-16.73867732 8.83246485 -12.39737934 3.69868967 -4.125 -0.4375 C-2 -1 -2 -1 0 0 Z " fill="#EFF1F0" transform="translate(158,105)"/>
<path d="M0 0 C1.86703552 4.85893094 -0.48977608 8.51675169 -2.4765625 13.01171875 C-5.19879829 18.35148895 -7.79175266 22.05945021 -13.375 24.4375 C-14.24125 24.623125 -15.1075 24.80875 -16 25 C-16 24.34 -16 23.68 -16 23 C-14.01648826 21.37068679 -11.92888129 19.95123288 -9.8125 18.5 C-7.71796426 17.03596546 -7.71796426 17.03596546 -7 14 C-6.34 14 -5.68 14 -5 14 C-4.80664062 13.24074219 -4.61328125 12.48148438 -4.4140625 11.69921875 C-4.15367187 10.70535156 -3.89328125 9.71148437 -3.625 8.6875 C-3.36976563 7.70136719 -3.11453125 6.71523437 -2.8515625 5.69921875 C-2 3 -2 3 0 0 Z " fill="#D5D5D5" transform="translate(690,176)"/>
<path d="M0 0 C5.2001542 0.895776 8.43521482 4.30682213 12 8 C14.0625 11.25 14.0625 11.25 15 14 C14.67 14.99 14.34 15.98 14 17 C13.57589844 16.40832031 13.15179688 15.81664063 12.71484375 15.20703125 C9.79785551 11.27711082 7.17062114 7.84977423 3.0625 5.125 C2.051875 4.42375 1.04125 3.7225 0 3 C0 2.01 0 1.02 0 0 Z " fill="#F3F4F3" transform="translate(113,101)"/>
<path d="M0 0 C0.66 0 1.32 0 2 0 C2.02688151 1.64574566 2.04634123 3.29161413 2.0625 4.9375 C2.07410156 5.85402344 2.08570313 6.77054688 2.09765625 7.71484375 C2 10 2 10 1 11 C-6.05893948 11.3524287 -13.02188603 11.09460611 -20 10 C-20 9.67 -20 9.34 -20 9 C-13.4 9 -6.8 9 0 9 C0 6.03 0 3.06 0 0 Z " fill="#CFCFCF" transform="translate(780,168)"/>
<path d="M0 0 C0.433125 0.474375 0.86625 0.94875 1.3125 1.4375 C3.02309613 3.23686957 3.02309613 3.23686957 6 4 C6 4.66 6 5.32 6 6 C4.68 6.33 3.36 6.66 2 7 C1.67 8.32 1.34 9.64 1 11 C0.566875 10.360625 0.13375 9.72125 -0.3125 9.0625 C-1.91239177 6.73253997 -1.91239177 6.73253997 -5 6 C-5 5.34 -5 4.68 -5 4 C-4.360625 3.71125 -3.72125 3.4225 -3.0625 3.125 C-0.84793921 2.17176549 -0.84793921 2.17176549 0 0 Z " fill="#F5F5F5" transform="translate(137,88)"/>
<path d="M0 0 C1.65 0 3.3 0 5 0 C5.66 1.65 6.32 3.3 7 5 C6.34 5.66 5.68 6.32 5 7 C2.375 6.625 2.375 6.625 0 6 C-1.125 2.25 -1.125 2.25 0 0 Z " fill="#F9F9F9" transform="translate(184,23)"/>
<path d="M0 0 C-6.20918975 3.24571282 -12.05829437 3.66944259 -19 4 C-19.33 3.34 -19.66 2.68 -20 2 C-17.13058936 1.04352979 -15.57398288 0.94675494 -12.625 1.0625 C-7.97816208 1.13793568 -4.28100498 -1.42700166 0 0 Z " fill="#D4D4D4" transform="translate(872,176)"/>
<path d="M0 0 C1.051875 0.01160156 1.051875 0.01160156 2.125 0.0234375 C2.82625 0.01570313 3.5275 0.00796875 4.25 0 C6.125 0.3984375 6.125 0.3984375 8.125 3.3984375 C6.145 4.3884375 6.145 4.3884375 4.125 5.3984375 C4.125 4.7384375 4.125 4.0784375 4.125 3.3984375 C3.25875 3.676875 3.25875 3.676875 2.375 3.9609375 C-0.08192525 4.43867296 -1.51897534 4.15573114 -3.875 3.3984375 C-1.875 0.3984375 -1.875 0.3984375 0 0 Z " fill="#BABABA" transform="translate(864.875,112.6015625)"/>
<path d="M0 0 C0.33 0 0.66 0 1 0 C1.375 2.1875 1.375 2.1875 1 5 C-2.01940914 8.01940914 -4.64122922 10.49706491 -9 11 C-9 10.34 -9 9.68 -9 9 C-7.01648826 7.37068679 -4.92888129 5.95123288 -2.8125 4.5 C-0.71796426 3.03596546 -0.71796426 3.03596546 0 0 Z " fill="#CECECE" transform="translate(683,190)"/>
<path d="M0 0 C2 2 2 2 2.265625 4.3125 C2.25789062 5.6428125 2.25789062 5.6428125 2.25 7 C2.25515625 7.886875 2.2603125 8.77375 2.265625 9.6875 C2 12 2 12 0 14 C-0.19393875 11.85473901 -0.37998676 9.70876323 -0.5625 7.5625 C-0.71912109 5.77005859 -0.71912109 5.77005859 -0.87890625 3.94140625 C-0.91886719 2.97074219 -0.95882812 2.00007812 -1 1 C-0.67 0.67 -0.34 0.34 0 0 Z " fill="#DBDBDB" transform="translate(889,131)"/>
<path d="M0 0 C4.0042343 3.49087093 5.62671065 5.64951939 6 11 C5.34 11 4.68 11 4 11 C2.50859979 7.37802806 1.2125738 3.72433382 0 0 Z " fill="#D3D3D3" transform="translate(884,119)"/>
<path d="M0 0 C1.58409994 0.11487748 3.16728963 0.24234508 4.75 0.375 C6.07257813 0.47941406 6.07257813 0.47941406 7.421875 0.5859375 C9.99066382 0.99850055 11.75841015 1.71160957 14 3 C8.87160006 4.81975482 4.82315618 2.8599099 0 1 C0 0.67 0 0.34 0 0 Z " fill="#EFEFEF" transform="translate(83,110)"/>
<path d="M0 0 C1.32 0 2.64 0 4 0 C4.33 0.99 4.66 1.98 5 3 C4.67 3.66 4.34 4.32 4 5 C2.35 5 0.7 5 -1 5 C-0.67 3.35 -0.34 1.7 0 0 Z " fill="#F7F7F7" transform="translate(175,96)"/>
<path d="M0 0 C0.66 0.99 1.32 1.98 2 3 C1.5390625 5.04296875 1.5390625 5.04296875 0.625 7.1875 C0.32851563 7.90292969 0.03203125 8.61835937 -0.2734375 9.35546875 C-0.51320313 9.89816406 -0.75296875 10.44085938 -1 11 C-1.66 10.67 -2.32 10.34 -3 10 C-3.36629408 5.72656908 -2.40814077 3.51187196 0 0 Z " fill="#D0D0D0" transform="translate(712,116)"/>
<path d="M0 0 C0 0.66 0 1.32 0 2 C-3.3 2.66 -6.6 3.32 -10 4 C-10.33 3.34 -10.66 2.68 -11 2 C-3.375 0 -3.375 0 0 0 Z " fill="#EDEDED" transform="translate(181,106)"/>
<path d="M0 0 C0.66 0.66 1.32 1.32 2 2 C1.01 4.64 0.02 7.28 -1 10 C-2.1875 8.375 -2.1875 8.375 -3 6 C-1.625 2.75 -1.625 2.75 0 0 Z " fill="#D9D9D9" transform="translate(697,157)"/>
<path d="M0 0 C0.99 0.33 1.98 0.66 3 1 C4.1875 4.0625 4.1875 4.0625 5 7 C4.01 7 3.02 7 2 7 C0.5393715 4.35261084 0 3.10551666 0 0 Z " fill="#CECECE" transform="translate(676,146)"/>
<path d="M0 0 C0.99 0.33 1.98 0.66 3 1 C3 2.98 3 4.96 3 7 C2.01 6.34 1.02 5.68 0 5 C-0.1875 2.375 -0.1875 2.375 0 0 Z " fill="#D6D6D6" transform="translate(845,157)"/>
<path d="M0 0 C3 4 3 4 3.07421875 6.359375 C2.94660156 7.14828125 2.81898438 7.9371875 2.6875 8.75 C2.50767578 9.94882813 2.50767578 9.94882813 2.32421875 11.171875 C2.21722656 11.77515625 2.11023438 12.3784375 2 13 C1.67 13 1.34 13 1 13 C0.67 8.71 0.34 4.42 0 0 Z " fill="#CDCDCD" transform="translate(331,121)"/>
</svg>
