<?xml version="1.0" standalone="no"?>
<!DOCTYPE svg PUBLIC "-//W3C//DTD SVG 20010904//EN"
 "http://www.w3.org/TR/2001/REC-SVG-20010904/DTD/svg10.dtd">
<svg version="1.0" xmlns="http://www.w3.org/2000/svg"
 width="1024.000000pt" height="1024.000000pt" viewBox="0 0 1024.000000 1024.000000"
 preserveAspectRatio="xMidYMid meet">
<metadata>
Created by potrace 1.16, written by Peter Selinger 2001-2019
</metadata>
<g transform="translate(0.000000,1024.000000) scale(0.100000,-0.100000)"
fill="#000000" stroke="none">
<path d="M6080 9041 c0 -7 -4 -10 -8 -7 -4 2 -7 -8 -6 -22 1 -15 -2 -32 -7
-37 -4 -6 -9 -22 -11 -35 -5 -30 -48 -130 -57 -131 -8 -1 -28 -6 -86 -23 -27
-8 -60 -18 -73 -22 -19 -5 -21 -3 -16 12 5 16 4 16 -5 4 -6 -8 -11 -20 -11
-27 0 -12 96 -63 118 -63 7 0 12 -4 12 -9 0 -5 10 -13 23 -17 32 -10 58 -34
75 -74 9 -19 16 -38 16 -42 1 -3 4 -10 9 -14 4 -4 7 -20 7 -35 0 -15 5 -31 10
-34 6 -4 8 -10 5 -14 -2 -5 2 -17 10 -27 13 -18 14 -17 28 16 8 19 27 72 43
118 15 45 29 80 32 77 3 -2 13 5 23 17 11 11 19 18 19 15 0 -4 24 6 53 22 29
16 67 31 83 35 35 8 43 38 10 35 -12 -1 -28 1 -36 4 -8 4 -25 8 -37 10 -11 2
-29 9 -39 17 -10 8 -15 10 -11 3 4 -6 -10 -3 -31 7 -45 22 -66 50 -76 100 -4
19 -15 53 -25 75 -11 22 -18 43 -15 46 2 4 -3 12 -11 19 -11 9 -15 9 -15 1z"/>
<path d="M3855 8788 c-4 -18 -12 -38 -17 -45 -5 -7 -7 -16 -4 -21 3 -5 -6 -32
-20 -59 -28 -57 -43 -64 -155 -68 -72 -3 -109 -11 -109 -25 0 -5 18 -20 40
-32 22 -13 43 -31 46 -40 3 -10 8 -17 12 -16 19 4 62 -27 62 -45 0 -14 -3 -17
-12 -9 -10 8 -13 1 -15 -31 l-1 -40 15 31 c9 18 20 32 25 32 5 0 6 6 2 13 -5
9 -4 9 5 1 9 -9 10 -17 2 -30 -8 -15 -37 -103 -47 -146 -1 -5 -3 -11 -4 -15
-1 -5 -2 -12 -1 -17 1 -4 -3 -13 -8 -20 -6 -7 -6 -17 0 -26 6 -10 11 -12 17
-4 4 6 27 24 52 39 25 15 47 31 50 34 10 13 66 45 83 48 9 2 17 -2 17 -7 0 -6
4 -10 10 -10 20 0 150 -94 150 -109 0 -14 2 -14 15 0 14 14 14 23 -5 90 -48
168 -48 158 -14 188 51 44 105 85 130 99 58 31 17 49 -126 52 -36 1 -71 2 -77
3 -7 0 -13 5 -13 11 0 6 -12 42 -26 81 -15 38 -31 82 -36 98 -14 37 -35 34
-43 -5z"/>
<path d="M4819 8816 c-4 -5 -37 -13 -61 -15 -12 -2 -68 -66 -68 -78 0 -7 -4
-13 -8 -13 -10 0 -12 -8 -16 -63 -2 -22 -9 -42 -16 -47 -8 -5 -9 -9 -1 -14 6
-4 11 -1 11 6 0 7 6 4 12 -7 6 -10 25 -31 41 -46 16 -15 26 -32 23 -38 -5 -7
-1 -8 10 -4 10 3 15 2 12 -3 -3 -5 21 -10 56 -11 50 -2 70 2 111 25 27 15 49
32 48 37 -1 6 5 18 14 27 9 10 16 30 16 45 0 42 -7 93 -13 93 -3 0 -16 18 -29
40 -13 21 -33 42 -45 45 -61 20 -91 26 -97 21z"/>
<path d="M7174 8280 c-35 -17 -44 -29 -57 -71 -15 -45 -15 -54 -2 -86 8 -19
24 -37 35 -40 12 -3 19 -11 17 -17 -4 -10 43 -14 90 -8 20 3 83 63 83 79 0 8
4 12 9 9 11 -7 -1 48 -19 86 -27 58 -94 79 -156 48z"/>
<path d="M5060 8240 c-19 -5 -38 -6 -43 -3 -4 2 -14 0 -20 -6 -7 -5 -22 -10
-32 -10 -11 0 -47 -7 -80 -16 -33 -9 -67 -18 -75 -20 -8 -2 -17 -4 -20 -5 -3
-1 -8 -2 -12 -1 -4 0 -22 -9 -40 -22 -19 -12 -54 -31 -78 -42 -25 -11 -48 -23
-51 -28 -4 -5 -18 -10 -31 -10 -14 -1 -24 -6 -22 -12 2 -5 -13 -21 -33 -35
-71 -47 -149 -122 -200 -192 -29 -40 -71 -63 -59 -33 2 6 -2 12 -10 12 -16 0
-19 -13 -4 -22 6 -4 7 -12 3 -18 -4 -7 0 -6 10 2 9 7 17 9 17 3 0 -5 -7 -15
-15 -22 -8 -7 -21 -25 -30 -41 -8 -16 -21 -41 -29 -56 -15 -29 -55 -120 -56
-128 0 -3 -8 -24 -16 -47 -15 -42 -22 -64 -23 -81 -1 -5 -6 -5 -12 -1 -8 4 -8
0 0 -15 8 -14 9 -27 2 -40 -6 -10 -8 -21 -5 -24 9 -9 -6 -67 -17 -67 -6 0 -19
-9 -31 -20 -12 -11 -34 -26 -50 -32 -15 -7 -28 -16 -28 -20 0 -5 -7 -8 -15 -8
-8 0 -15 -4 -15 -10 0 -5 -6 -10 -14 -10 -8 0 -16 -3 -18 -7 -8 -18 -129 -104
-138 -98 -5 3 -10 0 -10 -8 0 -7 -30 -39 -67 -71 -101 -85 -152 -138 -208
-213 -27 -37 -53 -69 -57 -71 -5 -2 -8 -10 -8 -18 0 -8 -7 -28 -15 -45 -21
-40 -35 -155 -21 -169 8 -8 6 -15 -6 -24 -10 -7 -18 -19 -18 -27 0 -12 2 -12
9 0 5 7 11 9 13 5 3 -5 3 -3 2 4 -2 6 1 12 6 12 6 0 11 -4 11 -10 1 -5 2 -14
3 -19 3 -22 77 -78 114 -86 9 -2 51 -11 92 -20 41 -9 77 -21 81 -27 4 -7 9 -7
13 1 10 16 208 15 225 -1 11 -10 13 -10 7 0 -5 7 0 12 11 13 10 1 28 3 41 4
12 1 25 -2 28 -7 4 -6 10 -5 14 3 5 7 21 14 37 15 15 1 47 7 71 13 23 7 47 9
52 6 5 -3 11 -1 14 3 5 8 36 13 108 16 14 0 24 4 21 9 -5 8 10 15 42 20 11 1
26 6 33 11 11 7 12 4 3 -13 -8 -14 -8 -21 -1 -21 5 0 10 5 10 11 0 5 5 7 10 4
8 -5 8 -11 0 -20 -9 -11 -7 -12 7 -9 21 6 86 -44 76 -59 -3 -6 -1 -7 5 -3 15
9 55 -18 44 -29 -4 -5 -1 -5 6 -1 8 5 22 0 35 -12 31 -27 159 -90 199 -97 17
-3 46 -12 63 -20 16 -8 41 -17 55 -19 14 -3 27 -5 30 -6 3 -2 9 -2 14 -1 5 1
16 -1 25 -5 62 -25 343 -16 423 15 18 7 29 6 38 -2 10 -9 11 -9 6 1 -4 6 -3
12 3 12 5 0 20 4 33 9 13 5 26 8 29 7 3 0 12 4 20 11 22 18 100 42 118 36 12
-4 13 -3 3 5 -10 7 -5 13 20 25 18 9 47 27 63 41 18 16 37 24 47 20 13 -4 16
-1 12 10 -3 8 2 19 14 25 59 31 232 209 232 238 0 7 5 13 10 13 6 0 10 7 10
15 0 8 4 15 8 15 8 0 60 96 61 113 0 4 7 15 16 23 8 9 15 26 15 40 0 13 5 24
10 24 6 0 9 3 9 8 -1 4 0 10 1 15 1 4 4 12 5 17 1 6 4 12 5 15 1 3 4 10 5 15
1 6 3 11 5 13 1 1 4 16 6 32 3 17 10 46 16 65 7 19 13 42 14 50 1 8 4 24 7 35
9 35 9 40 8 65 l-2 25 -14 -26 c-14 -25 -41 -44 -57 -41 -5 1 -8 -4 -8 -10 0
-9 -4 -8 -10 2 -8 13 -10 13 -10 -1 0 -10 -17 -24 -42 -34 -24 -9 -53 -26 -65
-37 -12 -11 -26 -17 -32 -14 -5 4 -13 0 -18 -7 -8 -14 -126 -80 -149 -83 -8
-1 -10 4 -6 14 5 15 3 15 -11 4 -9 -8 -13 -20 -10 -29 4 -11 2 -14 -5 -9 -7 4
-12 2 -12 -4 0 -6 -4 -8 -10 -5 -5 3 -10 1 -10 -5 0 -6 -4 -9 -9 -6 -5 3 -14
-1 -21 -9 -7 -8 -16 -12 -21 -9 -5 3 -9 0 -9 -6 0 -6 -4 -8 -10 -5 -5 3 -10 1
-10 -4 0 -6 -9 -11 -19 -11 -11 0 -23 -5 -26 -10 -5 -8 -12 -7 -23 2 -12 10
-14 10 -8 1 4 -7 3 -13 -3 -13 -5 0 -17 -7 -25 -16 -9 -8 -25 -16 -36 -17 -11
-1 -20 -5 -20 -9 0 -4 -7 -5 -15 -2 -8 4 -15 1 -15 -6 0 -10 -3 -10 -15 0 -13
11 -14 10 -9 -4 4 -9 3 -16 -2 -15 -5 1 -18 -1 -29 -6 -182 -70 -275 -98 -200
-61 183 91 286 138 292 133 3 -4 14 3 24 14 9 11 20 20 23 21 18 0 46 11 46
18 0 4 32 22 72 39 39 18 90 45 112 61 23 15 62 38 89 50 26 12 47 26 47 32 0
5 5 6 10 3 6 -3 10 -1 10 4 0 6 6 11 13 11 7 0 44 22 82 48 39 27 75 49 80 50
6 1 17 8 27 16 9 8 19 12 22 9 3 -4 6 -1 6 5 0 7 6 12 13 12 7 0 23 10 37 23
30 27 170 129 170 123 0 -2 16 12 36 31 21 19 43 32 51 29 8 -3 12 -2 8 3 -3
5 9 20 27 33 39 27 246 234 267 265 12 18 18 20 30 10 14 -10 14 -10 3 5 -11
13 -11 21 -1 40 7 13 15 25 18 28 8 7 31 66 41 107 4 17 4 50 0 72 -7 40 -47
111 -63 111 -4 0 -21 10 -37 21 -16 12 -62 28 -102 36 -76 14 -336 20 -398 8
-19 -4 -62 -9 -94 -11 -33 -2 -62 -8 -66 -14 -3 -5 -14 -9 -25 -9 -11 0 -36
-4 -55 -9 -19 -5 -47 -8 -62 -8 -16 1 -28 -2 -28 -5 0 -8 -51 -27 -85 -32 -11
-1 -26 -6 -34 -11 -8 -5 -16 -3 -22 5 -5 8 -9 10 -9 5 0 -5 -7 -3 -15 4 -9 7
-14 19 -11 25 3 8 -2 11 -15 8 -10 -3 -19 0 -19 6 0 6 -5 11 -10 11 -10 0 -69
38 -80 51 -3 4 -15 9 -28 13 -12 4 -20 12 -16 17 3 6 -5 8 -18 5 -13 -2 -39 3
-58 12 -19 8 -38 14 -42 14 -5 -1 -8 2 -8 7 0 8 -27 15 -105 28 -16 3 -33 10
-36 15 -4 7 -9 6 -13 -1 -4 -6 -13 -8 -19 -4 -7 5 -28 9 -47 11 -118 9 -210
10 -240 2z m1431 -318 c15 -6 30 -8 33 -5 3 4 6 1 6 -6 0 -7 5 -9 12 -5 8 5 9
2 5 -9 -3 -9 -3 -16 1 -16 18 3 32 -2 32 -12 0 -5 -4 -7 -10 -4 -5 3 -10 1
-10 -5 0 -7 8 -9 19 -5 24 7 31 -11 25 -64 -7 -59 -31 -110 -69 -147 -18 -18
-31 -35 -28 -38 4 -3 -4 -6 -16 -6 -13 0 -19 -4 -16 -10 8 -14 -36 -51 -53
-45 -7 3 -11 1 -8 -4 7 -11 -33 -57 -46 -53 -5 1 -7 -1 -4 -6 6 -9 -46 -52
-63 -52 -6 0 -15 -9 -21 -20 -6 -11 -17 -20 -25 -20 -8 0 -15 -4 -15 -8 0 -8
-85 -72 -96 -72 -3 0 -18 -9 -34 -20 -15 -11 -31 -16 -35 -12 -5 4 -5 1 -1 -5
5 -9 -15 -27 -56 -53 -35 -22 -68 -40 -74 -40 -6 0 -18 -8 -27 -18 -8 -9 -42
-31 -74 -47 -32 -16 -60 -33 -63 -36 -8 -10 -75 -43 -82 -41 -5 1 -8 -2 -8 -6
0 -5 -19 -17 -42 -27 -24 -11 -55 -27 -70 -37 -15 -11 -37 -21 -48 -23 -11 -2
-49 -20 -85 -40 -38 -21 -74 -35 -85 -32 -13 3 -17 0 -13 -9 3 -9 -2 -12 -16
-9 -12 2 -19 0 -16 -4 5 -9 -104 -61 -129 -61 -9 0 -16 -4 -16 -10 0 -5 -8
-10 -18 -10 -10 0 -23 -5 -30 -12 -7 -7 -12 -8 -12 -2 0 5 -4 3 -8 -3 -4 -7
-19 -15 -32 -17 -14 -2 -27 -5 -30 -6 -3 -2 -8 -2 -12 -1 -5 0 -8 -3 -8 -9 0
-6 -3 -9 -7 -9 -5 1 -11 0 -15 -1 -5 -1 -11 -3 -15 -4 -5 -1 -18 -7 -30 -14
-13 -7 -23 -10 -23 -6 0 3 -6 1 -13 -5 -8 -6 -17 -8 -20 -4 -4 3 -7 1 -7 -5 0
-6 -6 -9 -14 -6 -8 3 -17 0 -21 -6 -5 -8 -11 -7 -23 2 -10 8 -13 9 -9 1 4 -6
3 -14 -3 -18 -5 -3 -10 0 -10 7 0 9 -3 9 -8 2 -6 -9 -27 -20 -52 -29 -3 -1
-18 -7 -33 -13 -16 -7 -32 -10 -37 -7 -5 3 -11 1 -15 -5 -4 -6 -10 -8 -15 -5
-5 3 -12 1 -15 -5 -4 -6 -15 -8 -26 -5 -11 4 -19 2 -19 -5 0 -7 -7 -10 -15 -7
-8 4 -17 2 -21 -4 -3 -6 -12 -8 -19 -5 -8 3 -16 0 -18 -7 -3 -9 -8 -8 -21 2
-15 12 -17 12 -14 0 2 -8 -4 -14 -12 -14 -8 0 -20 -3 -25 -7 -6 -4 -42 -9 -80
-13 -39 -3 -95 -12 -125 -19 -30 -7 -75 -14 -100 -16 -93 -6 -260 -1 -275 8
-5 4 -20 8 -32 10 -13 1 -43 11 -67 22 -99 42 -109 134 -29 252 36 52 187 208
203 208 4 0 15 12 25 26 9 14 19 23 22 20 4 -3 13 3 20 14 8 11 18 18 23 15 4
-3 10 2 13 9 3 8 14 19 24 24 17 9 18 4 21 -66 2 -42 8 -84 13 -94 6 -11 5
-19 -2 -23 -7 -5 -5 -11 4 -18 8 -7 18 -23 22 -36 6 -20 5 -23 -11 -17 -13 4
-11 0 6 -14 14 -11 21 -20 16 -20 -5 0 -3 -7 4 -15 7 -8 9 -15 5 -15 -4 0 -2
-6 4 -14 7 -8 14 -22 16 -32 16 -70 16 -70 6 -49 -11 23 -14 11 -5 -22 4 -13
11 -23 16 -23 5 0 7 4 3 9 -3 5 0 13 6 17 8 4 9 3 5 -4 -4 -7 -2 -12 4 -12 6
0 8 -4 5 -10 -3 -5 0 -10 7 -10 9 0 9 -3 -2 -10 -13 -8 -13 -10 1 -10 9 0 21
-11 27 -25 11 -23 16 -25 47 -19 19 3 51 12 72 19 27 9 42 10 51 3 7 -6 15 -8
19 -4 3 3 0 6 -8 7 -11 1 64 24 141 44 8 2 16 4 18 4 1 1 4 1 7 1 3 0 21 6 40
14 20 9 36 15 38 15 3 0 26 7 90 30 31 12 61 20 65 19 4 -1 17 3 30 10 12 7
22 10 22 6 0 -3 6 -1 13 5 8 6 17 8 20 4 4 -3 7 0 7 7 0 7 3 10 7 7 3 -4 12
-2 20 4 7 6 13 8 13 5 0 -4 15 1 33 10 57 30 66 34 79 34 7 0 39 13 70 29 50
25 57 27 61 13 3 -11 5 -9 6 6 0 13 6 20 11 17 6 -3 10 -1 10 4 0 6 7 11 16
11 9 0 32 9 50 20 18 12 43 23 55 25 12 3 26 10 29 16 4 6 10 10 14 9 12 -3
66 25 66 33 0 5 5 5 10 2 6 -3 10 -1 10 6 0 8 4 8 16 -1 12 -11 15 -11 12 0
-3 14 100 71 119 65 7 -2 10 2 6 12 -4 11 -2 14 5 9 7 -4 12 -3 12 3 0 5 16
15 35 22 19 7 35 16 35 20 0 4 15 12 33 20 17 7 45 23 60 36 16 13 34 23 41
23 7 0 21 9 31 20 10 11 21 17 25 15 4 -3 11 2 14 11 4 9 9 14 12 11 4 -3 14
2 24 11 10 9 36 26 56 37 21 11 49 30 62 42 14 13 28 20 33 17 5 -3 9 0 9 5 0
6 22 26 50 43 27 18 50 39 50 47 0 20 -23 85 -33 92 -5 3 -8 9 -8 13 1 3 -11
32 -25 63 -15 31 -27 63 -27 70 0 6 -7 15 -15 18 -8 3 -12 12 -9 20 4 9 1 12
-9 8 -8 -3 -14 1 -14 11 0 9 -4 16 -10 16 -5 0 -10 6 -10 13 0 7 -16 28 -35
47 -37 36 -33 50 13 50 16 0 21 -4 16 -12 -4 -8 -3 -10 2 -5 5 5 9 14 9 20 0
7 7 12 15 13 8 0 52 6 97 13 46 7 92 11 103 8 11 -3 22 -2 24 2 7 11 167 5
197 -7z m-1694 -325 c6 -5 9 -15 6 -23 -3 -8 0 -14 7 -14 6 0 8 5 5 10 -11 17
7 11 21 -7 17 -23 18 -36 2 -27 -8 4 -10 3 -5 -2 5 -5 13 -9 19 -9 24 0 16
-94 -12 -135 -9 -13 -11 -13 -21 0 -9 13 -10 12 -5 -2 3 -10 1 -18 -5 -18 -6
0 -8 -4 -5 -9 3 -5 -13 -13 -36 -19 -113 -29 -219 93 -164 188 24 41 34 52 61
68 23 13 114 13 132 -1z"/>
<path d="M3116 8069 c6 -11 -53 -32 -67 -23 -7 4 -10 3 -5 -4 3 -6 -2 -17 -11
-24 -16 -11 -40 -53 -49 -83 -15 -50 -20 -84 -13 -79 5 3 9 0 9 -5 0 -6 -4
-11 -10 -11 -5 0 -10 -7 -10 -16 0 -13 3 -14 15 -4 12 10 16 8 24 -11 5 -13 7
-27 4 -31 -2 -4 3 -5 11 -2 9 3 16 1 16 -5 0 -6 6 -11 14 -11 7 0 19 -6 26
-14 6 -8 17 -13 25 -10 7 3 16 1 19 -4 7 -11 67 0 116 21 24 10 42 28 54 54
33 67 36 90 19 139 -14 41 -51 91 -71 95 -4 1 -17 5 -30 10 -13 5 -30 9 -38 9
-8 0 -14 4 -14 9 0 6 -9 9 -19 8 -11 0 -18 -4 -15 -8z"/>
<path d="M7270 7608 c-6 -36 -69 -203 -78 -204 -7 -1 -15 -2 -19 -4 -9 -2
-110 -9 -169 -11 -38 -2 -41 -4 -42 -30 0 -16 3 -29 8 -29 5 0 6 8 3 17 -7 18
57 -25 127 -84 36 -31 51 -75 29 -89 -5 -3 -6 -10 -3 -16 4 -6 2 -13 -4 -17
-7 -4 -14 -18 -16 -31 -2 -14 -5 -25 -6 -25 -1 0 -3 -7 -5 -15 -22 -93 -19
-96 41 -50 21 16 45 30 52 30 6 0 12 3 12 8 0 4 16 18 35 31 34 23 85 24 85 1
0 -6 7 -10 15 -10 8 0 15 -3 15 -8 0 -4 16 -16 35 -26 19 -11 35 -23 35 -28 0
-4 7 -8 16 -8 10 0 14 -6 11 -14 -4 -11 -1 -13 11 -9 24 9 33 25 20 40 -6 7
-8 13 -4 13 3 0 0 15 -8 34 -8 19 -12 37 -8 40 3 3 -1 6 -8 6 -7 0 -11 3 -8 6
4 3 -1 26 -9 51 l-16 46 49 43 c27 24 55 43 62 44 6 0 12 3 12 8 0 4 14 15 31
25 44 25 32 41 -32 45 -30 2 -81 4 -114 6 -77 4 -75 4 -75 20 0 8 -5 27 -12
43 -6 15 -12 31 -13 36 -2 4 -3 8 -5 10 -2 3 -10 39 -12 60 -1 9 -6 17 -10 17
-4 0 -8 7 -8 15 0 12 -19 23 -20 13z"/>
<path d="M3565 7519 c-21 -5 -45 -7 -51 -5 -7 3 -14 2 -16 -3 -2 -4 -46 -18
-98 -31 -90 -22 -181 -52 -297 -99 -29 -11 -53 -17 -53 -13 0 4 -4 2 -8 -4 -4
-6 -36 -26 -72 -44 -99 -50 -197 -116 -260 -176 -31 -30 -60 -51 -65 -46 -5 4
-5 2 -2 -5 9 -15 -43 -93 -62 -93 -13 0 -13 -2 -2 -9 9 -6 10 -14 4 -27 -5
-11 -16 -45 -23 -77 -12 -52 -11 -66 4 -127 10 -38 16 -76 13 -84 -4 -9 -1
-13 7 -10 7 3 19 -10 28 -28 8 -19 41 -63 72 -99 53 -62 69 -88 46 -74 -5 3
-10 1 -10 -5 0 -6 10 -10 23 -8 16 2 41 -12 78 -43 148 -123 455 -286 717
-379 34 -13 62 -27 62 -33 0 -6 3 -8 6 -4 5 4 144 -41 214 -70 8 -3 20 -7 25
-9 48 -13 243 -85 390 -144 214 -86 477 -217 528 -264 21 -19 37 -31 37 -29 0
11 98 -73 152 -131 42 -45 56 -66 52 -81 -4 -14 -3 -16 4 -7 13 19 40 -17 89
-118 60 -124 66 -106 17 51 -71 229 -283 411 -690 594 -51 23 -90 46 -86 50 4
5 2 5 -4 2 -7 -4 -82 20 -168 53 -85 33 -160 60 -166 60 -5 0 -10 4 -10 9 0 5
-6 8 -12 7 -15 -1 -290 94 -298 103 -3 3 -14 8 -25 9 -11 2 -36 11 -55 19 -19
9 -44 18 -55 20 -77 15 -461 203 -585 286 -165 112 -293 252 -316 346 -2 9 -8
34 -13 55 -5 22 -8 42 -6 45 1 4 6 24 9 46 9 57 52 137 107 198 56 62 129 116
148 109 8 -2 11 0 7 6 -6 11 16 27 107 79 63 35 232 112 257 116 8 2 24 8 35
14 51 27 281 93 325 93 18 0 29 4 25 10 -7 12 -25 11 -80 -1z"/>
<path d="M7064 6709 c-5 -9 6 -17 66 -45 25 -12 65 -36 89 -54 34 -25 41 -34
30 -42 -11 -8 -10 -9 4 -4 34 11 109 -96 123 -174 4 -25 3 -31 -4 -21 -8 11
-9 4 -7 -24 5 -47 -10 -76 -70 -143 -34 -38 -52 -51 -65 -47 -10 3 -21 1 -25
-4 -4 -7 1 -8 11 -4 12 5 15 3 9 -6 -23 -39 -335 -211 -516 -285 -500 -205
-569 -234 -714 -308 -190 -97 -391 -235 -494 -342 -24 -25 -49 -42 -54 -39 -6
4 -7 1 -2 -6 4 -8 -4 -25 -23 -44 -100 -106 -222 -361 -222 -464 0 -20 -4 -32
-10 -28 -5 3 -10 -1 -10 -9 0 -36 30 1 54 68 80 219 304 487 532 639 190 125
301 181 704 354 491 210 738 346 863 473 82 84 97 109 104 178 9 78 -13 134
-78 206 -33 36 -69 68 -80 71 -11 4 -16 11 -13 18 4 7 4 9 -1 5 -8 -8 -127 50
-133 65 -2 4 -10 7 -18 7 -9 0 -13 4 -10 8 2 4 -4 8 -15 8 -11 0 -22 -4 -25
-7z"/>
<path d="M6488 6576 c-21 -8 -38 -12 -38 -9 0 5 -11 -4 -67 -52 -26 -22 -44
-48 -48 -68 -4 -18 -10 -36 -14 -42 -4 -5 -9 -21 -10 -35 -12 -111 26 -185
124 -241 31 -18 64 -29 88 -29 22 0 36 -4 32 -10 -3 -5 23 4 57 19 79 36 131
87 154 151 10 29 22 46 28 43 7 -5 7 -2 0 8 -6 8 -14 35 -17 62 -4 26 -14 62
-23 80 -20 40 -74 97 -91 97 -7 0 -13 5 -13 12 0 6 -3 9 -6 5 -3 -3 -24 1 -46
9 -49 17 -62 17 -110 0z"/>
<path d="M5342 5803 c-5 -10 -7 -24 -5 -30 3 -7 0 -13 -7 -13 -6 0 -8 -4 -5
-10 10 -16 -22 -67 -47 -75 -13 -4 -25 -8 -28 -9 -40 -18 -64 -26 -76 -26 -26
0 -10 -24 17 -25 13 -1 44 -12 67 -24 33 -17 49 -33 64 -68 11 -25 18 -54 15
-64 -3 -13 2 -23 15 -30 13 -7 18 -7 14 -1 -3 6 -1 23 5 39 7 15 13 33 13 38
3 32 31 76 52 81 13 3 24 10 24 14 0 4 16 11 35 14 36 7 50 36 18 36 -25 0
-83 23 -83 33 0 4 -4 6 -9 2 -11 -6 -43 53 -36 66 3 4 1 10 -5 14 -5 3 -10 15
-10 25 0 26 -17 34 -28 13z"/>
<path d="M3554 5744 c-23 -7 -56 -32 -79 -58 l-40 -45 -95 10 c-52 6 -103 11
-113 11 -11 -1 -15 4 -11 11 5 8 3 8 -7 0 -16 -16 -51 -17 -66 -2 -9 9 -16 8
-28 -5 -15 -14 -15 -18 -1 -31 17 -17 30 -20 21 -5 -8 13 12 13 124 -4 51 -8
98 -19 103 -24 6 -6 17 -8 24 -5 8 3 22 2 31 -1 15 -6 15 -8 3 -16 -8 -6 -10
-10 -4 -10 6 0 14 -13 17 -29 8 -38 63 -100 104 -117 72 -30 164 -3 202 60 17
27 26 34 35 26 7 -5 15 -7 19 -4 8 8 211 -56 337 -105 192 -77 412 -203 526
-304 34 -30 42 -42 32 -49 -9 -7 -7 -8 7 -4 35 8 176 -167 246 -304 17 -34 33
-60 35 -57 10 10 -58 194 -95 256 -159 268 -569 521 -1031 637 -73 18 -78 21
-83 51 -4 25 -51 89 -76 103 -41 21 -98 27 -137 14z"/>
<path d="M3003 5654 c5 -9 -43 -31 -90 -40 -7 -1 -20 -9 -29 -18 -8 -9 -19
-16 -22 -16 -13 0 -45 -88 -57 -155 -2 -11 -4 -22 -5 -25 -1 -3 -2 -8 -1 -13
0 -4 -8 -46 -20 -95 -11 -48 -20 -94 -20 -102 -1 -8 -3 -22 -6 -30 -3 -8 -7
-26 -9 -40 -2 -14 -6 -36 -10 -50 -4 -14 -6 -29 -5 -34 1 -5 -1 -16 -5 -25 -4
-9 -8 -23 -9 -31 -6 -49 -18 -106 -23 -115 -3 -5 -7 -16 -8 -25 -3 -17 -11
-57 -19 -95 -3 -14 -7 -35 -10 -47 -2 -13 -7 -36 -10 -53 -4 -16 -9 -41 -11
-55 -14 -83 -36 -195 -41 -210 -4 -8 -5 -19 -4 -23 1 -5 -4 -27 -11 -50 -7
-23 -13 -46 -14 -52 0 -5 -4 -17 -7 -25 -17 -47 -11 -91 8 -59 5 7 30 8 74 4
36 -4 93 -7 125 -6 33 0 65 -4 71 -9 6 -5 35 -9 65 -9 53 0 77 -2 165 -16 22
-3 54 -8 70 -10 17 -2 44 -6 60 -10 17 -3 39 -6 49 -6 11 0 28 -5 39 -11 11
-5 35 -10 53 -10 19 0 37 -4 40 -9 3 -5 9 -7 14 -4 4 2 28 -1 53 -9 25 -8 48
-11 51 -8 3 2 12 0 19 -6 8 -7 16 -9 19 -6 3 3 32 -4 64 -14 59 -20 121 -35
126 -32 2 1 20 -5 41 -13 20 -9 37 -13 37 -9 0 3 5 1 11 -5 6 -6 18 -9 25 -6
8 3 14 -1 14 -10 0 -8 7 -18 16 -21 14 -5 15 -4 5 8 -11 13 -7 13 26 3 21 -6
41 -15 44 -20 3 -5 9 -8 13 -8 3 1 7 1 9 0 1 0 12 -2 23 -4 12 -3 34 -10 50
-16 16 -7 35 -11 42 -10 6 1 12 -4 12 -10 0 -7 3 -10 6 -6 8 7 117 -33 126
-48 4 -5 8 -6 8 -1 0 4 11 1 25 -8 14 -9 25 -14 25 -11 0 3 15 -2 33 -12 34
-18 38 -20 63 -22 8 0 12 -6 8 -12 -4 -7 -1 -10 7 -7 8 3 43 -10 79 -28 36
-19 103 -52 150 -74 47 -22 82 -40 79 -40 -11 0 -104 33 -114 41 -6 4 -23 10
-38 13 -15 2 -32 8 -38 12 -7 4 -19 8 -28 9 -41 5 -81 18 -81 27 0 5 -4 7 -9
4 -5 -4 -22 -1 -38 6 -15 6 -31 11 -34 10 -4 -1 -56 14 -115 33 -60 19 -124
38 -142 41 -19 4 -36 13 -39 21 -4 11 -8 12 -13 3 -5 -8 -13 -9 -21 -4 -8 4
-20 9 -29 10 -18 1 -98 22 -120 31 -8 3 -22 7 -30 8 -40 5 -136 29 -145 36 -6
4 -29 10 -51 13 -61 7 -118 18 -129 24 -10 6 -33 11 -72 15 -12 1 -25 5 -29 9
-4 4 -17 5 -29 2 -13 -3 -26 -1 -29 5 -4 6 -2 11 5 11 7 0 9 3 6 6 -4 4 -13 1
-22 -6 -9 -7 -22 -9 -32 -5 -10 5 -23 7 -28 7 -6 -1 -46 5 -90 13 -121 23
-147 26 -183 25 -18 0 -37 2 -43 6 -6 3 -34 8 -62 10 -103 8 -173 15 -217 20
-25 3 -87 6 -137 7 -51 1 -93 5 -93 10 0 4 4 7 9 7 6 0 10 8 10 18 0 24 11 94
18 112 3 8 7 24 8 35 1 11 8 43 14 70 7 28 12 58 12 67 0 10 4 20 9 23 5 3 7
12 4 20 -3 8 -2 20 2 27 8 13 11 24 17 63 2 11 6 27 10 35 3 8 8 33 11 55 7
51 13 80 16 80 1 0 3 9 4 20 7 56 19 111 25 120 4 6 8 25 9 44 2 18 7 41 12
51 5 9 7 20 3 23 -3 4 0 13 6 21 7 8 10 20 7 25 -4 6 0 26 8 45 8 19 12 37 9
39 -2 3 0 14 6 25 6 11 13 37 16 58 10 71 12 79 19 100 5 18 1 24 -26 34 -59
22 -170 7 -153 -20 3 -5 0 -12 -6 -15 -5 -4 -8 -13 -5 -21 3 -8 2 -14 -2 -14
-4 0 -8 -16 -9 -36 -1 -19 -6 -41 -12 -48 -6 -7 -8 -16 -5 -19 3 -3 3 -11 -2
-18 -4 -7 -8 -27 -10 -46 -2 -18 -6 -39 -11 -46 -7 -12 -13 -40 -14 -69 0 -10
-4 -18 -10 -18 -5 0 -8 -10 -6 -22 1 -15 -3 -22 -12 -20 -11 2 -12 0 -3 -10 6
-8 7 -19 2 -28 -5 -8 -7 -17 -4 -22 4 -6 -11 -84 -23 -118 -3 -8 -7 -28 -9
-45 -2 -16 -7 -37 -10 -45 -4 -8 -8 -24 -10 -35 -2 -11 -10 -47 -19 -80 -9
-33 -16 -67 -17 -75 0 -8 -5 -20 -10 -27 -5 -7 -7 -17 -3 -23 4 -6 2 -17 -4
-24 -7 -8 -11 -18 -10 -22 1 -5 -1 -22 -6 -38 -4 -16 -9 -38 -10 -50 -1 -11
-3 -21 -5 -21 -3 0 -10 -49 -10 -72 0 -13 -5 -23 -10 -23 -5 0 -7 -7 -4 -15 3
-8 2 -20 -2 -27 -4 -6 -9 -25 -11 -42 -2 -16 -8 -34 -13 -41 -5 -7 -7 -15 -4
-18 4 -3 3 -14 -1 -24 -13 -30 -14 -112 -1 -122 14 -12 119 -30 206 -36 36 -3
92 -7 125 -10 33 -4 80 -8 105 -10 155 -13 195 -17 201 -21 5 -3 43 -7 86 -10
43 -3 82 -9 88 -12 9 -5 63 -12 105 -13 40 -1 70 -11 63 -22 -5 -9 -3 -9 8 -1
10 9 29 8 74 -1 35 -8 50 -14 35 -15 -17 -2 -19 -4 -8 -7 9 -2 25 0 35 5 11 6
37 6 68 1 28 -5 64 -11 80 -14 17 -3 41 -7 55 -9 14 -2 39 -7 55 -10 17 -3 52
-8 78 -11 26 -3 58 -10 70 -14 12 -4 28 -6 35 -4 7 3 19 0 26 -6 7 -6 20 -9
28 -6 8 3 34 -1 57 -8 23 -8 51 -13 61 -10 12 3 20 0 20 -6 0 -7 6 -11 13 -10
29 4 46 -2 43 -13 -1 -7 -1 -10 1 -5 3 4 14 7 24 7 14 0 18 -4 13 -12 -6 -9
-3 -9 9 1 10 8 23 10 34 5 19 -8 29 -11 51 -13 7 0 11 -4 9 -8 -3 -5 14 -9 36
-10 57 -2 128 -13 146 -22 9 -5 21 -6 28 -4 6 2 14 -1 18 -6 3 -6 21 -11 38
-11 18 0 39 -5 47 -10 12 -8 12 -10 1 -10 -8 0 -11 -3 -8 -6 4 -4 13 -2 20 5
14 11 24 10 65 -6 9 -4 24 -8 32 -9 8 -1 24 -5 35 -7 11 -3 40 -8 65 -12 43
-7 74 -31 63 -49 -3 -4 -2 -11 3 -15 5 -3 14 -15 20 -25 6 -11 19 -24 30 -30
10 -6 22 -15 25 -19 3 -5 9 -8 13 -8 3 1 7 1 9 0 1 0 13 -2 26 -5 14 -2 30 -9
36 -14 7 -5 14 -7 17 -4 10 9 98 -18 92 -28 -4 -6 0 -6 12 0 11 6 57 11 104
12 113 2 164 9 188 23 6 5 12 6 12 2 0 -3 14 1 30 10 17 9 30 13 30 10 0 -4 7
1 16 9 8 9 20 14 25 11 5 -4 14 5 21 19 6 14 15 26 20 26 4 0 8 7 8 15 0 8 6
15 13 15 9 0 8 3 -2 9 -11 7 -8 11 10 17 13 4 26 8 29 9 3 0 11 4 18 8 6 5 16
6 21 2 5 -3 13 0 16 6 4 5 13 8 21 5 7 -3 16 -1 19 4 3 5 13 9 23 8 24 0 69
10 120 28 24 8 47 12 52 9 5 -3 12 0 15 6 4 5 13 8 21 5 7 -3 16 -1 19 5 4 5
12 9 18 8 7 -2 31 3 55 10 23 6 47 9 52 6 5 -3 11 -1 14 4 5 7 60 19 127 26 8
1 33 6 55 10 21 5 42 8 47 7 4 -1 7 2 7 8 0 5 12 9 28 8 27 0 83 10 91 17 2 2
13 0 24 -6 14 -8 18 -8 13 0 -4 6 -1 11 6 12 7 0 22 3 33 5 50 12 72 16 95 16
14 0 30 4 35 8 6 5 20 9 30 10 31 0 68 6 91 13 11 4 43 9 70 12 27 2 85 11
129 19 44 7 87 14 95 14 8 0 26 3 40 6 14 3 52 9 85 12 33 3 74 8 90 10 17 3
50 7 75 10 25 2 68 6 95 9 28 3 82 7 120 10 80 6 121 10 186 20 30 5 54 3 69
-5 15 -8 20 -8 16 -1 -5 7 6 11 31 12 132 5 167 11 201 36 22 16 27 27 25 54
-3 51 -11 97 -17 108 -7 10 -17 66 -17 93 0 10 -5 20 -10 23 -5 4 -7 11 -3 16
3 5 1 16 -6 23 -6 8 -12 30 -14 48 -2 19 -5 39 -8 44 -3 5 -11 36 -18 69 -6
33 -15 74 -20 90 -5 17 -12 46 -14 65 -3 19 -9 52 -14 73 -6 20 -8 37 -5 37 3
0 0 7 -7 15 -7 9 -10 18 -7 22 4 3 2 12 -3 19 -6 6 -10 16 -9 20 1 5 -1 22 -6
38 -4 16 -9 36 -10 45 -1 9 -4 23 -7 31 -4 8 -9 37 -12 64 -3 27 -11 55 -17
62 -6 7 -8 18 -5 23 4 5 2 12 -3 15 -5 3 -9 24 -9 47 -1 22 -6 47 -12 54 -7 8
-9 19 -6 24 4 5 1 13 -5 16 -5 4 -8 13 -5 21 3 7 1 16 -4 19 -5 3 -9 13 -9 23
-1 24 -7 54 -15 74 -4 9 -5 22 -1 28 3 5 1 10 -5 10 -7 0 -9 8 -5 19 4 14 0
23 -14 30 -25 14 -102 14 -136 1 -24 -9 -26 -14 -21 -48 2 -20 9 -55 15 -76 5
-22 8 -43 5 -47 -2 -4 0 -11 6 -14 6 -4 8 -15 5 -26 -4 -10 -2 -19 3 -19 6 0
12 -21 15 -47 2 -27 8 -59 12 -73 4 -14 8 -36 10 -50 1 -14 3 -25 4 -25 2 0 4
-11 7 -25 2 -14 7 -36 11 -50 3 -14 5 -29 4 -34 -1 -4 3 -13 8 -20 5 -6 12
-31 16 -56 8 -54 13 -83 15 -90 1 -3 2 -9 1 -14 -1 -5 1 -16 5 -25 4 -9 8 -20
8 -26 2 -12 25 -119 34 -155 3 -14 7 -29 7 -35 1 -5 5 -17 8 -25 15 -35 25
-115 15 -121 -7 -4 -6 -8 1 -10 12 -4 21 -34 25 -81 3 -27 1 -28 -48 -29 -57
-1 -112 -6 -139 -13 -10 -2 -30 -1 -45 3 -19 6 -31 4 -40 -6 -9 -8 -32 -13
-60 -13 -58 2 -124 -6 -325 -36 -54 -8 -102 -12 -107 -9 -5 3 -11 1 -15 -5 -4
-6 -11 -7 -17 -4 -5 4 -21 1 -34 -6 -19 -11 -26 -11 -39 0 -12 10 -15 10 -13
1 2 -9 -13 -14 -46 -17 -27 -3 -57 -9 -66 -14 -10 -5 -20 -7 -23 -4 -3 3 -14
1 -25 -5 -19 -10 -79 -22 -114 -22 -10 0 -18 -4 -18 -9 0 -7 -53 -20 -100 -25
-9 0 -20 -4 -26 -8 -6 -3 -28 -9 -49 -11 -20 -3 -40 -7 -43 -10 -3 -3 -12 0
-20 7 -10 7 -13 8 -9 1 4 -7 -6 -14 -26 -19 -34 -8 -34 -8 -57 -18 -8 -4 -24
-8 -35 -10 -11 -1 -25 -5 -30 -9 -8 -5 -69 -20 -95 -23 -3 0 -10 -3 -15 -7
-17 -10 -39 8 -29 23 6 11 4 11 -10 0 -13 -11 -14 -16 -4 -22 8 -5 4 -11 -16
-18 -15 -6 -32 -9 -37 -5 -5 3 -9 0 -9 -6 0 -7 -6 -10 -14 -7 -7 3 -17 2 -22
-3 -5 -4 -32 -15 -60 -23 -39 -12 -55 -12 -64 -4 -9 9 -11 8 -8 -3 2 -8 -4
-15 -12 -15 -8 0 -17 -3 -20 -6 -6 -7 -233 -80 -237 -76 -5 5 194 107 267 136
51 21 72 25 80 17 8 -8 10 -7 5 5 -4 11 4 19 32 28 21 7 42 12 47 11 5 -1 12
2 15 7 5 8 90 46 98 44 2 0 18 6 38 14 19 8 45 17 57 19 13 3 25 6 28 7 3 1
10 3 15 4 6 1 17 5 25 8 8 3 49 16 90 27 41 12 80 26 87 32 6 5 24 11 40 13
15 2 28 4 28 5 0 1 7 3 15 5 35 9 66 16 75 19 6 1 28 8 50 14 22 6 54 13 72
15 17 3 36 8 42 11 5 4 27 9 48 11 76 9 94 12 99 18 3 3 17 2 31 -4 13 -5 22
-5 19 0 -5 8 63 27 129 36 17 2 42 7 58 11 17 4 27 2 27 -5 0 -7 9 -5 25 5 14
9 32 13 41 10 8 -3 23 -2 33 4 16 8 116 16 326 25 35 1 63 -2 68 -9 7 -9 6 10
-7 84 -1 8 -5 22 -8 30 -14 35 -16 65 -6 78 9 10 8 12 -2 10 -10 -2 -18 17
-27 62 -17 87 -24 130 -28 160 -1 14 -3 25 -5 25 -1 0 -3 9 -4 20 -2 11 -8 46
-15 77 -7 32 -11 59 -9 61 2 2 -3 11 -11 20 -7 9 -11 24 -7 32 3 8 2 15 -3 15
-8 0 -26 87 -25 123 0 9 -3 17 -6 17 -7 0 -22 75 -26 125 0 11 -2 25 -4 30 -2
6 -4 15 -5 20 -1 6 -5 17 -8 25 -11 28 -27 123 -22 128 3 3 0 11 -6 18 -6 8
-9 20 -6 29 4 8 2 17 -4 21 -5 3 -9 13 -8 22 1 10 -1 24 -4 32 -4 8 -9 29 -11
45 -1 17 -11 48 -20 70 -13 33 -25 43 -64 59 -26 10 -53 26 -59 34 -8 10 -13
11 -13 4 0 -7 -5 -12 -11 -12 -5 0 -8 4 -5 9 3 5 -5 9 -19 9 -21 0 -22 -2 -9
-15 7 -8 14 -30 14 -49 0 -20 5 -44 10 -54 6 -11 13 -47 16 -82 4 -35 10 -67
15 -73 4 -5 10 -30 13 -55 3 -25 16 -99 30 -165 14 -66 27 -136 29 -155 2 -19
7 -42 11 -51 4 -9 6 -20 5 -25 -1 -5 0 -11 1 -14 1 -3 3 -14 5 -25 3 -11 7
-32 10 -47 3 -16 7 -39 9 -52 2 -14 7 -29 10 -35 9 -14 -4 -42 -17 -34 -6 3
-7 1 -3 -6 4 -6 11 -9 16 -6 13 8 18 -6 25 -75 4 -35 13 -80 20 -99 7 -20 16
-47 19 -61 5 -24 3 -25 -42 -27 -106 -3 -368 -35 -474 -58 -14 -4 -29 -1 -33
4 -3 6 -12 11 -18 11 -7 0 -7 -4 2 -9 12 -8 10 -11 -10 -14 -13 -3 -87 -20
-164 -38 -77 -19 -144 -34 -150 -35 -5 -1 -12 -3 -15 -4 -3 -1 -16 -3 -30 -6
-14 -2 -34 -8 -45 -14 -36 -17 -195 -69 -195 -63 0 3 -10 -1 -22 -9 -13 -8
-45 -23 -73 -33 -27 -10 -96 -40 -151 -66 -77 -36 -105 -44 -114 -36 -8 9 -10
8 -5 -3 4 -11 -8 -22 -42 -39 -53 -25 -244 -138 -309 -182 -32 -22 -44 -25
-53 -16 -10 9 -11 9 -6 -3 4 -11 -15 -31 -62 -65 -37 -28 -71 -49 -75 -47 -5
1 -8 -2 -8 -6 0 -5 -30 -33 -67 -63 -38 -30 -76 -64 -87 -77 -10 -13 -21 -21
-23 -18 -3 3 -13 -3 -22 -14 -9 -10 -26 -21 -39 -25 -18 -5 -25 -2 -29 14 -3
12 -13 21 -24 21 -10 0 -22 6 -26 14 -4 8 -51 49 -103 91 -52 41 -106 85 -120
97 -14 12 -28 22 -31 21 -3 -1 -20 11 -38 28 -18 16 -35 29 -38 29 -7 0 -136
80 -143 89 -7 8 -145 82 -250 134 -47 23 -87 45 -88 49 -2 5 -8 6 -13 2 -5 -3
-9 -1 -9 4 0 5 -6 9 -12 9 -7 0 -56 18 -108 40 -110 47 -133 56 -140 57 -3 1
-10 4 -15 8 -6 3 -38 14 -73 22 -34 9 -75 21 -90 27 -15 6 -28 10 -29 10 -2 0
-22 7 -45 15 -49 17 -125 35 -150 35 -10 0 -20 4 -23 9 -3 5 -12 7 -19 4 -8
-3 -17 -1 -20 5 -4 6 -13 8 -21 5 -8 -3 -20 -2 -27 2 -6 4 -21 9 -32 10 -60 7
-113 15 -126 21 -18 6 -64 12 -102 13 -15 0 -30 4 -33 10 -4 6 -9 8 -13 6 -4
-2 -41 0 -82 5 -41 5 -97 11 -123 13 -31 3 -53 10 -63 23 -10 13 -14 14 -12 3
2 -11 -7 -15 -35 -16 -31 -1 -37 2 -32 15 4 9 8 25 9 37 2 11 6 25 9 30 3 6 8
28 11 49 5 38 7 50 20 105 3 14 8 43 11 65 7 48 11 71 20 105 6 24 13 62 19
106 2 11 5 25 9 30 3 5 8 36 12 68 3 33 10 67 16 77 5 10 8 22 7 26 -3 14 14
118 22 128 4 6 15 60 24 120 9 61 24 138 33 173 13 51 13 66 3 75 -8 7 -11 8
-7 1z"/>
<path d="M6835 5512 c-47 -10 -81 -65 -65 -106 6 -16 5 -27 -3 -36 -9 -9 -9
-11 3 -9 8 1 28 -3 44 -10 35 -14 91 1 106 29 35 65 -18 146 -85 132z"/>
<path d="M5992 5155 c-105 -43 -145 -65 -227 -123 -103 -73 -217 -191 -289
-301 -55 -82 -126 -216 -126 -235 0 -16 16 -3 28 22 16 35 56 85 48 59 -4 -11
-2 -16 5 -12 6 4 8 14 5 22 -7 18 33 75 47 66 6 -3 7 -1 3 6 -9 14 119 167
206 246 102 93 251 200 332 241 42 20 76 38 76 39 0 9 -44 -4 -108 -30z"/>
<path d="M3666 5152 c-10 -16 10 -27 54 -28 77 -2 485 -154 485 -181 0 -6 4
-15 9 -20 5 -5 6 -3 2 5 -4 6 -2 12 4 12 20 0 174 -95 262 -161 86 -64 288
-262 288 -281 0 -6 -9 -3 -20 7 -11 10 -20 13 -20 8 0 -11 29 -27 42 -25 11 2
79 -98 73 -108 -3 -6 -1 -18 5 -27 9 -15 10 -14 5 7 l-6 25 20 -25 c42 -52
151 -278 177 -368 2 -7 8 -11 13 -7 6 3 4 24 -5 53 -8 26 -25 85 -38 132 -12
47 -37 118 -54 159 -36 82 -37 85 -20 75 7 -4 8 -3 4 5 -4 6 -11 9 -15 7 -4
-3 -22 21 -40 52 -58 98 -110 164 -201 252 -226 221 -527 361 -905 420 -38 6
-80 13 -92 16 -12 2 -24 0 -27 -4z"/>
<path d="M6960 5113 c-393 -65 -618 -134 -870 -265 -390 -202 -636 -448 -795
-795 -21 -45 -43 -80 -49 -79 -6 2 -8 1 -4 -1 4 -3 4 -18 1 -35 -5 -27 -4 -30
11 -25 10 4 19 7 21 7 2 0 1 8 -2 18 -8 31 199 328 219 315 7 -3 8 -1 4 6 -11
17 200 223 314 307 189 139 382 249 605 344 177 76 416 158 527 180 32 6 60
16 63 21 6 9 0 10 -45 2z"/>
<path d="M3292 4969 c3 -8 16 -14 29 -15 64 -1 319 -82 504 -159 172 -71 495
-245 495 -266 0 -5 5 -8 12 -6 6 1 17 -9 24 -21 6 -13 13 -19 15 -14 5 12 135
-86 132 -99 -2 -5 1 -8 6 -6 14 3 102 -73 96 -84 -3 -5 0 -7 7 -4 13 5 60 -37
148 -135 63 -69 64 -54 2 36 -136 197 -173 239 -302 338 -175 135 -354 235
-545 307 -49 18 -92 36 -95 39 -3 3 -12 6 -20 7 -21 2 -261 54 -280 60 -8 3
-26 7 -40 8 -97 10 -158 17 -174 22 -12 3 -17 1 -14 -8z"/>
<path d="M6940 2960 c-119 -13 -217 -58 -252 -118 -45 -75 -53 -133 -31 -212
3 -8 5 -23 6 -32 1 -9 6 -14 11 -11 5 4 7 -1 3 -11 -4 -9 -3 -15 1 -12 12 7
53 -24 47 -35 -4 -5 2 -6 11 -2 13 5 16 2 12 -9 -4 -8 -2 -21 4 -29 8 -11 9
-10 4 4 -7 21 13 23 39 3 11 -8 25 -12 32 -9 7 3 13 0 13 -6 0 -6 3 -10 8 -9
18 6 101 -25 95 -36 -4 -7 -2 -7 7 1 15 14 43 6 33 -10 -3 -6 -1 -7 6 -3 18
12 67 -3 94 -28 32 -30 26 -68 -17 -101 -27 -20 -40 -23 -96 -20 -74 3 -150
21 -150 35 0 6 -7 10 -16 10 -11 0 -14 5 -10 17 4 10 4 14 0 10 -4 -4 -17 -1
-30 7 -20 14 -25 12 -64 -25 -22 -22 -45 -37 -51 -34 -5 3 -6 0 -3 -8 3 -8 -2
-17 -10 -20 -9 -4 -16 -12 -16 -19 0 -15 97 -106 123 -114 9 -3 17 -9 17 -13
0 -5 11 -7 25 -6 14 2 25 -1 25 -6 0 -5 9 -9 20 -9 11 0 20 -3 20 -7 0 -11
203 -10 211 0 3 5 12 10 20 11 8 2 22 6 32 11 10 4 20 5 23 2 6 -6 35 17 91
73 19 19 38 34 42 33 4 -1 7 6 8 15 0 9 4 28 8 42 9 32 10 116 2 154 -8 36
-48 96 -64 96 -7 0 -16 6 -20 14 -10 16 -63 44 -95 50 -13 3 -23 5 -23 6 0 1
-8 3 -17 6 -10 2 -26 6 -35 8 -10 3 -18 5 -18 7 0 2 -16 5 -67 12 -15 2 -35
10 -44 18 -10 8 -18 12 -20 9 -2 -3 -13 3 -24 13 -16 13 -20 26 -16 49 7 48
28 62 100 66 71 5 161 -21 149 -42 -3 -6 -3 -8 2 -4 9 9 65 -22 65 -36 0 -6
27 16 60 49 33 33 60 64 60 70 0 6 -9 16 -20 23 -12 7 -18 17 -15 23 4 5 3 8
-2 7 -4 -1 -30 12 -57 30 -28 18 -63 32 -78 32 -15 0 -28 4 -28 8 0 4 -8 8
-17 8 -10 1 -25 3 -33 6 -8 3 -49 2 -90 -2z"/>
<path d="M2113 2952 l-53 -3 -2 -282 c-1 -340 -2 -324 26 -384 19 -39 21 -50
10 -56 -18 -10 -8 -33 16 -33 23 0 16 16 -8 17 -11 0 -13 2 -4 6 17 6 54 -26
45 -40 -3 -5 -1 -7 4 -4 6 4 16 1 22 -7 7 -8 8 -16 4 -18 -4 -3 -2 -3 5 -2 17
5 74 -31 64 -41 -4 -5 -1 -5 6 -1 7 4 28 2 47 -4 73 -24 213 -12 287 26 46 23
128 97 128 115 0 5 4 9 9 9 7 0 21 40 50 145 11 40 13 446 3 510 -5 28 -13 49
-18 48 -25 -5 -101 -4 -122 1 -13 3 -20 1 -17 -5 4 -5 -3 -9 -14 -9 -18 0 -21
-6 -21 -47 -1 -224 -9 -503 -16 -522 -6 -22 -64 -89 -64 -75 0 2 -10 -2 -22
-9 -13 -8 -36 -13 -53 -11 -16 1 -44 3 -61 3 -32 1 -103 55 -107 82 -2 8 -5
19 -8 24 -3 6 -6 134 -8 285 -1 151 -4 276 -6 279 -6 5 -58 7 -122 3z"/>
<path d="M2933 2946 c-3 -4 -5 -188 -4 -409 1 -370 0 -401 -16 -414 -10 -8
-13 -12 -7 -9 7 3 14 0 17 -7 3 -9 29 -11 97 -7 l93 5 -2 249 c-1 136 -5 256
-8 265 -3 9 7 -1 21 -22 15 -21 24 -43 20 -50 -4 -6 -4 -9 1 -5 6 6 55 -42 55
-55 0 -3 26 -42 58 -87 31 -45 68 -99 81 -119 13 -20 28 -37 33 -39 4 -2 8
-10 8 -18 0 -9 -5 -12 -12 -8 -7 4 -8 3 -4 -4 4 -6 13 -9 21 -5 13 5 17 -5 14
-33 0 -4 10 -12 23 -18 14 -7 23 -21 22 -34 -1 -21 3 -22 82 -22 56 0 84 -4
87 -12 4 -10 6 -10 6 0 1 6 10 12 21 12 11 0 20 5 20 11 0 5 5 7 12 3 7 -5 8
-3 3 7 -5 7 -10 189 -12 404 -1 214 -4 399 -6 410 -4 21 -34 23 -134 10 l-43
-6 0 -267 c0 -232 -2 -264 -14 -241 -7 15 -33 53 -57 85 -55 74 -71 103 -62
117 3 6 1 7 -6 3 -7 -4 -18 5 -29 23 -9 17 -20 31 -24 31 -5 0 -8 5 -8 10 0 6
-5 16 -10 23 -6 7 -29 41 -53 77 -23 36 -45 67 -49 68 -5 2 -8 9 -8 15 0 7
-10 24 -23 39 -21 24 -30 26 -111 30 -48 1 -90 -1 -93 -6z"/>
<path d="M3853 2952 l-23 -3 0 -425 0 -425 95 2 95 2 0 26 c0 14 2 205 3 423
l2 397 -75 3 c-41 2 -85 2 -97 0z"/>
<path d="M4142 2945 c-11 -18 -12 -45 -2 -45 6 0 9 -3 8 -7 -3 -10 32 -102 48
-128 7 -11 13 -22 13 -25 0 -5 4 -18 31 -85 6 -16 14 -41 17 -55 2 -14 11 -35
19 -47 8 -12 14 -28 14 -36 0 -7 9 -30 20 -52 11 -22 20 -43 20 -47 0 -5 7
-25 16 -46 8 -20 15 -39 16 -42 0 -3 9 -22 19 -42 11 -21 17 -38 14 -38 -3 0
2 -11 11 -25 9 -14 13 -25 9 -25 -4 0 -2 -7 5 -15 7 -8 9 -15 5 -15 -4 0 -3
-6 2 -12 6 -7 9 -23 8 -35 -1 -12 2 -20 7 -17 4 3 8 0 8 -6 0 -6 5 -8 11 -5 6
4 54 8 107 9 56 0 97 5 98 11 1 12 11 38 29 80 8 16 11 33 9 37 -3 4 0 8 5 8
6 0 10 3 9 8 0 4 2 16 6 27 22 59 27 66 39 59 7 -5 6 0 -3 11 -14 17 -13 18 4
12 14 -6 16 -5 8 5 -7 9 -6 23 5 48 9 19 17 40 18 46 8 34 38 83 49 77 7 -4 7
-1 -1 8 -10 12 -10 18 -1 27 7 7 9 12 5 12 -4 0 2 18 13 40 11 22 18 40 15 40
-3 0 4 17 15 37 11 21 20 41 20 45 0 4 5 19 12 35 6 15 12 34 14 41 1 6 14 35
28 64 14 29 26 55 26 59 0 9 -171 12 -205 3 -15 -4 -22 -10 -16 -13 7 -5 6
-16 -4 -35 -8 -16 -15 -35 -15 -43 0 -8 -5 -24 -12 -36 -16 -28 -37 -85 -44
-116 -3 -13 -21 -62 -40 -110 -19 -47 -37 -93 -39 -101 -2 -8 -4 -16 -5 -17
-2 -2 -4 -7 -5 -13 -1 -5 -3 -11 -5 -12 -1 -2 -3 -10 -5 -19 -1 -8 -12 -35
-23 -59 l-20 -43 -8 34 c-11 48 -11 48 -14 57 -1 4 -2 10 -1 15 0 4 -3 7 -8 7
-5 0 -12 17 -16 38 -4 20 -10 42 -15 47 -4 6 -10 19 -12 30 -1 11 -6 22 -10
25 -4 3 -9 17 -11 30 -3 14 -17 51 -31 84 -14 32 -23 62 -20 67 3 5 0 9 -5 9
-6 0 -10 3 -10 8 1 4 0 10 -1 15 -1 4 -3 10 -5 15 -1 4 -10 25 -19 46 -10 22
-19 51 -20 65 -3 26 -5 26 -101 31 -59 3 -99 1 -103 -5z"/>
<path d="M5108 2946 c3 -5 -1 -7 -10 -4 -8 4 -20 -2 -27 -14 -7 -11 -8 -17 -2
-13 7 4 11 -9 11 -39 0 -25 -4 -46 -10 -46 -5 0 -10 -20 -10 -45 0 -25 5 -45
10 -45 6 0 10 -86 10 -237 0 -153 -4 -233 -10 -223 -7 12 -9 10 -7 -7 0 -12 5
-19 9 -17 4 3 8 -24 8 -60 0 -37 -4 -66 -10 -66 -5 0 -10 -7 -10 -15 0 -12 43
-14 303 -12 l302 2 3 71 c2 48 -2 79 -13 100 -8 16 -15 22 -15 14 0 -13 -27
-15 -185 -15 l-184 0 1 87 2 87 163 -2 163 -2 2 30 c7 141 21 130 -171 130
l-162 0 6 79 c3 44 7 81 8 83 2 2 76 5 165 8 146 5 162 4 171 -12 6 -10 11
-13 11 -7 0 7 8 14 19 17 16 4 18 13 16 63 -2 36 1 62 8 66 9 6 9 8 0 8 -7 0
-10 6 -7 14 3 9 -4 19 -16 26 -18 10 -21 9 -15 -1 5 -7 4 -10 -3 -5 -17 10
-531 12 -524 2z"/>
<path d="M5815 2529 l0 -427 93 -1 c69 -1 92 1 93 11 0 7 1 68 1 136 l-1 122
75 -2 c61 -3 71 -5 58 -15 -9 -7 -20 -10 -24 -8 -4 3 -14 -3 -21 -12 -12 -15
-12 -16 1 -8 8 5 20 10 25 11 6 1 17 5 27 9 11 5 18 0 23 -17 4 -13 11 -25 15
-28 5 -3 10 -14 12 -25 3 -19 10 -30 51 -78 9 -11 16 -25 14 -31 -2 -6 3 -17
10 -25 12 -11 12 -15 2 -22 -26 -16 2 -21 98 -19 54 1 106 2 116 2 22 -1 22 9
-3 41 -11 14 -20 29 -20 35 0 5 -13 27 -28 48 -16 21 -36 54 -45 72 -9 17 -24
46 -33 64 -16 29 -16 32 2 44 10 7 24 18 31 24 7 5 15 10 18 10 3 0 14 9 25
20 11 11 17 20 13 20 -3 0 1 8 10 18 35 38 59 194 34 218 -4 4 -7 17 -7 29 0
26 -25 78 -45 95 -8 7 -15 19 -15 26 0 8 -6 11 -15 8 -8 -4 -15 -2 -15 3 0 6
-12 15 -26 21 -14 7 -23 16 -20 21 4 5 -4 7 -16 3 -14 -3 -19 -1 -14 6 3 6 2
14 -4 17 -6 4 -10 3 -9 -2 3 -20 -4 -21 -48 -8 -32 10 -113 15 -243 17 l-195
3 0 -426z m395 236 c8 -2 19 -4 23 -4 5 -1 6 -5 3 -10 -3 -5 3 -11 13 -14 29
-7 52 -63 45 -108 -4 -23 -11 -36 -17 -32 -6 4 -8 0 -4 -11 5 -12 -1 -20 -18
-28 -14 -6 -25 -16 -25 -22 0 -6 -5 -5 -12 2 -7 7 -17 12 -22 12 -6 0 -5 -4 3
-9 18 -11 -51 -24 -137 -25 l-63 -1 3 125 3 125 80 6 c44 3 87 3 95 1 8 -2 22
-5 30 -7z"/>
<path d="M7469 2933 c0 -16 -1 -48 -1 -73 0 -25 -3 -49 -6 -55 -11 -17 -11
-59 -1 -71 11 -14 10 -144 -2 -144 -4 0 -9 -7 -13 -15 -3 -8 0 -14 6 -12 15 3
18 -54 4 -72 -8 -12 -8 -13 2 -7 10 6 13 -5 11 -53 -2 -43 -6 -61 -16 -61 -15
0 -17 -16 -3 -25 6 -3 10 -1 10 6 0 7 3 9 6 6 4 -4 1 -13 -6 -22 -7 -8 -8 -15
-3 -15 8 0 10 -97 2 -125 -2 -5 1 -34 5 -62 8 -51 9 -53 39 -53 24 0 28 3 17
10 -10 6 76 10 253 10 181 0 267 3 267 11 0 5 5 7 12 3 7 -5 8 -3 2 7 -5 8 -7
40 -5 72 3 56 -11 93 -30 81 -5 -3 -9 -1 -9 4 0 6 -8 8 -17 6 -10 -3 -91 -6
-181 -7 l-163 -2 2 88 3 88 163 -3 c102 -2 164 1 167 7 2 6 1 31 -2 58 -3 26
-1 47 5 47 5 0 7 16 5 36 -3 25 -7 32 -13 23 -6 -11 -47 -15 -169 -18 l-160
-3 2 88 2 89 195 0 196 0 -2 84 c-1 46 -4 85 -6 87 -7 8 -535 6 -547 -1 -9 -5
-11 -4 -6 3 4 7 2 12 -3 12 -6 0 -11 -12 -12 -27z"/>
<path d="M2385 1798 c-33 -5 -67 -12 -75 -15 -8 -3 -18 -5 -22 -5 -5 1 -8 -3
-8 -9 0 -5 -4 -8 -8 -5 -18 11 -93 -57 -119 -108 -15 -28 -26 -54 -25 -58 1
-5 -2 -8 -8 -8 -5 0 -7 -7 -4 -15 4 -8 -1 -17 -10 -21 -9 -3 -13 -11 -9 -17
10 -16 12 -137 2 -137 -16 0 -10 -28 7 -34 14 -5 15 -4 4 9 -7 9 -8 15 -2 15
5 0 15 -12 20 -27 21 -58 89 -128 150 -155 55 -25 157 -26 233 -4 61 18 141
83 154 124 3 12 11 22 17 22 6 0 8 3 5 6 -3 4 -2 14 3 23 17 33 15 173 -4 230
-19 56 -93 141 -122 141 -8 0 -14 5 -14 12 0 6 -3 8 -6 5 -4 -3 -16 0 -28 8
-11 8 -31 15 -44 15 -13 0 -20 4 -17 10 3 6 3 9 -2 9 -4 -1 -35 -6 -68 -11z
m5 -150 c0 10 11 12 43 8 23 -3 46 -5 51 -5 4 -1 6 -8 3 -15 -4 -9 -1 -13 6
-10 17 6 52 -33 65 -72 8 -27 9 -60 0 -141 -1 -7 -5 -13 -10 -13 -4 0 -8 -6
-8 -13 0 -13 -40 -52 -40 -39 0 4 -6 0 -13 -9 -15 -19 -121 -23 -150 -5 -33
19 -77 68 -77 86 0 9 -3 20 -7 23 -8 9 -7 62 2 105 13 56 107 128 127 98 5 -7
8 -6 8 2z"/>
<path d="M4176 1802 c-3 -5 -40 -9 -81 -9 -42 -1 -79 -4 -83 -9 -4 -4 -2 -4 4
-1 17 10 23 -24 23 -150 1 -66 -3 -114 -9 -118 -5 -3 -10 0 -11 7 0 7 -4 4 -9
-7 -12 -28 -12 -35 1 -35 5 0 7 5 4 10 -3 6 0 10 7 10 10 0 12 -32 10 -156 -3
-110 -1 -154 7 -150 6 4 11 1 11 -6 0 -10 2 -10 9 0 7 11 47 13 192 11 l184
-3 1 57 c0 31 -3 62 -7 68 -4 7 -28 10 -63 8 -31 -2 -56 -2 -56 1 0 3 -31 3
-69 0 -38 -3 -67 -2 -65 2 2 3 5 25 6 47 l1 41 93 0 c51 0 99 3 108 6 12 5 16
21 16 65 l0 59 -108 0 -108 0 0 53 0 52 112 -1 c61 -1 117 2 124 6 16 10 20
107 5 120 -7 6 -65 10 -129 11 -69 0 -114 4 -111 10 4 5 4 9 1 9 -3 0 -7 -4
-10 -8z"/>
<path d="M5824 1797 c-2 -7 -6 -146 -7 -308 l-2 -294 77 0 c42 0 73 2 69 5
-10 6 -12 70 -4 84 6 9 5 68 -2 129 -2 15 1 27 7 27 7 0 7 5 1 13 -5 6 -10 30
-11 52 l-2 40 14 -30 c7 -16 11 -33 9 -37 -2 -4 2 -5 10 -2 9 3 19 -6 27 -25
7 -17 17 -31 23 -31 6 0 2 -7 -9 -15 -13 -10 -14 -13 -3 -10 9 3 22 -2 30 -11
12 -15 12 -17 0 -9 -10 5 -12 4 -7 -3 4 -7 14 -12 22 -12 8 0 14 -5 14 -11 0
-8 44 -73 78 -114 5 -6 11 -17 14 -25 3 -11 23 -15 79 -15 l74 0 -2 295 -2
295 -68 0 -68 0 1 -184 c1 -162 0 -181 -12 -153 -7 18 -18 32 -25 32 -6 0 -9
8 -6 20 3 11 2 18 -2 15 -5 -2 -19 7 -31 20 -13 14 -19 25 -14 25 5 0 4 4 -2
8 -10 6 -60 78 -99 141 -5 9 -12 18 -15 21 -3 3 -13 17 -23 33 -16 24 -23 27
-75 27 -40 0 -53 3 -42 10 10 7 11 10 2 10 -7 0 -15 -6 -18 -13z"/>
<path d="M2805 1765 c1 -17 4 -35 7 -40 9 -16 7 -234 -2 -240 -5 -3 -5 -18 -1
-33 5 -15 8 -72 9 -127 0 -55 1 -108 1 -117 1 -16 11 -18 76 -18 l75 0 0 104
0 104 79 4 c93 4 113 1 105 -15 -3 -7 1 -4 9 6 9 10 18 18 22 17 4 -1 10 2 13
6 4 4 1 4 -5 0 -9 -5 -13 3 -14 26 -1 18 -3 40 -4 48 -1 8 -3 23 -4 33 -1 16
-11 17 -103 13 l-103 -4 0 63 0 64 104 -5 c145 -7 147 -6 149 58 1 29 -2 59
-6 66 -7 9 -59 13 -208 15 l-199 2 0 -30z"/>
<path d="M7626 1792 c-3 -5 -26 -13 -51 -16 -25 -4 -45 -12 -45 -17 0 -6 -4
-7 -10 -4 -12 7 -110 -92 -110 -111 0 -8 -6 -17 -13 -20 -17 -6 -18 -8 -21
-144 -1 -64 -6 -122 -10 -130 -4 -8 0 -6 9 5 22 27 35 9 39 -55 1 -8 7 -15 13
-15 7 0 25 -11 40 -25 26 -24 95 -62 118 -65 6 -1 15 -3 20 -4 12 -3 123 -1
150 3 40 6 75 18 75 27 0 4 9 6 20 4 11 -2 18 0 15 5 -3 4 7 18 21 29 15 12
23 21 18 21 -5 0 -1 5 9 11 15 9 17 26 17 124 0 135 8 127 -136 121 -54 -3
-107 -5 -116 -6 -15 0 -18 -10 -18 -60 l0 -60 56 6 c59 7 74 0 74 -39 0 -20
-31 -49 -57 -54 -54 -9 -117 -7 -120 5 -3 6 -10 12 -15 12 -12 0 -67 58 -69
72 -1 4 -2 12 -3 17 0 5 -4 12 -7 15 -3 3 -4 31 -2 61 3 58 26 102 68 129 27
18 121 33 111 18 -4 -7 5 -9 24 -6 24 4 37 -1 61 -25 17 -17 34 -31 39 -31 5
0 11 -6 14 -12 3 -7 3 -3 0 10 -5 19 3 32 38 64 26 25 38 42 31 45 -7 3 -13
10 -13 17 0 14 -55 48 -64 39 -3 -3 -6 -1 -6 5 0 7 -8 12 -18 12 -10 0 -22 3
-26 8 -4 4 -17 8 -29 9 -12 0 -43 4 -68 8 -28 4 -49 3 -53 -3z"/>
<path d="M3540 1775 c-6 -7 -7 -21 -3 -30 4 -12 3 -16 -4 -12 -7 4 -10 -3 -9
-18 0 -14 4 -25 9 -25 10 0 9 -48 -2 -54 -5 -3 -8 -17 -8 -32 0 -18 2 -22 8
-13 13 21 11 -48 -2 -73 -8 -15 -8 -19 0 -14 6 4 11 0 11 -9 0 -10 -5 -14 -12
-9 -10 6 -10 4 0 -7 6 -7 12 -17 12 -22 0 -4 -6 -5 -12 -1 -10 6 -10 4 0 -7 6
-7 12 -22 11 -34 0 -20 0 -20 -10 0 l-9 20 4 -20 c2 -11 7 -29 12 -39 6 -15 4
-17 -7 -11 -11 7 -12 6 -2 -6 13 -16 13 -69 -1 -69 -5 0 -3 -7 4 -15 6 -8 8
-20 4 -27 -12 -19 -12 -48 0 -49 6 0 99 -1 206 -1 l195 0 1 54 c2 82 7 80
-130 76 l-121 -3 3 209 c2 115 1 219 -2 232 -6 23 -11 24 -71 23 -38 -1 -69
-7 -75 -14z"/>
<path d="M4729 1786 c0 -1 -2 -12 -4 -26 -2 -14 -6 -34 -8 -45 -3 -11 -6 -23
-6 -27 -1 -5 -9 -8 -18 -8 -14 0 -15 -2 -5 -9 19 -12 -11 -86 -30 -75 -10 6
-10 4 0 -8 9 -11 10 -18 2 -23 -5 -3 -10 -1 -10 6 0 7 -3 9 -6 6 -4 -4 -2 -12
4 -19 7 -9 5 -25 -8 -53 -18 -40 -31 -76 -31 -85 -1 -3 -5 -11 -11 -17 -6 -7
-7 -13 -4 -13 4 0 1 -12 -8 -27 -18 -35 -42 -91 -51 -121 -3 -12 -10 -20 -15
-17 -4 3 -6 -3 -4 -12 4 -15 18 -18 80 -20 42 0 72 3 68 8 -3 5 0 9 5 9 6 0
10 3 10 8 -1 4 0 9 1 12 1 3 3 13 5 23 7 39 25 47 96 46 38 -1 66 -5 63 -10
-3 -5 2 -9 11 -9 9 0 13 5 10 10 -4 6 8 10 28 10 30 0 37 -5 53 -37 10 -21 17
-46 16 -55 -1 -15 10 -17 79 -15 43 1 79 3 79 4 0 1 -5 14 -12 30 -6 15 -11
31 -10 36 1 4 -2 7 -6 7 -5 0 -9 6 -9 14 0 8 -7 30 -17 50 -10 20 -19 45 -21
55 -2 11 -11 33 -19 50 -9 17 -16 33 -16 36 -1 11 -12 41 -26 68 -8 15 -12 27
-8 27 3 0 1 7 -6 15 -7 8 -9 15 -4 15 5 0 4 4 -3 8 -7 4 -15 22 -18 41 -3 18
-13 43 -21 57 -9 13 -13 24 -10 24 4 0 -1 14 -9 31 -16 30 -16 30 -96 28 -43
-1 -79 -2 -80 -3z"/>
<path d="M5209 1788 c-1 -2 -2 -136 -3 -299 l-1 -295 70 0 70 -1 -3 91 -4 91
47 3 c29 1 44 -1 40 -8 -3 -6 0 -7 9 -4 9 4 16 1 16 -6 0 -7 13 -31 29 -55 16
-24 32 -53 36 -64 3 -12 11 -21 16 -21 6 0 7 -4 4 -10 -7 -11 -6 -12 92 -14
54 -2 70 1 63 9 -6 7 -8 14 -5 17 3 3 -1 11 -10 18 -8 7 -15 18 -15 26 0 7 -6
19 -13 26 -7 7 -25 35 -40 61 l-28 48 23 19 c13 11 25 19 28 20 3 0 14 14 25
32 20 34 30 154 15 173 -5 6 -9 15 -10 20 -10 46 -71 103 -102 97 -5 -1 -8 2
-8 6 0 4 -8 9 -17 10 -29 5 -323 14 -324 10z m166 -143 c6 -1 27 3 47 7 27 6
47 3 72 -9 39 -18 47 -40 32 -90 -11 -40 -50 -55 -130 -52 l-56 2 0 79 c0 61
3 77 13 71 6 -4 17 -8 22 -8z"/>
<path d="M6466 1773 c-4 -9 -6 -141 -6 -295 l1 -278 27 -1 c15 -1 41 -3 57 -4
57 -4 55 -15 55 291 0 265 1 283 18 277 14 -5 13 -3 -3 10 -29 23 -140 23
-149 0z"/>
<path d="M6738 1783 c-10 -2 -18 -9 -18 -14 0 -6 5 -7 10 -4 10 6 12 -10 14
-114 1 -34 -3 -55 -11 -58 -7 -3 -12 -19 -12 -37 l1 -31 8 30 c6 23 8 14 9
-38 1 -43 -3 -66 -9 -62 -6 4 -9 -14 -8 -47 l1 -53 7 45 c6 41 7 37 11 -36 4
-85 -6 -178 -11 -104 -2 28 -4 30 -7 10 -2 -14 2 -37 9 -50 12 -23 19 -25 86
-26 l73 0 0 150 c0 83 0 160 0 171 0 17 3 15 15 -7 8 -16 19 -28 24 -28 6 0 9
-3 8 -8 -2 -4 7 -19 20 -32 13 -14 21 -32 19 -40 -3 -8 -7 -22 -9 -30 -3 -8
-3 -12 -1 -7 3 4 9 5 14 2 5 -4 6 1 3 9 -13 34 13 13 44 -36 25 -39 30 -53 20
-60 -9 -5 -5 -8 11 -8 18 0 22 -4 18 -19 -3 -15 -1 -18 11 -14 12 5 14 1 10
-15 -4 -12 -2 -20 3 -16 5 3 14 2 21 -2 14 -9 95 -14 121 -7 13 3 17 14 16 46
-1 23 -1 144 0 270 1 125 -1 232 -4 237 -3 6 -1 10 6 10 8 0 8 4 -1 15 -17 20
-123 21 -140 0 -8 -10 -11 -59 -8 -173 l3 -159 -23 38 c-13 22 -28 39 -33 39
-6 0 -8 4 -5 9 3 5 -1 11 -9 15 -8 3 -15 10 -15 16 0 6 -9 20 -20 32 -11 12
-20 28 -20 35 0 7 -4 13 -10 13 -5 0 -10 7 -10 15 0 8 -4 15 -10 15 -5 0 -10
7 -10 15 0 8 -4 15 -10 15 -5 0 -10 6 -10 14 0 7 -14 28 -32 45 -28 28 -38 31
-87 30 -31 -1 -64 -3 -73 -6z"/>
</g>
</svg>
